<mxfile host="app.diagrams.net" modified="2023-07-27T03:26:01.550Z" agent="Mozilla/5.0 (Windows NT 10.0; Win64; x64) AppleWebKit/537.36 (KHTML, like Gecko) Chrome/115.0.0.0 Safari/537.36 Edg/115.0.1901.183" etag="phq2x4Lyphsi13SbTzaf" version="21.6.5" type="device" pages="2">
  <diagram id="R2lEEEUBdFMjLlhIrx00" name="Page-1">
    <mxGraphModel dx="620" dy="1713" grid="1" gridSize="10" guides="1" tooltips="1" connect="1" arrows="1" fold="1" page="1" pageScale="1" pageWidth="850" pageHeight="1100" math="0" shadow="0" extFonts="Permanent Marker^https://fonts.googleapis.com/css?family=Permanent+Marker">
      <root>
        <mxCell id="0" />
        <mxCell id="1" parent="0" />
        <mxCell id="sx4bDLCk7kIE46ueS4SA-2" value="Reality show" style="rounded=0;whiteSpace=wrap;html=1;sketch=1;hachureGap=4;jiggle=2;curveFitting=1;fontFamily=Architects Daughter;fontSource=https%3A%2F%2Ffonts.googleapis.com%2Fcss%3Ffamily%3DArchitects%2BDaughter;fontSize=20;" vertex="1" parent="1">
          <mxGeometry x="320" y="70" width="120" height="40" as="geometry" />
        </mxCell>
        <mxCell id="sx4bDLCk7kIE46ueS4SA-3" value="Producer" style="rounded=0;whiteSpace=wrap;html=1;sketch=1;hachureGap=4;jiggle=2;curveFitting=1;fontFamily=Architects Daughter;fontSource=https%3A%2F%2Ffonts.googleapis.com%2Fcss%3Ffamily%3DArchitects%2BDaughter;fontSize=20;" vertex="1" parent="1">
          <mxGeometry x="690" y="60" width="100" height="40" as="geometry" />
        </mxCell>
        <mxCell id="sx4bDLCk7kIE46ueS4SA-4" value="TV channel" style="rounded=0;whiteSpace=wrap;html=1;sketch=1;hachureGap=4;jiggle=2;curveFitting=1;fontFamily=Architects Daughter;fontSource=https%3A%2F%2Ffonts.googleapis.com%2Fcss%3Ffamily%3DArchitects%2BDaughter;fontSize=20;" vertex="1" parent="1">
          <mxGeometry x="700" y="390" width="110" height="40" as="geometry" />
        </mxCell>
        <mxCell id="sx4bDLCk7kIE46ueS4SA-5" value="User" style="rounded=0;whiteSpace=wrap;html=1;sketch=1;hachureGap=4;jiggle=2;curveFitting=1;fontFamily=Architects Daughter;fontSource=https%3A%2F%2Ffonts.googleapis.com%2Fcss%3Ffamily%3DArchitects%2BDaughter;fontSize=20;" vertex="1" parent="1">
          <mxGeometry x="365.66" y="340" width="70" height="40" as="geometry" />
        </mxCell>
        <mxCell id="sx4bDLCk7kIE46ueS4SA-6" value="RID" style="ellipse;whiteSpace=wrap;html=1;sketch=1;hachureGap=4;jiggle=2;curveFitting=1;fontFamily=Architects Daughter;fontSource=https%3A%2F%2Ffonts.googleapis.com%2Fcss%3Ffamily%3DArchitects%2BDaughter;fontSize=20;" vertex="1" parent="1">
          <mxGeometry x="216.24" y="80" width="80" height="50" as="geometry" />
        </mxCell>
        <mxCell id="sx4bDLCk7kIE46ueS4SA-7" value="Basic info" style="ellipse;whiteSpace=wrap;html=1;sketch=1;hachureGap=4;jiggle=2;curveFitting=1;fontFamily=Architects Daughter;fontSource=https%3A%2F%2Ffonts.googleapis.com%2Fcss%3Ffamily%3DArchitects%2BDaughter;fontSize=20;" vertex="1" parent="1">
          <mxGeometry x="260" y="160" width="80" height="60" as="geometry" />
        </mxCell>
        <mxCell id="sx4bDLCk7kIE46ueS4SA-8" value="Name" style="ellipse;whiteSpace=wrap;html=1;sketch=1;hachureGap=4;jiggle=2;curveFitting=1;fontFamily=Architects Daughter;fontSource=https%3A%2F%2Ffonts.googleapis.com%2Fcss%3Ffamily%3DArchitects%2BDaughter;fontSize=20;" vertex="1" parent="1">
          <mxGeometry x="406.92" width="60" height="40" as="geometry" />
        </mxCell>
        <mxCell id="sx4bDLCk7kIE46ueS4SA-10" value="Participant" style="ellipse;shape=doubleEllipse;whiteSpace=wrap;html=1;sketch=1;hachureGap=4;jiggle=2;curveFitting=1;fontFamily=Architects Daughter;fontSource=https%3A%2F%2Ffonts.googleapis.com%2Fcss%3Ffamily%3DArchitects%2BDaughter;fontSize=20;" vertex="1" parent="1">
          <mxGeometry x="220" y="-20" width="120" height="50" as="geometry" />
        </mxCell>
        <mxCell id="sx4bDLCk7kIE46ueS4SA-14" value="" style="shape=stencil(lVdJchsxDHyNrijuIM+O8w9XWY5UUSSXrGy/D5gpjkRC0/LcZmmQANhogBv/9LF7ed9unPm4nE/ft7/3r5fdxn/ZOLc/7rbn/UWeNv5545/eTuftt/Pp5/F1en9/qcj69OP0q67wZ7JzlEw1cubv9MEHKvz/y9cJf9gfb/CZvO/wskJxy3gb2+9mUCiB9W2hHDt8oJSW8fI7cO8QebC+BFBsh7fk7TLee/J9ggxxBHhu4V3xAawfHBk/4G0B+ETJrsBHSyaOeAPwUftvQT6T/A4r1k+B4hivQfhCVuGBP+wplhEP8s+ZnMon8Cc7nR8D+FASeZV/4H9hin29OLx+ppg6PFMAfCiFfO75H2EBi0EeCixRAB5ZM5/orClMBfvEQ82XJjNLBgPpYiGHsiqn3LMoJWLkEo+0YymkDAwki3E0YEC8Eij3xEu5afF9A095iEGogWLwZHsqRdfE9b6BI+7TGuxKA2/IhTUuid4/MBiCtlgvdFo9rgd1bqYVyCIx+pAt1BfNvAj7jaa2dS0FnyweUQwGEdyrz0AW+zRIQJAugXhRWg+eg06wS2kVkz6RkEtKJnmtDkt9Qt1ba6A7A2Pp1q2nGgBu695WDcBR6+bJ87jxye4sBrCdq/b/IAY9X9S0AgWoA0xSO6CJSk1ID3aoI9iqGOqMV8YdMqB3HSKTMgDnIEPy6JLEgAwCsSIfmjttGnWSmRwSviYqDZ8jHIRDY+Y89xcoAb7tfhV6rPQS37CBjPYAL+24p/ZV+hfwps9okZsCqH9DMYwJciBgqZzef9EDlCCl2qJ4aA6b596bcSECRkjnHqYFaaWgbMxYZoEpo75Dtq+BgLXIjp2/lh3wZ+1N9jFeHq7X5rf94TDdum//j9ds+TRd0f3zPw==);lineShape=1;sketch=1;hachureGap=4;jiggle=2;curveFitting=1;fontFamily=Architects Daughter;fontSource=https%3A%2F%2Ffonts.googleapis.com%2Fcss%3Ffamily%3DArchitects%2BDaughter;fontSize=20;" vertex="1" parent="1">
          <mxGeometry x="243.59547363098642" y="120.00055615334398" width="25.292880184669798" height="2.5783348008109215" as="geometry" />
        </mxCell>
        <mxCell id="sx4bDLCk7kIE46ueS4SA-15" value="" style="shape=stencil(lZbdUttADIWfxrdnpNX+XlN4D2YIjYc0YUKg5e3R1mOIlkSd3vnv88pHR8c7yc3L9v55MwV6OR0PT5vf88NpO8mPKYR5v90c55MeTXI7yc3j4bj5eTy87h+W8+f7/mQ/+nV462/4s3CNUEKnAr0vV2JCan+v3C3Abt6fAxmlGCAJWnWAhsoGyIKaXSCJAUoEeyUltGyAqis4QG2IFmiMFh1AVbIltYLE14FCyFYlJgLRdSITJNolGtiRKRGq7ZzqQE4jooBtI2oFO4BUkAVK84EMsrrmBhIHKGMjUkV1VIphXCGqW5zO6W1pFggITklaQK4G0CKzs0KuaMkCGSE53lARrZlU6OB8dG+TXUFbGfyBoGFG6V8zykPjCLFcB87c/OkNWoPh8hI6MBbQofJa3UdysGtbX3FZJh36YUg1GJySeqzYkr6i53KrBeXbjFYnBjQa6wBofHozmhCHoVZZHTN1QP4HkDima09Dx0whrm7+BBKyE0yc1rQ+i43ofHRBtW4tDHHaEMYwzrym7cXn1ar2AxKvKXLteWuLSODg1ZNsYgRfUc0TWz831xQcR4GYkZweBxmBBHEmRz0x/Bm0AY6garpBofHfpgdfO47HebdbNizn98cdil5adjdy+wE=);lineShape=1;sketch=1;hachureGap=4;jiggle=2;curveFitting=1;fontFamily=Architects Daughter;fontSource=https%3A%2F%2Ffonts.googleapis.com%2Fcss%3Ffamily%3DArchitects%2BDaughter;fontSize=20;" vertex="1" parent="1">
          <mxGeometry x="435.66317708560723" y="-57.34454019447787" width="2.51462274023811" height="2.522336761604606" as="geometry" />
        </mxCell>
        <mxCell id="sx4bDLCk7kIE46ueS4SA-18" value="PID" style="ellipse;whiteSpace=wrap;html=1;sketch=1;hachureGap=4;jiggle=2;curveFitting=1;fontFamily=Architects Daughter;fontSource=https%3A%2F%2Ffonts.googleapis.com%2Fcss%3Ffamily%3DArchitects%2BDaughter;fontSize=20;" vertex="1" parent="1">
          <mxGeometry x="740" width="60" height="30" as="geometry" />
        </mxCell>
        <mxCell id="sx4bDLCk7kIE46ueS4SA-19" value="Country" style="ellipse;whiteSpace=wrap;html=1;sketch=1;hachureGap=4;jiggle=2;curveFitting=1;fontFamily=Architects Daughter;fontSource=https%3A%2F%2Ffonts.googleapis.com%2Fcss%3Ffamily%3DArchitects%2BDaughter;fontSize=20;" vertex="1" parent="1">
          <mxGeometry x="740" y="130" width="90" height="50" as="geometry" />
        </mxCell>
        <mxCell id="sx4bDLCk7kIE46ueS4SA-20" value="Company" style="ellipse;whiteSpace=wrap;html=1;sketch=1;hachureGap=4;jiggle=2;curveFitting=1;fontFamily=Architects Daughter;fontSource=https%3A%2F%2Ffonts.googleapis.com%2Fcss%3Ffamily%3DArchitects%2BDaughter;fontSize=20;" vertex="1" parent="1">
          <mxGeometry x="580" y="-10" width="110" height="50" as="geometry" />
        </mxCell>
        <mxCell id="sx4bDLCk7kIE46ueS4SA-21" value="Produces" style="rhombus;whiteSpace=wrap;html=1;sketch=1;hachureGap=4;jiggle=2;curveFitting=1;fontFamily=Architects Daughter;fontSource=https%3A%2F%2Ffonts.googleapis.com%2Fcss%3Ffamily%3DArchitects%2BDaughter;fontSize=20;" vertex="1" parent="1">
          <mxGeometry x="500" y="70" width="140" height="60" as="geometry" />
        </mxCell>
        <mxCell id="sx4bDLCk7kIE46ueS4SA-22" value="" style="shape=link;html=1;rounded=0;sketch=1;hachureGap=4;jiggle=2;curveFitting=1;fontFamily=Architects Daughter;fontSource=https%3A%2F%2Ffonts.googleapis.com%2Fcss%3Ffamily%3DArchitects%2BDaughter;fontSize=16;startSize=8;endSize=8;curved=1;entryX=0.116;entryY=0.075;entryDx=0;entryDy=0;entryPerimeter=0;exitX=0.903;exitY=0.31;exitDx=0;exitDy=0;exitPerimeter=0;" edge="1" parent="1" source="sx4bDLCk7kIE46ueS4SA-21" target="sx4bDLCk7kIE46ueS4SA-3">
          <mxGeometry width="100" relative="1" as="geometry">
            <mxPoint x="630" y="100" as="sourcePoint" />
            <mxPoint x="730" y="100" as="targetPoint" />
          </mxGeometry>
        </mxCell>
        <mxCell id="sx4bDLCk7kIE46ueS4SA-23" value="" style="endArrow=none;html=1;rounded=0;sketch=1;hachureGap=4;jiggle=2;curveFitting=1;fontFamily=Architects Daughter;fontSource=https%3A%2F%2Ffonts.googleapis.com%2Fcss%3Ffamily%3DArchitects%2BDaughter;fontSize=16;startSize=8;endSize=8;curved=1;entryX=0.091;entryY=0.603;entryDx=0;entryDy=0;entryPerimeter=0;exitX=0.933;exitY=0.965;exitDx=0;exitDy=0;exitPerimeter=0;" edge="1" parent="1" source="sx4bDLCk7kIE46ueS4SA-2" target="sx4bDLCk7kIE46ueS4SA-21">
          <mxGeometry width="50" height="50" relative="1" as="geometry">
            <mxPoint x="440" y="90" as="sourcePoint" />
            <mxPoint x="490" y="40" as="targetPoint" />
          </mxGeometry>
        </mxCell>
        <mxCell id="sx4bDLCk7kIE46ueS4SA-24" value="TID" style="ellipse;whiteSpace=wrap;html=1;sketch=1;hachureGap=4;jiggle=2;curveFitting=1;fontFamily=Architects Daughter;fontSource=https%3A%2F%2Ffonts.googleapis.com%2Fcss%3Ffamily%3DArchitects%2BDaughter;fontSize=20;" vertex="1" parent="1">
          <mxGeometry x="760" y="290" width="70" height="50" as="geometry" />
        </mxCell>
        <mxCell id="sx4bDLCk7kIE46ueS4SA-25" value="StartYr" style="ellipse;whiteSpace=wrap;html=1;sketch=1;hachureGap=4;jiggle=2;curveFitting=1;fontFamily=Architects Daughter;fontSource=https%3A%2F%2Ffonts.googleapis.com%2Fcss%3Ffamily%3DArchitects%2BDaughter;fontSize=20;" vertex="1" parent="1">
          <mxGeometry x="620" y="450" width="80" height="50" as="geometry" />
        </mxCell>
        <mxCell id="sx4bDLCk7kIE46ueS4SA-26" value="HeadOffice" style="ellipse;whiteSpace=wrap;html=1;sketch=1;hachureGap=4;jiggle=2;curveFitting=1;fontFamily=Architects Daughter;fontSource=https%3A%2F%2Ffonts.googleapis.com%2Fcss%3Ffamily%3DArchitects%2BDaughter;fontSize=20;" vertex="1" parent="1">
          <mxGeometry x="720" y="470" width="120" height="50" as="geometry" />
        </mxCell>
        <mxCell id="sx4bDLCk7kIE46ueS4SA-27" value="Name" style="ellipse;whiteSpace=wrap;html=1;sketch=1;hachureGap=4;jiggle=2;curveFitting=1;fontFamily=Architects Daughter;fontSource=https%3A%2F%2Ffonts.googleapis.com%2Fcss%3Ffamily%3DArchitects%2BDaughter;fontSize=20;" vertex="1" parent="1">
          <mxGeometry x="580" y="380" width="83" height="40" as="geometry" />
        </mxCell>
        <mxCell id="sx4bDLCk7kIE46ueS4SA-28" value="Broadcasts" style="rhombus;whiteSpace=wrap;html=1;sketch=1;hachureGap=4;jiggle=2;curveFitting=1;fontFamily=Architects Daughter;fontSource=https%3A%2F%2Ffonts.googleapis.com%2Fcss%3Ffamily%3DArchitects%2BDaughter;fontSize=20;" vertex="1" parent="1">
          <mxGeometry x="500" y="220" width="160" height="50" as="geometry" />
        </mxCell>
        <mxCell id="sx4bDLCk7kIE46ueS4SA-29" value="" style="shape=link;html=1;rounded=0;sketch=1;hachureGap=4;jiggle=2;curveFitting=1;fontFamily=Architects Daughter;fontSource=https%3A%2F%2Ffonts.googleapis.com%2Fcss%3Ffamily%3DArchitects%2BDaughter;fontSize=16;startSize=8;endSize=8;curved=1;exitX=0.95;exitY=0.412;exitDx=0;exitDy=0;exitPerimeter=0;entryX=0.167;entryY=-0.055;entryDx=0;entryDy=0;entryPerimeter=0;" edge="1" parent="1" source="sx4bDLCk7kIE46ueS4SA-28" target="sx4bDLCk7kIE46ueS4SA-4">
          <mxGeometry width="100" relative="1" as="geometry">
            <mxPoint x="630" y="310" as="sourcePoint" />
            <mxPoint x="730" y="310" as="targetPoint" />
          </mxGeometry>
        </mxCell>
        <mxCell id="sx4bDLCk7kIE46ueS4SA-30" value="" style="endArrow=none;html=1;rounded=0;sketch=1;hachureGap=4;jiggle=2;curveFitting=1;fontFamily=Architects Daughter;fontSource=https%3A%2F%2Ffonts.googleapis.com%2Fcss%3Ffamily%3DArchitects%2BDaughter;fontSize=16;startSize=8;endSize=8;curved=1;exitX=0.75;exitY=1;exitDx=0;exitDy=0;entryX=0.105;entryY=0.412;entryDx=0;entryDy=0;entryPerimeter=0;" edge="1" parent="1" source="sx4bDLCk7kIE46ueS4SA-2" target="sx4bDLCk7kIE46ueS4SA-28">
          <mxGeometry width="50" height="50" relative="1" as="geometry">
            <mxPoint x="450" y="210" as="sourcePoint" />
            <mxPoint x="500" y="160" as="targetPoint" />
          </mxGeometry>
        </mxCell>
        <mxCell id="sx4bDLCk7kIE46ueS4SA-31" value="" style="shape=stencil(lZbdUttADIWfxrdnpNX+XlN4D2YIjYc0YUKg5e3R1mOIlkSd3vnv88pHR8c7yc3L9v55MwV6OR0PT5vf88NpO8mPKYR5v90c55MeTXI7yc3j4bj5eTy87h+W8+f7/mQ/+nV462/4s3CNUEKnAr0vV2JCan+v3C3Abt6fAxmlGCAJWnWAhsoGyIKaXSCJAUoEeyUltGyAqis4QG2IFmiMFh1AVbIltYLE14FCyFYlJgLRdSITJNolGtiRKRGq7ZzqQE4jooBtI2oFO4BUkAVK84EMsrrmBhIHKGMjUkV1VIphXCGqW5zO6W1pFggITklaQK4G0CKzs0KuaMkCGSE53lARrZlU6OB8dG+TXUFbGfyBoGFG6V8zykPjCLFcB87c/OkNWoPh8hI6MBbQofJa3UdysGtbX3FZJh36YUg1GJySeqzYkr6i53KrBeXbjFYnBjQa6wBofHozmhCHoVZZHTN1QP4HkDima09Dx0whrm7+BBKyE0yc1rQ+i43ofHRBtW4tDHHaEMYwzrym7cXn1ar2AxKvKXLteWuLSODg1ZNsYgRfUc0TWz831xQcR4GYkZweBxmBBHEmRz0x/Bm0AY6garpBofHfpgdfO47HebdbNizn98cdil5adjdy+wE=);lineShape=1;sketch=1;hachureGap=4;jiggle=2;curveFitting=1;fontFamily=Architects Daughter;fontSource=https%3A%2F%2Ffonts.googleapis.com%2Fcss%3Ffamily%3DArchitects%2BDaughter;fontSize=20;" vertex="1" parent="1">
          <mxGeometry x="608.4631953961541" y="153.8554605684617" width="2.51462274023811" height="2.5223367616044925" as="geometry" />
        </mxCell>
        <mxCell id="sx4bDLCk7kIE46ueS4SA-32" value="" style="shape=stencil(7VrJUlsxEPwaX1XalzNJ/oMqILhCgAKy/X1GcSSeWnYL50ZVbsZMvzeapWeRd+7i+fby8Xpn9fPL08OX6x/7q5fbnfuws3Z/f3v9tH+RTzv3cecubh6erj8/PXy7vzr8/XhZJeunrw/f6xN+HnBalVxBVv86fFGS0vHPN58O8nf7+428UdYN8jkqF5i8N4N8iko7+vw0yMessmHybnx+1CqUM/QJRhWu/6iPd8plqk8c5F1QmcrbUR8r56X20WGUt80jR+W1yqM+RvxF5ePoX2NUIPbXyurRnsoSc2pU36lIrKOVGaPTqkScK64fxcW3PJYtiP/94qi4bYnRxLutjoo7PKpurj4q7pVxIK71afFu5reJi9P9GcqkFiNvO2pWJp1hyJ7Rb3NTmVKEBkHBo/IQM7rxUddGoo5oLwmRxheY1EjiOCAoDzkbVGScltq/O6CoQo5spzM4r6wnAKvi6DGXqYerxmPwCw9GEnDi5ALEmegZnG0adyaRDCKOE2IF6g+xkd3xDBPHjX6IRmWikmgcRz6JThnCbqIxVNOQWzQeB4hNpnJkGKCoBH6IKrDEN0ihYgZPDh2tCpA/QSXih+ibxh2gaUmKEWuGRBfrCaQFwATSKhFAEr+Ob5Cql0hO16akjABHy3AWIwIJWOUY5wmlJnyDJoAizyt4Bk1CowQMb7ESa1Wk04NYEj8w5isFeV54iXGrAMAPEkuWVWTdy1gPV906tjcjAi8npTV8m5xzrKDIKcZjS9pqQgMVAE2pJBUHQEmRkGcpJADg7+Qou1bA+IZiWhaeAkC8SkCyRrDk1nd3AC+8En4Q4MXT1r30TroDAiXL4rGkCMAylaQsWgSwturViJszMBoovbfYWMkRs+bSrL7xAyuLAvDwBt3y/BQARoT6COYH3fqvDsg8gawy4xmEDamnJXIKAgxpscRN0PStABEL70qlPA2+i0MLWZ5n1oJd38JxAgjgaR4acoYC0cqDT1I0j4dehXfE8XqVQB5jaZWiDruNFQmYifkWNCMFx6GVGJGJX6E3XlClAJD5OBn/E2BUaVEfBGCh1eUVqALGWKo1jtMMDLi1ipIUFYCeemNPqqgkJNQH39u6UwDo7/2CKqVdHzPOGbrdyQGbaZnzM3OcBB9sPAyddqVzNWNoyPAeiFmTb01hP4OlfkgWhxqXaPDV7nu0Ut2ZMYBuK8QOKK1inBwIYFb0lO5jmHq+QufdGswQ3p5SZZhCoyYQW+BY7PnEDJFNo9PYlPpAexygMacXb3AePV0NTfJBBj1oTmKgVrJxAhhaUOoWDTwdacbNG0YxNFNJpioL0Zo4wOEe0Fsa3ka3I24SiDkuTcsZRzM0YKzaTCnAYYcopMR38mE0qenl5dSSF6ZvTc/7zpfCuIf9vxQ+lLJ3vBQuWFT5rUbGRcri0kTSE1bO/FImo/aLS5/J9ItLpTytj/ml1VTrFpdiaVqL8ku33MaYXiX4pV7G+XJxaTjps7iUzNMoxy898zQF8UvV3OrHRj6xlqz18l0+t5nlhDw0lTI6st1jxFysoyYlEj3Js3gLOMNttngneBCIbQVw2OQuNLJYJBYnNrg+WFhUJhfwMPeYwX30IiLOvcZfy8uH198M3Ozv7g4/Odj+H39jIF8dfp/gPv4G);lineShape=1;sketch=1;hachureGap=4;jiggle=2;curveFitting=1;fontFamily=Architects Daughter;fontSource=https%3A%2F%2Ffonts.googleapis.com%2Fcss%3Ffamily%3DArchitects%2BDaughter;fontSize=20;" vertex="1" parent="1">
          <mxGeometry x="456.76378238398615" y="76.5257039589194" width="17.813560789398025" height="22.331497322883024" as="geometry" />
        </mxCell>
        <mxCell id="sx4bDLCk7kIE46ueS4SA-33" value="" style="shape=stencil(lVfZctswDPwavWII8H5O0//ITJxaU9fOOE6Pvy80GqUiVC+jN4nCCkscC3LwD2/Hp9fDIO7tdr18P/wan2/HwX8ZRMbz8XAdb/o0+MfBP7xcrodv18v7+Xl+f32aLKenH5ef0x9+z7iaKdUJJe7PvOIpzAtfZ/vTeF7beyq+sWdPFQGYXGgAEkgS9BBTy4iJIwAE4twCKk2vaA8tIGTKBQJySykmkgwpxdZDUpJo0/q/NkqZSTwAZKotpawr4T6AnSPnGoQ69ShMmXxpAZmiuw8olYrxUCiCzOVCrt1EreRBXJNfPq8ABQA0sdKW9yoO/0VosYVqXWQUWO0gbwEMUpeXSlhFCZUr2/LWNDDft3d2yzVSBf8PlKS1D5RBTLXhs0mzrgAJkESxWoAD3RB4IfwBEEqgQWMhdnsAWVXO76FUtFd4z6Y16LZ7cFinMjMecN60bIwUdwpDY1JakelUXhHym/5EpZ3KIhCfbJ4odvx0+zNRYusCSYD2T930JxIZdsTVhgnJmGwYYZ3cK8R77cVO3M5o2Ey3zuyJtnc6w20z2zrTMy019snxHG0fdOZ/otDy6Rwwih21nRNMsoLdOSKJlRZ8BNvIr9YfGrJL7D7YUAHkOVg2DJOr3mtr7yih/lWdrcZegH3QWEdjj/QhRsp77FPa8kd8tJc2/NF+S7TpwvFUkRZzwIb5mrRgTznsPvB37fXh3+3iZTyd5svJ+ru9jejSfJPxj38B);lineShape=1;sketch=1;hachureGap=4;jiggle=2;curveFitting=1;fontFamily=Architects Daughter;fontSource=https%3A%2F%2Ffonts.googleapis.com%2Fcss%3Ffamily%3DArchitects%2BDaughter;fontSize=20;" vertex="1" parent="1">
          <mxGeometry x="670.4575297447386" y="89.49698323116468" width="1.4850335891360373" height="20.148861392435265" as="geometry" />
        </mxCell>
        <mxCell id="sx4bDLCk7kIE46ueS4SA-34" value="" style="shape=stencil(7VvLcls3DP0abTl8E1yn6X9kJk6tqWtnHLdN/r5gFV6Lh7qHvovOdOGdowAUSAIHhwB0Ch++3X/6enfy9tvL89Pvd3+fP7/cn8IvJ+/Pj/d3z+cX/esUPp7Chy9Pz3e/PT/9+fj58u+vn5pk++uPp7/aCt8vesW41JS8/XH5wJli//3g14v4w/lxELdlEBcTubgbV8+mEnn933F5H0wIVD4O8sH2T/bkR3tCNZ6vbwf5KMZlJi8yyCc9Xzkgn5NJicqP51OC8fWIfDXC5et4vckIOR+93zzIV2uE+kPwo3w0mey3mAzr6yfUnjTut+p9eWqPQ/nE76uifKXn+dN7N/naT+CmfDK5oDzzh2hqQvmfK+zIe3dEPphYj9jju7e8cb/eeDlyns5IQnl2X86k6b6YP6j8GO8Lf3OInlXjka5vR7ySurAf8FPjMfL1R3tE45Hg1SRfsolH7CneBLK+RTzPYgLBZ5Uf/SfHxfoQj9ma6Kj8iD9JI5rKl9H+FIwj/ml78tzyRTWF+I9FfIvZOBKPKj+ef/Sm0PNMY3xpvuP2J8inyRR6/hAvQf2Brg94ovyB+afKj+ejCBkJ/szyrmf8Pflxv06o/1vjR39wgeKhNW70Z6f0ip6PzyhvqT0Z7Of+74wHvOoBsQPPFsUD2W0wFtDTWLJ6nMCqo/tObnT+gHjuRO1txihPcwe2WpBI8oPULDXavrgnQd658APd2yE/q3g4LlGerfKjn6knsThReyDOlamwvDUBgxL5wBJRQCQP0STm+Zr4AapKD4bbvh/Rm4N0tLvt/b5T8evHBdlDnKJXP2Hor8kkJlRg9DxJZyObgqMmtXTr8RuYo5YJQfVYmeeV1B1hUwgU0pXBuDGHNZZPcoZ4DLZX2ntbIRoB77Y060lGb3WFpgERU+Ad7DszvR0/0x40QhhxVZ4qM2IQZqDEvI7HqhCQWcRZiwHhKnXXWjFGNUNkEkHtcQHPf+nutacA+UydifE5pf9A6BohYsAn+EKJkTIovYgCCnV1c2H0PuWY7E1WM0aQhrkl3qcKCVi1p1UJVQDakjONoJrwWHOlvE4VgPiWQPH+hkLmGS4hFW9Awk0q8DYLNCCaAhRLSk97ewoQD693v7vpqTxBnS9NDEx6heC2QpwKOLU/AfaACSsglTLs6nrIvyLZBiS3NSwGRAMSht9bDe+66kAiSOE4TGWBwr5hpnuF7loVIKWoAotR2S52U8i0kqAKgAJ6+Yye6ClhrSj2FLB3c66gAqsNq2/EYwoaYPWQSbreoU3XhIxpcaxzUC8urilMQU0DIhkPrsGdTzcdp6Idc2891mBRgWZFPz0f1jFapsIjDYgptS+ARv07BzwmBmWqYCcFBpYtRmc4JlzgtgLbQ+lJ8I0ZouHM+A0tBzEmWpDFCeeJMj2DWh5lFydYkmgtB4YzgjUk5QKR7aH2p+2mkCh5aL4EVT9HSwHqrbDpVGjZrE51s7SgJ64XFzbWJ731sqcQoPIXTGX0xCEX0OfoAr7zMW7s8O3X2Dc71ql63Pg9I9N2eqTU7l173wDg6iKvg0yvS5f5HmJ/uF2ZxCqYipXwlGtlL5ZRLGZFn/tV7kYcHGulNy1p6oKGzvhvKwSM6cCTXOsajnuIlj6b9JUPjc3oaYGsOMwP+s5iIKBPGLi4WKhJGvLQm1IF1ktJYYrpwus5gjcdM724FvIBFWg7riJxjZmmrDA1qKIyIqKgvgmFB1VgrtHmBaaLY4ldAxJ7JBw1nMeie/ScSyM3UWe1JOASEmONBtaUC7iBsChuIojprfCmDZQFGw7TJgnMZLRiK206gV8virlz3YcXi9+bHmT1OHWA35sem/x/2/QQLF0smnfSW7ebPG8OTkXeRfNREEcWzU3B4ZBF81SwZLZozqo84BRv/srB5rJMGZs3rwWby4vmuGDzd9F830bXrkg+tx8LtXx4QDBvLYYTBMtYi+GHqWS0GK4Q5AKL4Q1BdFgMh0zyi+GTyZ7FcItMWMiHZwSHVRbDOe/DZu/DZiNv+L8Nm6E9fHjSY9VjMZw5nc9i+NNjmXExXDr1xxfDq5P8Yjh2sn8xfDu/K/hwr5+ajXx42COeL4aTfa+rXVUWGM/20+g2H672OJTBZ7f9NLtNi/keq3hucbngPJZyJY/YbDv47kAJpApLjQmIhFvBcA/YUJwVyyPiOBdPCIPcmIwPCr7V3Kdk3naQGSvY/JrKMSc4/OODhbj+8fo7hy/nh4fLzySu/x9/F6EfXX5TET7+Aw==);lineShape=1;sketch=1;hachureGap=4;jiggle=2;curveFitting=1;fontFamily=Architects Daughter;fontSource=https%3A%2F%2Ffonts.googleapis.com%2Fcss%3Ffamily%3DArchitects%2BDaughter;fontSize=20;" vertex="1" parent="1">
          <mxGeometry x="456.59177330343755" y="134.43808922214657" width="22.00892290932461" height="32.98710463452653" as="geometry" />
        </mxCell>
        <mxCell id="sx4bDLCk7kIE46ueS4SA-35" value="" style="shape=stencil(lVdbbhsxDDzN/hKSqOd3mt4jQJzaqGsHjvu6fSksNjW5zij7t5Y5Ijl8auKHt/3T624K7u16OX/f/T48X/cTf5lCOJz2u8vhKl8TP0788HK+7L5dzj9Pz/Pv16cu2b9+nH/1G/7MuBYp144K7u98EpaDr7P88XC6lfdUo5L3nmL+GFAblaYVOHIJa8gakCkxBCStgSM5bFJlBYiBQgGASjEoQHKUIgQ0rSFV8h764IoCZAkMMKkxsWapOKoOANJiwDsgU0ORLpS1D1VYAk57J4F1CtGGKlgnn5w0kBs9ckZDpQp4LXXJhHdAowhMysJrsYDaPgbEQkFn3w0PdxEsBdOsigJU+FUkBBAAoJDPliWUrp58sWHIoOKcdVninEHBSSrr8pFkLAHYw1RMmCM1EObeIZoFMNAQPbVgAShovX5XJiFAYYq8xaSaif0Wp4VEWz2Y1p5mRgOOWy8u4wNOjBbsdBhknrQUXtUnSu0s9zkLQMWTZJ5trE8hxVsVqAVI/bRVfaIm4x35ZmlCbSysLMJ9cmsj3iofbJMcjIa48PfJ2SMR0Gk0GG6rcTuYnn41bgfzWQBJ19pgA+gh1hpGOwZFHeLREkNeUzTYksSgoBUM9rBqh8hg0UtLd/vcIpntTAjksPnR7J3LTnZfXtjQ5jtcw6sZ5aC3Eh1v7/doBN65H84bobNtkM+JatpgT1kND+xvZcs/5lM2NcM/jlffZ+07BOXD5nfLUF4+/j+SXg7H4/zGuv3fPqrkaH6Q8eM/);lineShape=1;sketch=1;hachureGap=4;jiggle=2;curveFitting=1;fontFamily=Architects Daughter;fontSource=https%3A%2F%2Ffonts.googleapis.com%2Fcss%3Ffamily%3DArchitects%2BDaughter;fontSize=20;" vertex="1" parent="1">
          <mxGeometry x="719.2726015826875" y="327.95478636231564" width="1.4548654991758667" height="24.08861200063302" as="geometry" />
        </mxCell>
        <mxCell id="sx4bDLCk7kIE46ueS4SA-38" value="Rates" style="rhombus;whiteSpace=wrap;html=1;sketch=1;hachureGap=4;jiggle=2;curveFitting=1;fontFamily=Architects Daughter;fontSource=https%3A%2F%2Ffonts.googleapis.com%2Fcss%3Ffamily%3DArchitects%2BDaughter;fontSize=20;" vertex="1" parent="1">
          <mxGeometry x="366" y="240" width="80" height="50" as="geometry" />
        </mxCell>
        <mxCell id="sx4bDLCk7kIE46ueS4SA-39" value="" style="shape=link;html=1;rounded=0;sketch=1;hachureGap=4;jiggle=2;curveFitting=1;fontFamily=Architects Daughter;fontSource=https%3A%2F%2Ffonts.googleapis.com%2Fcss%3Ffamily%3DArchitects%2BDaughter;fontSize=16;startSize=8;endSize=8;curved=1;exitX=0.38;exitY=0.965;exitDx=0;exitDy=0;exitPerimeter=0;entryX=0.425;entryY=0.2;entryDx=0;entryDy=0;entryPerimeter=0;" edge="1" parent="1" source="sx4bDLCk7kIE46ueS4SA-2" target="sx4bDLCk7kIE46ueS4SA-38">
          <mxGeometry width="100" relative="1" as="geometry">
            <mxPoint x="350" y="170" as="sourcePoint" />
            <mxPoint x="450" y="170" as="targetPoint" />
          </mxGeometry>
        </mxCell>
        <mxCell id="sx4bDLCk7kIE46ueS4SA-40" value="" style="endArrow=none;html=1;rounded=0;sketch=1;hachureGap=4;jiggle=2;curveFitting=1;fontFamily=Architects Daughter;fontSource=https%3A%2F%2Ffonts.googleapis.com%2Fcss%3Ffamily%3DArchitects%2BDaughter;fontSize=16;startSize=8;endSize=8;curved=1;entryX=0.395;entryY=0.908;entryDx=0;entryDy=0;entryPerimeter=0;" edge="1" parent="1" source="sx4bDLCk7kIE46ueS4SA-5" target="sx4bDLCk7kIE46ueS4SA-38">
          <mxGeometry width="50" height="50" relative="1" as="geometry">
            <mxPoint x="380" y="350" as="sourcePoint" />
            <mxPoint x="430" y="300" as="targetPoint" />
          </mxGeometry>
        </mxCell>
        <mxCell id="sx4bDLCk7kIE46ueS4SA-41" value="Password" style="ellipse;whiteSpace=wrap;html=1;sketch=1;hachureGap=4;jiggle=2;curveFitting=1;fontFamily=Architects Daughter;fontSource=https%3A%2F%2Ffonts.googleapis.com%2Fcss%3Ffamily%3DArchitects%2BDaughter;fontSize=20;" vertex="1" parent="1">
          <mxGeometry x="230" y="340" width="120" height="40" as="geometry" />
        </mxCell>
        <mxCell id="sx4bDLCk7kIE46ueS4SA-42" value="Username" style="ellipse;whiteSpace=wrap;html=1;sketch=1;hachureGap=4;jiggle=2;curveFitting=1;fontFamily=Architects Daughter;fontSource=https%3A%2F%2Ffonts.googleapis.com%2Fcss%3Ffamily%3DArchitects%2BDaughter;fontSize=20;" vertex="1" parent="1">
          <mxGeometry x="260" y="410" width="120" height="40" as="geometry" />
        </mxCell>
        <mxCell id="sx4bDLCk7kIE46ueS4SA-43" value="UID" style="ellipse;whiteSpace=wrap;html=1;sketch=1;hachureGap=4;jiggle=2;curveFitting=1;fontFamily=Architects Daughter;fontSource=https%3A%2F%2Ffonts.googleapis.com%2Fcss%3Ffamily%3DArchitects%2BDaughter;fontSize=20;" vertex="1" parent="1">
          <mxGeometry x="408" y="440" width="82" height="40" as="geometry" />
        </mxCell>
        <mxCell id="sx4bDLCk7kIE46ueS4SA-44" value="Age" style="ellipse;whiteSpace=wrap;html=1;align=center;dashed=1;sketch=1;hachureGap=4;jiggle=2;curveFitting=1;fontFamily=Architects Daughter;fontSource=https%3A%2F%2Ffonts.googleapis.com%2Fcss%3Ffamily%3DArchitects%2BDaughter;fontSize=20;" vertex="1" parent="1">
          <mxGeometry x="478.6" y="360" width="80" height="40" as="geometry" />
        </mxCell>
        <mxCell id="sx4bDLCk7kIE46ueS4SA-45" value="" style="shape=stencil(lVfbctpADP0av2pW2pv3OU3/IzMhxVMKGULb5O8r113DrugJvBlzdJeO5ME/vG2fXjeDuLfT8fB983t6Pm0H/2UQmfbbzXE66dPgHwf/8HI4br4dDz/3z8vv16cZOT/9OPyaNbwvcoFcnIXEfdQXIfx98XWB76b9BZyFsjT4TL4AfKax1R9pBPrFE0vnT2KAHymkBu8pAn98IHYNXqhEgC9V3RkvQH+I5LjBMyWAj45Cj+cE8JFy64+j7P6PT9znx1EE+U+ppuOMF+BPFkq9fgH1yiPx2OEd8L/E6u4Zz0B/Uf9zV69/DXsdP5K0+lkDGIFA6QXUAoyg1IZfOzRRAi3Hbk3JOjMCi6wmUtsUScciw6hL69Mo5JGF3AdR1CUQhNYhtjGozexhoV3bSHNUyCVPqa20qoCVk5qTNehEgnqDqwMr13nyYBhUgNssxbFGdaNAYCp3uSTaTEhAg27njT1l1BomrQEPkKmbMhoqm2kMxlUzCyRDQppbu8XrCsqIMczweIYUeWU+gy5BbKKbnvRJIxmSUd50yIKhsbHgcTM8qYmGdTBEPEcFNtvdAnY1XGT6xuWjJjIwYbfbLIDWoVmfKhDu2s8qgJjVHgBaS3Qh2QtDBVD32ROm4ImwN5IKOED29gjT9groajNXnnbLfWdkCfBOsneqMiE6JM0dPPcvMODJ5d4hAQMnxJ1+Rx6xTP13Hei1KlfxrmexrIc2mGfXE4bOBoMa25skUgAVsxwZKIL8G3+8h2Ng4tUKMthTJp8cqYB82npVrrmtHSLcsnd+dX0K14fzB97LtNst34eX//cfhPpq+Zj0j38A);lineShape=1;sketch=1;hachureGap=4;jiggle=2;curveFitting=1;fontFamily=Architects Daughter;fontSource=https%3A%2F%2Ffonts.googleapis.com%2Fcss%3Ffamily%3DArchitects%2BDaughter;fontSize=20;" vertex="1" parent="1">
          <mxGeometry x="438.3725322115315" y="467.68519757920967" width="20.45609253675798" height="1.829678083768158" as="geometry" />
        </mxCell>
        <mxCell id="sx4bDLCk7kIE46ueS4SA-46" value="" style="shape=stencil(lVfLchpBDPyavapmRvPS2XH+w1XGgQoBFyaJ/ffRZmsACWiXb8ui3tGj1dJM/PC2fnpdTSm8HQ/7n6u/m+fjeuJvU0qb3Xp12Bz1aeLHiR9e9ofVj8P+9+55+f36NFvOT7/2f+YvvC+4SNxmUAofy4vOxPn/m++L/Xazu7BvVKKxb40k3LePiQJbQCDpANC8R5UpAY8Se0ApFIFLSaiJAeRKVe4DuFIpBsCdInApM3UbNAdi4FKJFG1aUxqfuA1oI4kDoHkTANAkSraAQiEBgBAnC0hUG2BG9jHEQLkAQKdaLfeIATN6ombt63Dxtr2WLdg6UwLfF82gDSBQAEWTTqU6+wz8EaFoaRSpV2hfo/M/Ynvnf6OAOi2c4ruoGMqontAd65gKaAQFuBRFrRloNQUEd4JmGQE6ZQc4peFelbvltZYtohPa+PviBFhnVRPb/dqbFRGvUnKtVqC+SCFxLqnMgt6cAU7mqSNq18G0k6bC3lf7YtWFceu04e65FRBV1b7agAOUeGUFF2+PWqeTOJ5SQvEqA5qLlxHpxA+ESgFI49zKNl6hBNR9tnfqnijjPnMJVcoVlFF1wImXyiUKoV+doGKAatwp2Bi0aAn12VcBOhC6m7JMDU0c9suLSjDaFHSkiVXUuXHQOpU9UZUZDTCpXilq+mTw58GcE0D3H7RaqKLaGDjBGHR5aVa+uEEu5ew1O+sughaw5neRopUBWdJ1q9oYahy1v70T5rFjXqypBSiAjiXnUhM4RrQhvQQ3uNd2v04Jj8l1+4AryVDRQRGMbjwPf7zvRD8HZxEBAQTfbdqwKIAwFOtk32AJgi/ZPOVANwc/cyTDKXu1HUkaC9w9e8sI0aED443W/64lh/47qVA9y9D/6r5fYH2Dv1Ko/CGF/+rV8XN7fTjfU1822+1yzb38399r9dVyJ+bHfw==);lineShape=1;sketch=1;hachureGap=4;jiggle=2;curveFitting=1;fontFamily=Architects Daughter;fontSource=https%3A%2F%2Ffonts.googleapis.com%2Fcss%3Ffamily%3DArchitects%2BDaughter;fontSize=20;" vertex="1" parent="1">
          <mxGeometry x="780.2239003783984" y="322.31182470023737" width="34.30003482985808" height="6.864648320943161" as="geometry" />
        </mxCell>
        <mxCell id="sx4bDLCk7kIE46ueS4SA-47" value="" style="shape=stencil(lVfJchoxEP2auXZpl/rsOP/hKuNAhYALk+3v08pEMGoxD3ITQz/19nrR5J8+ti/vm8mZj/Pp+HXzc/d63k7+0+Tc7rDdnHZnOU3+efJPb8fT5svp+P3wOv9+f6mS9fTt+KPe8GvGWWJXQc78nj8kT9H//fJ5lt/vDgv5RDH38o5SWJe3jpzVgJIBIFFKPUBsBADnyLLW4IBJrpBP2mcE8JGscjo0nTcBQWJiNaAUAGDi2AMieeB0zOSSBmTgg7j4L00XQCJjAIAp+UED8CFHMkUDTAIA0aC4ZyjFdUARH/pMRwmrBYBMtjcpFBhWjjpxwt8CTBIA9yaJSiQv9dPnDVcDS557YhgK6P6s7TFkAS24UDa9w7DYmMn38kIKkGORz7391pIFtBMA9ymzmQLygJvBl4hKcQJSVJN6YnuJKQa43iRpCBn5UCj1JnmmgABZl3+wOG1Ci750gqHsMO+U06U15lViKx/8vUpIPTOkz8I8xJbXC8BSBA1GAMoHG1rc1gCl11DatFsLkhoMd5iUyahuQQbMTpHPvT0GtmDhUcjqfovuZ7KKFa1a1+RVA+bWL1dLTSUgtjF0e5abi4OLHBcwOUWFSpnkDJbOLYAHGmQmlL6a65QAGkrQ+wVbWDoy17inBQc4m8fJKUxkoGGczQJAC8k4/a/1/eB+IRoc4N64wQgggbCOO1ItJ+DDuIXVegJ0Hfe8Ou2AD+MmeZ0VD+6qC8Y/uA7XokVrmN636wQGPWzY52sTQft5WycWQWXkMhl1f4L3m4F4gQzo2Ya8YrYhBvExrUMvqxkQe2hIslQi1g3yucBNfrAny4oK7Vf+ZokwtF+v8RnOtCFfKcL33cAHebkYyJ//ez/el5fD9bH6ttvv57fu8n/9uJVP88PYP/8B);lineShape=1;sketch=1;hachureGap=4;jiggle=2;curveFitting=1;fontFamily=Architects Daughter;fontSource=https%3A%2F%2Ffonts.googleapis.com%2Fcss%3Ffamily%3DArchitects%2BDaughter;fontSize=20;" vertex="1" parent="1">
          <mxGeometry x="758.594181056827" y="19.36763586717666" width="31.608122523818338" height="3.4974065055639585" as="geometry" />
        </mxCell>
        <mxCell id="sx4bDLCk7kIE46ueS4SA-48" value="" style="shape=stencil(lVfZbtswEPwavS6WN/c5Tf8jQJxaqGsHjtM2f59VBdriypoibzpmqOVw9tAQHt72T6+7wfPb5Xz6ufszPl/2Q/g2eD8e97vzeNGrITwO4eHldN79OJ/ej8/z/evThJyufp1+Tyv8nXkiFOLE8vwxP4kUw78H32f8YTwu8LWQpA7vIiW3TSiJuHYEnyjWbULOVHNHCIE8CCkpoQ8pevJxmxALVe4IyVGWbUIQ4v4LmZsM9wmOousJAlVS1V3pCKVQASqp6qUnSCEH9qAE18sqtX3zPsFT7Z2hXmEGBNVkRcgeeIlysXjJwBnk13iwg0Aiq3jA+p44rzYM8NxMs1AUGZWJvT0yD+JncgavCsB4pM80SRSA/p6SWV9TGbha32aLZ7B+JunTTAIVYFEhLxZfkaVdKySLgAJyaGh1YUEQnGVBrKQVJU2k2ie+XMvZFiH2pUVNUcEh6B6CIVQqiOBaEi5sHQFB367SoAKRCnGflo4ZFgotXauAKsB7ysniPfKFDUgVSjAvbWUslEE8190tzjiBeL6Kn3zdu06bKGwGQq73dS4wk/XMnOmAtRXL+6U0WRNFgS0zarHoQ9ImKkDUFG21Cww3nb2dE7TgMzjm9SSiLY6BSjVZozqqaDbKrb3c8KglT7NUrxE3p9/Hi/UFw34gjrwzeAZzkZZbXuHBkWnxLNXgHVo/t9HyhoeFqNgJRDsc6Dea5nY2bR3uPl4tbEbTJtjGgLPKZA/HwFvhvHqaChL0i8P4//F6cZv8X8bDYf5xWL63fwr6aP7LCI+f);lineShape=1;sketch=1;hachureGap=4;jiggle=2;curveFitting=1;fontFamily=Architects Daughter;fontSource=https%3A%2F%2Ffonts.googleapis.com%2Fcss%3Ffamily%3DArchitects%2BDaughter;fontSize=20;" vertex="1" parent="1">
          <mxGeometry x="393.0705137063371" y="149.5763866873774" width="8.353419233148088" height="19.936919169196017" as="geometry" />
        </mxCell>
        <mxCell id="sx4bDLCk7kIE46ueS4SA-49" value="" style="shape=stencil(lVjbUlsxDPyavGpsyTc90/Y/OlMomVJggN7+vnIzPsRyzlLeQvDG1mq1kn2Qq+fbz4/XBw7PL08P365/Hb+83B7kw4H5eH97/XR8sU8H+XiQq5uHp+uvTw8/7r+c/n783Ff2T98ffvZf+H3CBWrcQRz+nL7gSq38++bTaf3d8f5sfaGc5/WRmuyvj5G4ToBoP1EBIFF0AKGIdqjEOgGUhPfX24FjnNZnSiDiTsh8oEAS9tdLpSBufQDrU6A8n18ogXgTU0rT+koCCE1CdU6x5aQiQFpSZhQDRg0gbRYFU2sY4FTUqIAc9CPNAElUEwTEmVSjOeGgPSBTixCQZkC2RKIY8vj3BiikAGC/54Rn3yhQUm6eVtuTQQyFSR2AicEONQ7WtzxUyiDT1YphjkHKKL+LgFZ8dfZMgx00k6g/UgSZVpPaXA8mjQryEMNWwBsiQX2reg9LSooAZch/S3WCYlIZnrUBGrUMeFXiOXNFiMGRmul7TkR5I9VKaRZTVws4Uk0LIEN9Fx3GOADNMgN2KInKHHQTasA2si6AOg55GZBIZ4CamIC+pY3utwF0tNS9dhKbBygCZO/3HQC0ZAUmaTkSAoiXt9UU8kphb0xaqSoARG9MViEZAdg33e4LKAZe8pCg9VnQea4Hq0FGeUjDVTYAU0EsFd+CDCBArSYNp1YDoCZn4tPqAQpoNWf0tOIC6lbKnlbFAHUsGQ2oja471NEBdmNwLDVKwMg6S0vFvZWH4gFoiLZM86ylsx6zK6blTGgA6nIVD4hoBx7ufkZTRPpeS67iGNaizrDxCi/GlODdoRuTS4TRgFhK46pwVhDQmN4LsMbvxhNrrAqG6SykrsnZDQtPfS5xtY15/HJXFD9iWSeu4EjW+HUOugbYFasZ3ZzpUvBcWb31lQiNyTjhOehch7ftjTNlpjVjv29tsL7NcI0CYKkto67dvARc5Prw4gbRBCfXTuscdCrQyUqmOO+QIzySsR7Us4T6rrHuLmb5DTdWbwIFXzn6FcYB7EKL79Oy7FCQCRSfuJwhS33CcloKo2j3AG5a75dLoKUOmJ2vX1+RL23Tzn9emwzgxkq7gkMzTr4rMn6XMUCZtRQrNeytrqajwFcB6w/VZXrMaHsvOa6fRCtBQJJF2MSfSIDxWYQymwaHcY26DFhKmjdxXfYAr6TehgGpZTz1nK1H1ZO91b/21MvV5idKwa9X4lXUBxVwnm0+PVuP5npe3htkjCmXE0C88JlBZQbfRmyqQaNeGOZ2th7la3lqkDBOuLd+ljQrFFzw84uVPTL4974Pv73ePrw+Rt8c7+5Ob9nn//eP1/bV6eFbPv4F);lineShape=1;sketch=1;hachureGap=4;jiggle=2;curveFitting=1;fontFamily=Architects Daughter;fontSource=https%3A%2F%2Ffonts.googleapis.com%2Fcss%3Ffamily%3DArchitects%2BDaughter;fontSize=20;" vertex="1" parent="1">
          <mxGeometry x="410.3650249538755" y="303.87977591011963" width="20.17365192005491" height="23.754460868294927" as="geometry" />
        </mxCell>
        <mxCell id="sx4bDLCk7kIE46ueS4SA-51" value="" style="shape=stencil(lVjbThwxDP2afbWcm5M8U/ofSEBZlQICevv7ntEqw8azcyredmd8xtcc2zmkq7eHm5e7Q9S399fn73e/j7fvD4f05RDj8enh7vX4jl+HdH1IV/fPr3ffXp9/Pt2e/r/cLJLLrx/Pv5Yv/DnhsmhfQFH/nh6otNODryfxx+PTmbhJTpN4lk7Eu2idxJu0si8egqT583hSGCBJbzMgU/uDieUZ0KREAuje4xgl6j4Ar80BitREAEV6nAEIG9PQJZYJkKIk4gNeF5sBhQOKtDlvqUonPiSYNIc1q5S6D8iI0lx3eNIYwCTOmc5FAolS7j7TuUqyfUCBAa62u5RGAMhrmAAlSGaAJnkOa0lixGlTqQ5gEjIBwIfZaehMTAPO7+zDopNpMJ84S5LJETU4PRefFTECqCppzrRVaSRxNfriWz5BSqOa6Ox0zRICAawGrIAyiOcyoA/aWgFNlDjd4qCtlSlRS8SHZoOFVkAZtHAZUD1V4gmrpR58eXcd9XsZsOGljnZBaAaAOjvdqygxKagOZjxDMHKFCsdkvQ1C3wNk5/XaxC4Dmph5AKONxeKNhk5SjSg6DWdxuIzACduoYOzas1jbOMHChMa78VrJEQKgJJ8IRscAuMaLwBkHeB9MOnfa8QYAjCwRVnVOr717L3NbACN8uBjiBsAOaRtn+AzQGKB77oORjDf6po8C0Pip7u7IVclsSATA8UajI9ZSm90DaHk36c6HzllgZevzA8TKG8QVPYBOxmXjdB9G7lWrD2vntYSetgHQsH4WgB5kjo2TBBLWlqW4PGDiJ06jLTrWaF0SCWtTsTkP6HKJmFS77yjoo4m1dvMbEzo1WzmW2WL2ofJM1zCa4ArAESXMZ92bBJ2RVCsGqjA7jRmKsTdGNtcVobMSEliGwrmWoJOF1cLYF1ZApl0Rc6qjSgy/hYQVk3Bwc6XSKGHWjrOGUmniSpbspu9CqRIrh8sDFoJKagkbiduCsHJUUhp5rZzzpYach5x8WLE2RWISVr8yl0bOfFfc7LtY/dioi/XVdSDoNGLSsiDP5yEZraVlBXcLMvJAqjVuTdKx5uxdI7jExUrX11DGTckKSLRlheh7HHSy0Tioj1LAcsmIbKxtq3zk1e13IE57Uao7C3TFUj/4BPp19WNPGCPynrg68Uh6rY718eMWjRuTshM3kin1g63SMTVsr/QCFXfEq3RTRaPwxtDLKj+qKd3wkr8whO3EGCwV6iNDv9583Atj28/djf5XHD8+rmHvj4+Pp1vc8/f+2haPTle+6fof);lineShape=1;sketch=1;hachureGap=4;jiggle=2;curveFitting=1;fontFamily=Architects Daughter;fontSource=https%3A%2F%2Ffonts.googleapis.com%2Fcss%3Ffamily%3DArchitects%2BDaughter;fontSize=20;" vertex="1" parent="1">
          <mxGeometry x="300.9643036943711" y="24.76101475966152" width="30.058308300894623" height="45.182957807883895" as="geometry" />
        </mxCell>
        <mxCell id="sx4bDLCk7kIE46ueS4SA-52" value="" style="shape=stencil(lVjZbttADPwavxLkcs/nNP2PAHFqo24cOOn196VqrKKlrAnypjgcLY8hOaud3r0eHl72u8Cvb5fz9/3v4+PbYadfdiEcnw/7y/HNnnZ6v9O7p/Nl/+1y/vn8eP375WGynJ5+nH9Nb/hzxbVGJU6owH+vvwQK6f8PX6/2p+Pz0l4pymBfSeO2fW2kebCXQFEBIFJLIyBTqtuA0ijWMQIhzgCgFHgEJCplG5ALxTYAlCkyAARK4wkaKYOgU6EyxqCVqgBA9C5FO7MBAFMdXYqZAshSLD6t0agSACCRjIVLgSpwKSqlMgISDNpCDCNXU6WMTmBqY5ayUAZc0taJMAOscCBoK5OEETCT5TbAyDzGUKxwgBqafB1KooAA2rk5A8xJkFZdZakaWUDQofgWrQpbNESf1pphDDaEeJwatVIDbBWhMgKaUQMELdwbcgY02A+NeGVfQAiFZGXfwJBJnkgf2GtP4NIfUDQjflzFCwY3d1YuEooGDBOPrGuFKny/j7fAqW2UHCnUMimiEImzT33TbeSzNm+PFpuNquTtBdRrzsbCHvMtr96P8m8dIOwTJCBBtoc9ozNVDFAXQqEM1uB0wqgVjEMKciTi295IikjR+vkLe5Sk1Zqdmgw0jVFmJIXwzPMtFq26DOU03JgSETjEq/dXOKq5T/6FPeMudvaFFIxRmxKOpbbfYBd/zt7GdHFys8CxJdqn8gyIJKhvZtLPABuVyKXmN4cpULjMpA/yGZD7troNSL1GM0D6xr0NyL73s7kEGs0aIY48ypkicqn1W8EM0D6Qt0SFW8iZYQwa/EXBRHFFWs3q6gARNrNJL3UCVboo3lKD6jRzpQhiMEXL41IzUYzGhWnwNtYhCiU0kFYyXguUXiapXQOZPlTQD3k1Yqz2Ak4w5ujIVpN7EbRoCZ5L8oGUKv4EwbvZOriOQdtmQf1gctSpF5syoAzNDnC3WmJ0a16tTmsPwAu7ZbvdzP3avWXv1BHDmrXYt8a7PYOEmvao3n/E60lJJG+P8lM8rbnf0W/bVz+DGa7NtupkhmJ50tKr+oJ8LmTBOyACwk26w1G6M2rToU99pvnQ3h7evwk9HU+n6yel5f/9NyT76fr9Se//AQ==);lineShape=1;sketch=1;hachureGap=4;jiggle=2;curveFitting=1;fontFamily=Architects Daughter;fontSource=https%3A%2F%2Ffonts.googleapis.com%2Fcss%3Ffamily%3DArchitects%2BDaughter;fontSize=20;" vertex="1" parent="1">
          <mxGeometry x="410.3469179616295" y="35.16251647746435" width="15.08659441516852" height="38.60850159912252" as="geometry" />
        </mxCell>
        <mxCell id="sx4bDLCk7kIE46ueS4SA-53" value="" style="shape=stencil(lVfZbttADPwavxK75J7PafofAeLURt04cNzr70tVWNWkpSnyJlszu7yGpHby8H54etvvOLxfL+ev+5/H5+thJ592zMfXw/5yvOrTTh538vByvuy/XM7fX5/n329PE3J6+nb+MZ3wa+ZFCmEicfg9/9E65fT3n88z/nR8vcFXkmLwtVGXbXxk6tUQSqeYAaFQyZbAxGGboC4kNoScKAGTuJCIIST1Km4TJBI7QqDcAKGMGA6CJGJASJGqDSt3CohQiR0hUeNtQmYqNg8at1YBoRE7QqAAEleEkk1cbFTBDaVRapZQqYI8VK0ld8OSynWC5rVbQoImdfXBOh3hBT1RsS4E4g7whUJ0+ABqu1dfqmHEbB2vIXUODwPX8Z3E+iv4/E7Nnp+pIvs7dRufRgHFp1OxwonqMLpAu48NqDacBGpII9pcDQk15LJq+a6GYEwzcfKECqSpRdeLN6mjKPGw+MbpjMqaKUYf1oLCqv3I+tBgh5zwvi46wrNvLoJjKhRtj9fmhXXp2qM27AJzlqvDB2R/oR4cnsHU1DKN4uxndH73/jL2t/v5kfBUDsHP/Yoblwrf4lWpKKDqgFPNUiJbEXIzVkWQ0A0fJTQhsarRRaCCgaabTbOqURVAQqJosyCBIigLXYXYmqSrhqCRmfxAE5U2EE7ufiCIjFJcJyS/J+jqghpqDn6kydIx11eXTNGWkm5TETQjfS2OkKCaJfupqUYySJymyUUplzGI1ldIHXs2cbr9RJA41Xu0hLp4ta7QRY8LoYzJtU6IvlqbEkCU8ni7KFoVhTbI0bEWfIeVlPw6ODUpgJf70Y+XI/YOT9sGqFSmwB6fQM7iGHk3AULraRhTfsFX2CPvylqnCtp1lvV7waexXW3h3flCGdof3fkMF/470fQA4/PRT83/4/Xh33fty/F0mj+Lb9/772D9a/6Glsc/);lineShape=1;sketch=1;hachureGap=4;jiggle=2;curveFitting=1;fontFamily=Architects Daughter;fontSource=https%3A%2F%2Ffonts.googleapis.com%2Fcss%3Ffamily%3DArchitects%2BDaughter;fontSize=20;" vertex="1" parent="1">
          <mxGeometry x="296.8308034664466" y="100.802379916571" width="22.425484417712482" height="12.566852611718787" as="geometry" />
        </mxCell>
        <mxCell id="sx4bDLCk7kIE46ueS4SA-54" value="" style="shape=stencil(lVjZbttADPwavxJL7snnNP2PAHEao2kcOEmPvy8FY2UtJY/bN0eZkZbk8NpdvHt/fnjb7yS8f5yO3/e/Do8fz7v4ZSdyeH3enw4f9msX73fx7ul42n87HT9fH89/vz1MyOnXj+PP6Q2/z7xAQSaShD/nB9pIz0++nvEvh9cFXiinER+p6HV8oTa+vzVK9TpeqdYRnymE63iO1MJICKSI0EjKQKiFagIWR8p5JMxO2CY0yqPNpVHN1wkxUhi/UDJxBIRKQUcCd79tEpL5JA6EbGEAX0iZoiMkUmBDUpLxSJkpA2Hk2H3SCakRMyBUqqNbU6IC4mA+yaMNiSkUQMjeBnN0AVqyuBZHSBRB9lTuyTUTmAQErs7v6wRTFzLaxOykYSkowAYjaBsJsT/ZJlRfAoSpYYL7AmuX4zahUXSECsVnBFc12NyAvNSojUWAE8kNwqhWFhxppcQjIVAE+WBlK7vKB7XXYn/dnHC97GwX1kBpVBLDdNP53x0fqIDkUSHx+AjOP/UNcfiAGoOVRPV49P65qi/wwP/W9zj68wORqva0uuArOo9SS97/yJ+WI+rw0P9KZTy/EANFm73VFYouwG189foUasifhXj0T8TxTZTZ49H7Yw//5TyK7OUengse+tPCWRxeQA0yvLiiRRVURZ3T44IXjG9enw3pzYqyz8eE8j2u9Y9mEItXKQ4f0PtLL7ALPIpX9fEyB6PztC7HCz7fyBcfLzhohuAFx5SQQNUHgHtG/zseCUIouamREnBoU98AFAq6VUquR1rLAxlsBFk11YhOZMvBqm2jacgI7AitP9kmZG/zpGpESKsqh8uotWE/DZnRIA+a+LpocUMbVF01Dgsc43krjJlsQ2ZDs4qN4q70pv7NbcKq1kWLA9BSKd5LNorDyVr8ZG0biQAbbJ8pq3Wignph+4xTaxYojRx6uswEm7hAHOzEbtjPCktMkr6ezBmNM868HsbA2QpzY9NMo7yLwql02mXd8huhl6xrp1HeJkcBX7BdwKm1MWxUnH2jmrIcGG1ly611Dd9xtF6EFnccClpJ9su1lXJGq6+fTFWhxdlP+lPvAvjUL0AWeDSKJD+JTLMn0Olqcp/w4P3iz7PopVcIvDJYgejYX7hMvRQcKPRJcekgoKDgs8bwaFYOvRgu8CiPV5PFJCBQf//30u423n5cbgifDi8v5wvG5f/9jaI9Ot9Gxvu/);lineShape=1;sketch=1;hachureGap=4;jiggle=2;curveFitting=1;fontFamily=Architects Daughter;fontSource=https%3A%2F%2Ffonts.googleapis.com%2Fcss%3Ffamily%3DArchitects%2BDaughter;fontSize=20;" vertex="1" parent="1">
          <mxGeometry x="321.03657280288553" y="106.98124969900277" width="18.939753238316825" height="59.784617054378714" as="geometry" />
        </mxCell>
        <mxCell id="sx4bDLCk7kIE46ueS4SA-55" value="" style="shape=stencil(lVjbbtswDP2avBKUqOtz1/1HgaZLsKwp0uz296MRyDVp5xR7c2ydSLwc8lA7eXg/PL3td5Hfr5fz9/3v4/P1sJMvuxiPr4f95XjVp5087uTh5XzZf7ucf74+336/PU0rp6cf51/TP/y54QJxmkCR/95e8Hjx9bb8dHxdLM8Ug1keqOb7y4NQrWZ9pSD318dIku3/C4UGAJW6PX+olPp9gCRKzQB0zwh2SGF8ngGVSgQA/VwMQCK1CnwqxGwBakMBgErR7qCHRG4tGmUbtpQoA6NLomDjlrDRpRJbL2WmBIwufSTODBBKIJVqpGBtyIUYeKkmEpsauVEGXqplnHgA1G8B7dAo2R2KUAHsaTySeQZk6gEAlF4OUKmB9G7iCTQ5GkS6JWo2l2oYVm0DColYgIzYbwM0c7oFJKrI6E7sdiiQop19pKuWBQaAQMXmUu2UwZG6Mti6VSMjIA49E9tcUkej1OjFp4Y6OiMbqq9LrVEHFO19pNoA6J7I6MDsC5NuKoBB0xY2EL1RAKTuqyqgABi5TilaQMdu6r706ZuGkkmLhCXEwg/3EIFXW4C6oV6sKwAq+JPbm3dTQ37VNts9gFG+1hGnRagjPlJ0gPKZDdkZnaF2UIDjnAIiSvDmGdETZkSjmjwAVVcNk3drpoA5l6sHZLxDS96tMA5KOXckbcWYcr15ACSEHsmWY/VbwUfKzoZOgr0UigegpjUFbkXqjtzaVtmqAFTJ1CerOoMEkAKceJgqDxBAE4FWtVIwHzYAKA7Ji3VtlEjPaJdzAO1BBTdedm1R9Qdq7c2nt/bRAoxus+xcdGoUaT1xdGqjQfHQsp+AVG0girZZ4y30TEOKKY7SOwPi6JP3ZKKrGpXhBKEmuiJQGgyc6iOxjCuz37YBeaWNBYq4Oqv5hZhGdUllpxtqVK6jhqImdjdBaENBgOK1ccaDWVnZoEMNozmLR/YvxiYGXtIRptimmGS82QZEL3Wlw1yaDmCrt+QhJrYBTMVGWngMg9sTtYyeOQ/ICbpV52exnJ4uHdCQH/wtQsiQcUEoupYFW1zySiPBBrf2ELwzYU+dCFWJ5hC75RUud70zwvGNx8z8sRwJmNUEECDFNpajKYl96Q2QXmqqv6sq8N9jdcsT4CL7YZ6H2LuXBOKWo/LGXkThmeI/r+U+Xa4PHzeAL8fT6XaBuPzubwz11e22UR7/AQ==);lineShape=1;sketch=1;hachureGap=4;jiggle=2;curveFitting=1;fontFamily=Architects Daughter;fontSource=https%3A%2F%2Ffonts.googleapis.com%2Fcss%3Ffamily%3DArchitects%2BDaughter;fontSize=20;" vertex="1" parent="1">
          <mxGeometry x="681.0366847648047" y="24.03411985834964" width="66.01548406921052" height="36.75470489462646" as="geometry" />
        </mxCell>
        <mxCell id="sx4bDLCk7kIE46ueS4SA-56" value="" style="shape=stencil(lVfJctswDP0aXTEEd57T9D8yE6f21LUzjrv9fcEqcgRIfapvNI0nbA8Lh/Dwtn963Q3evV0v56+7n4fn634InwbvD6f97nK4ymkIj0N4eDlfdl8u5++n5/H361OX7Kdv5x/9C79GHDtHznWYd7/HK08c/l58HgHHw2kGaJVKVvLsqCFAoWoAjdhDDZW1RZFyhYD3702AwBQyNCk0DagUkA+ZalGAmMgjHwp57XRiig364LRJSYx095iUPTWkIVFIGlCoIECgoMNa/BS3dQATVw3IlEBYq3BJA6qjHAEgEmsf5CaBPKREUWuQQKPEJUfVWwAKawxUowY0SoCtQZhTLAAVkM/keAEAJnEhFyygoHpYsej9Zt2FKauzGCUg7ygaeWEe8NiR17XQyQ7kA7EJUKIGUlApL+Q9iA9n8gYQqSSQsmQ7kgASqOYQbUfqAOCy0M4VC6jAJCG2D9bpiEuHo80Cg6hKw/Km1oSIyKQ8GTADNFD+yVPW5d+nEdAQMwVjUqPIIA/SHZIFVGCS1I7h3myirpPpVu1zFaB6mCnnhROArpK4YqNUQabZNtU+jID8YmOQtKGVgSdizojkQdZW5YG/vtlRWAMV1L8WtKi36ljnkaw4WoNMNga0kPWgaFrI7HTApGV5ynRGDSDdBt9s/iOm9n1CO72xYaRqu97GDiOArImxsSUJwGmTNvawbrGmxsamJy3G1M7GLikasg7rxrYqGoptAHCc95VEcwkv3KLAzBKeTPxnUK08+n5mO0nc5NG6fLKbqoMpyM0uSA4GtKRpaHzIo34qpWumyIZ8ohzusKc5WzfYX5nD0d0RT2meUfuL8yXNP1h5xIe7X3j/AZDDx4Py5XA8ju/R+f/2ASpX4+M1PP4B);lineShape=1;sketch=1;hachureGap=4;jiggle=2;curveFitting=1;fontFamily=Architects Daughter;fontSource=https%3A%2F%2Ffonts.googleapis.com%2Fcss%3Ffamily%3DArchitects%2BDaughter;fontSize=20;" vertex="1" parent="1">
          <mxGeometry x="776.2094498881042" y="28.77717134646241" width="2.8180176941018544" height="29.259919138778287" as="geometry" />
        </mxCell>
        <mxCell id="sx4bDLCk7kIE46ueS4SA-57" value="" style="shape=stencil(lZfbbtswDIafJrcERYk6XHfdexRougTLmiJNd3j7yTOUWJT9D71zHH4WRf6kqJ1/eD88ve13wu/Xy/n7/tfx+XrY+S87kePrYX85XuvTzj/u/MPL+bL/djl/vD7Pv9+eJsvp6cf55/SF3zOnlGSChP/ML5iK/nvxdTY/HV8X5i4Qh87eMbmyDYhQ4R4opBkAmYrvgMlH4JJXytoB3pP4bSAI5d6lwJTdNqBMvt90yBQZAIm0B1RJgUsxkHcdEF0LwyqQmCT1QGqfWAeUSu6AJCRhG8iOfB+llIiBSzmS6/dQP8FpGyhMagAlBzJdCuXYASWRAy45ZmK2RMZLJLNEJo0QcH0ipjegIOr3JFsgojCl9r0FUEDmSiSWAUAuBcrDChnou3gqwwoBA8I2rBlkrkiryAXg0KaHoq5xC6AgqkvOZDq2XrgFWPVF7FJoW7wBilfQ1nsXgCKgSkMGAMm7im8AMlqhDCvEpt/NAvIWKEAa6zUaUeaqOE0FZfJITDdxLuTKSK639r4AUP+uHuvQBTIKU6TQx3URhy1xSByWwFVtc11wK/NrYcJFWoaq9mjXnwVyoNR3ppxgo8lsW1n27fBePxcj+b7mUt00cCnVc7EPawotM+tnu9ojJRY4n2gtIXO2e0rAJRXbN+oA4oFLQSkagFsY1mesbGu0DlEKatQ7ewb5QAW4JIFcv4LUmgLydmmYEx2WxjCICiw4ttUgsFOynX4EejM0PQfnbm6T1N08gOCwnd1qOkDwmVJvzhSB3lwbHO/mSG3OtmuGx6a0tN/NGSmttf6FOYh7vb+odQaaJ2fMBcRd7WzHUMOfvHz917w+3O95L8fTab4mLv+398L6ar5T+se/);lineShape=1;sketch=1;hachureGap=4;jiggle=2;curveFitting=1;fontFamily=Architects Daughter;fontSource=https%3A%2F%2Ffonts.googleapis.com%2Fcss%3Ffamily%3DArchitects%2BDaughter;fontSize=20;" vertex="1" parent="1">
          <mxGeometry x="755.4318563075794" y="98.43376059263483" width="18.593305953253093" height="29.98105606749641" as="geometry" />
        </mxCell>
        <mxCell id="sx4bDLCk7kIE46ueS4SA-58" value="" style="shape=stencil(lVjbUhsxDP2avGpky7bsZ0r/gxlCyZQSJoRe/r7aZrystZtDeQvLOb7oeuSd3Lw+3r3sd5Ffz6fj9/2vw/35cSdfdjEenh/3p8PZfu3kdic3D8fT/tvp+PZ8f/n75W5CTr9+HH9OK/y+8FqjVidW5D+XL4FC+vfh6wX/dHhe4ivVMOATSQb4QswDvpJWgBdKbTxPpIAITDoeKBQK4TqhKnEeCNGWiIAQSccjxdy/bBK0Uo4DQZgKMJImijoSMhVwJGVv1cSUgNtK7lecCYka2KGEvt5MaMRgh1yojYQsFIGVcqRcRoJSBEdKlaIMhMI9GLcJQmWM7WKGBn6Q1k88E5SSAELy2WOeEXBpCwQd76BCga8TovZgngkZRmuU7teZoNTAkSzh8+i4atEFzBoaqUvpSAyOFCqJI9ghgR+C9lCbCRkTCsnoB8tyFBrB8svt0KgoICSqY2g0yxBEEKrjDlbaIkpRX1itNAuIPbOIenwBfrZQZY9HFUBWdZXnqrMdSL7qfbCB2S+vLgAqvdVQWRkIrM8UHN56F/DYqqYaXuB5XNFu2k18Be8jyIoLWD9QjR4fCrK/K8DWextYP1HIKzxIskwS/HkYBFzZwAuwv60mHq/gvmY9t/7cIP4brxDPq4QM8L6xenxGDXADX8F9k+8EU36hwk5tjQfrBy9zDI+kGvdsWuATWJ97713gGdh/Kx8ziE/uwnWBZ4gv7jxKBfSMz+LrKn4Y1sPavbNoSQFJa9/orecJaDCBfcewrorkkCnvPN7Y+jaqQNYkk2v0Nk2gFlBIxx1MO6OaZdrDNQEtPcyvySF2Ci31Pa8JLhd2GmGZk+DVTWl9htkm5F4WZkKhDAqjydLmhK9NScCspu1dqTOljFLNpLVTyibn0R1M2/MYfJOcRwSl7ObGCgdHG0CcUrZbRRAaNuK4/DG7VZAPJtXD6AfzDLKSRY6biUzOowpjwexKxlT0UcmIXjROVQ1kXC3e05OyRTu0npAzIcDZ9F3mvg/wAjZoyUdGgjZq2XvB+grGS3Z4dGHDu4rB3WRXHyw8HqkKwzvZy3Cgm0STOjwanqYmUzwerb+akhnO7ZMI8ucJ6L6tTzEL+4DiNYl6b5+E/GtJWx0eDma80gkMZfinX7w+xNuP9+e1h8PT0+V1bvl//xxnny5PeXL7Fw==);lineShape=1;sketch=1;hachureGap=4;jiggle=2;curveFitting=1;fontFamily=Architects Daughter;fontSource=https%3A%2F%2Ffonts.googleapis.com%2Fcss%3Ffamily%3DArchitects%2BDaughter;fontSize=20;" vertex="1" parent="1">
          <mxGeometry x="745.0558417097952" y="332.83071987313815" width="23.511247270206923" height="57.36173096489847" as="geometry" />
        </mxCell>
        <mxCell id="sx4bDLCk7kIE46ueS4SA-59" value="" style="shape=stencil(lVdJchsxDHzNXFHgTpwd5x+ushypokguWc7y+4BRURpiNO34Jo/RJPZuTuHhbfv0upk8v51Px++bX7vn83YKXybvd4ft5rQ7668pPE7h4eV42nw7Hd8Pz5e/X5+aZfv14/iznfD7gitUSwN5/nP5wCTx34evF/P97jAzd4FyHOwL+bRu347zg71L5BwAZAojQI+ofh0QAvEYQXNJ1gFRzwsDIEQKFQCkO9AB0VEFSUqVUh4BQo7XATmRjDGkRDGvA4qnUgdAduQCAFSSNAIyeXBDjRRNoTVvIK1VbxiDLok8CFo85TGGIuRBDJIojIWrHrokxbZGxUFLpTDGUIViAePATMwDop2BghAqxQIqmCAF8FgI/QJvKD0pM0BBhcgUkwUIuiF2j69DfcvDfUQgX+0VsHQ6YQtARj6xHVL5oJu4d+esEAVMtQJYLAA2OFM0gEIZBx2KBXjkku85uQIyCdiuWjmXLKDgmStLAFjHzeNqAbDSuizrImiUVqHEi7SiLIndTHqnwyMni9bIgCFuEzlrPocAuiScBSSUpWz3dxsgsJnashyb7z9mtCz2hqA0eUvVbdGgZrpy1HyVoSCYQrKFgP3NduO3TKNCfBaghMCGhKTnbY0XTZaUhDIIui4mqAYoBmqyzaREikSc0qahFKVqAUEXpZRxIIqjgvWJcSkXcsAlVSNuzFJWJ0Glk253I5muyvE+QBllIcoE6UQVlmMdoocEoUrUqLigCghrXTem1dfOMfflhljO8o4S0icq1w1Tp56G+3UgN+6ACqvA5MaIHVwAC7HkKMLTORtzlJ3FsuAuklfMqzVPwBlNdDTmHpzuLZUzfPYECmzMGTRztM2PV3vqSmhmjpvAWd9B3rOVatyp5/5u6Ir6Zo7Y+5MP1A/N9cftLfyy2+8vT+n5/+3bWT9d3t3h8S8=);lineShape=1;sketch=1;hachureGap=4;jiggle=2;curveFitting=1;fontFamily=Architects Daughter;fontSource=https%3A%2F%2Ffonts.googleapis.com%2Fcss%3Ffamily%3DArchitects%2BDaughter;fontSize=20;" vertex="1" parent="1">
          <mxGeometry x="745.0349686872505" y="428.8350643621443" width="14.04705820730237" height="42.36727212770802" as="geometry" />
        </mxCell>
        <mxCell id="sx4bDLCk7kIE46ueS4SA-60" value="" style="shape=stencil(lVfLbhsxDPwaXwlKpF7nNP2PAHFqo24cOE4ff19uF9pY9HoK39ZrzkocccjRRh7ed09v203k9/Pp+H37a/983m3kyybG/etue9qf7Wkjjxt5eDmett9Ox4/X5/n329MUOT39OP6cvvB7xjGVMoEi/5lftERa/735Oscf9q8X8ZkkjfFMAcSHSFkGQFVKAgCZUhwBDHcUAzEPgJKJCwBkCjoCmFq+DZBAtQ2AnCgjQPGsZmMJJK1CcQQkpdwAoFIYWdJGCpJOQjrmoEqBAaBRrANAKpUAKiNRyCNAKADAxPp4cLFQRgArvnGFGCml2wCrnDayFAo1wJLVZgsjQCiBc2iZ4ghgSmABi6/FxQdQSW1h5DOewam16iniXijr8Y1YXLyifFtPbyGIGMe7MzYtKVA/s1ezNRCgfluguqqjhAhqvZksOqAINmSEuhJSqvgA4khogsq3A1anfIro+5mKuv00XKAhuPiE8rXOpo7PivhPJK5N4IJIVxqmCCRs8Wn8fiBF+7feP56XTTgksOzz5d6Kb53XlcAYCax6/i0e5Vup+v0Lytfq2X+/ov2bXlyH6wTfFPA4NyIp1lcb61+wvpr3B0oMZoDFBx+fkb7ujK82IFy9FYqggKr0/rQQFKDBKbULagGkvuY6wEb36LlkmZzrk9jshwNkUpBDvjI4GuFYStn7FS1wEqfQT3Vpc7E37nWDc6XjVKFfUe6sL55LoIUS9Z00L1pa943Nt/ai3eetA7T70AsryyDp0HwOZkgEJB2smzpAhXa89Vpe7LvAUhLfjUxPgpyv744Wj0xj7G7gIr4B8URvSi8MwzpDVORqAdCvg/dzUwLg++ylNhEE+p1181FpU8MHNcS+fU0OD+z/yj7ZwCp3xqP5zf7uZAMUGUbu0+LiftkgP/fdR/8fbw+fl9+X/eEw350v//eXZXs1X7Tl8S8=);lineShape=1;sketch=1;hachureGap=4;jiggle=2;curveFitting=1;fontFamily=Architects Daughter;fontSource=https%3A%2F%2Ffonts.googleapis.com%2Fcss%3Ffamily%3DArchitects%2BDaughter;fontSize=20;" vertex="1" parent="1">
          <mxGeometry x="675.3866275656135" y="427.6719443425982" width="26.717715798874906" height="23.945501259003777" as="geometry" />
        </mxCell>
        <mxCell id="sx4bDLCk7kIE46ueS4SA-61" value="" style="shape=stencil(lVjbchshDP0av2oAAYLnNP2PzMRpPE3jjOPe/r6int1YonvSvNm7OoCkcySxO755fbx72e9SeD2fjl/3Pw/358cdf9qldHh+3J8OZ/2149sd3zwcT/svp+P35/vL/5e7YTl+fTv+GCv8uuAipTZAKfy+PAgUwt8Hny/mT4fnK3OhGJ15AeaRKSdn3wTYC1V29rVs26dELTj7DtZPjVIx9uo/OD9nCtbfTAzW505FjH0jAefPhUK15+ElAv8ElEDJAXSHCACFkvUgMUxBDRStC6lTAD7U7HOmUYtoh75QbAV0ig2QTrNsSZqVFoillbJMABAl6dSSB4S8DWgT8YYPIEqtTFFSLoJMt+YzzUIMAD2QNA/oFQA6cTaAyniHTmJ9qA3KQQHdyk0yFRClAehWPxFGSQHN+tAE6kEBxWa6q9MJApxEu1BGPjQqVnG6RO0AoGliDxAMYPFHQmWmV+rBOy1AcQoo1mmlIwPFKSDbHTRxqMwMgM2DFFgEFFAn8nWUOPFlRukNoyRLL1sBYSmeW5kONg+lUUVOt6WbrYBOCWV6LYzrkdLSkbYA1ZKvaipBIRuKs05rtc1ghxiCj6t0ODOMLeyZRjHEknNh6pEKDlNyCqqUcCLECaLDnqWAaOl6FYdNNjknNPuoHMvScVZAwZr7MCAsUVwzp5UEaG7uQSpSRL+3xF4V/Hf6qLgjpaUFbHVqD4hQ1WMWsOyTQIx20CNZp7XQIAnpaw8oS/ncmpjyXGiAILRKdLtDwXkYr+0OedX51lzpSlnO1NDkqq9tHniV+dZo7Ao+F9jamX1l4kgRAObhXp+geWa+PSigfOh6ooAGuDTffxLuENP9agzfgHvT9U3tEVfX69GVfQRZ07HZrS+QFoGyC1BZJusN++TiwxSBdCaajifw/E4HscIBdLbH5Wg6j4YfMG5yt8L6O0WT4Ww7JSvCuXPiwrrd/1EN9793zfXH20eJh8PT0+WbxvV7/xFDH10+gPDtHw==);lineShape=1;sketch=1;hachureGap=4;jiggle=2;curveFitting=1;fontFamily=Architects Daughter;fontSource=https%3A%2F%2Ffonts.googleapis.com%2Fcss%3Ffamily%3DArchitects%2BDaughter;fontSize=20;" vertex="1" parent="1">
          <mxGeometry x="659.4337167329838" y="406.42952617731817" width="44.19299294580355" height="3.862694421854485" as="geometry" />
        </mxCell>
        <mxCell id="sx4bDLCk7kIE46ueS4SA-62" value="" style="shape=stencil(lVfLctswDPwaXTEk+ALPafofmYlTa+raGcdtk78vVI1UE6zWzk2PXQIgFiA4hIe3/dPrbmD3djmfvu9+j8+X/RC+DMzjcb87jxd9GsLjEB5eTufdt/Pp5/F5fn99mpDT04/Tr2mF95nHxGEisfuYPzjK/PfD1xl+GI9X8ErMBl4A3GeKscF7cnEbP7mTzPrOAXylZP1Jso0PhSIbfyJYPyYSZ/C1buNTJF8aPC8G/4vPnsTiSwD4SsFZfN7Gl0xBPuGPMAU2+JoAvhC36xcSD+RTqbbrl0AOELxbBbAydA0QspowKZNMBcSghJAbQmXKBRCEim8JhTxQkf6ubZGpzYQsrOtdEQToomarC11CUNCJsokhkIDKVIJvMydCjFIdrbTFU0IuKcFoKeJdUpfaxOUCq3MKurWQmRKKoSufJJSRBU1cbQmZKtpWIdduaypLy9wUX2shO/JIGtW2vBypIAur1NY8uMXm3TVaKGOfqqlRTTUu6mQqyGG5ytK3VkLCFaRqNhUkWEzFauNqH7bUlJI1ATuTusw2iACON/3N2W4To+M82n4sN9rAZwnafE3mYll2eusI8u0uhQr7Rn/GhQxLqD9ElYD6d39KTwSwrf0YMLkE1NfPGUoQUBD9IDN9AYR+UgqqeNBd+1FMCcilftYLN4YBO0uqAY+GQzuqThEAvKfirD+oeXvbuzUHDlSbW9roig/wNHGdTrVzQ7xv42Us064La0Qo3g7vy3Kg3uePx8NnF6/Ac6fbTu11oOy7bKkzQM6dGPxSovdpDV+LbsL14d8N7GU8HOYL3PV/e2PTT/NtLzz+AQ==);lineShape=1;sketch=1;hachureGap=4;jiggle=2;curveFitting=1;fontFamily=Architects Daughter;fontSource=https%3A%2F%2Ffonts.googleapis.com%2Fcss%3Ffamily%3DArchitects%2BDaughter;fontSize=20;" vertex="1" parent="1">
          <mxGeometry x="345.81194948387997" y="364.78808081837633" width="26.32668245718969" height="3.1497042320352193" as="geometry" />
        </mxCell>
        <mxCell id="sx4bDLCk7kIE46ueS4SA-63" value="" style="shape=stencil(7VhJchsxDHyNriiQ4Hp2nH+4ynKkimK5ZGf7fcCoOB6Cnk75loNvWtAzWBtN7uTm+XD3tN95fn65nL/ufx7vXw47+bTz/vh42F+OL/ppJ7c7uXk4X/ZfLufvj/fX7093zbJ9+nb+0Z7w64qrlUppKM+/r784yvnvD5+v9qfj49reU82jvacg24DiyfEA8IEkbQNyoDB6JJ583Qak1B3ogODIlW1AzBTTAIhMMWwDQiEeXYqaNr8NkEpxDDoVciAGcVTGGDQNFQB8pBwHQGEKCMBU6gjQN7htgEtUzRsKFdAaTkjGLGmzBJAlp1kfe6lGcgCQScYk1UISQWfYkLXbGdrLZB8YNBLlYO0TqIEmPFn7Au2dG2eNmRg4JOTlXQA/laxSBfaOElv7DOyZqkwZBRVmO8qtYqDn2GZIOyJBe2Zr78HksyWvmuHgq//O2gcwZELR5D+SB/ksnacWewc72jk7MjrEGdC1DnEee7QkmCGlCW9oQighXtGZHae+KF2DN+gYGKrLy07Z4sY4znF2FEHQOvg5WwAiIq2DMy4xJFNf7eA0ANogbLmiuQQ6W5ckT0GjOiigZJtWjwDKLt4CEH0pwExnlp6GLZdMe+sW9KC9dW2aDaIAJF80rWJcwitHK212iAI8kC+6pEKa3oAAqf+9iqGAoLW93aQV0BrUAQrV1iGjoEMXXCsAY4BRVNoaggCaxGniMhqg1ENcATya6UxppNY2cShLtTfCCgDbmzuprFxiUGntVktkjgJgPp2HNJEAUoVt4qY6JOSS9HWzqrRgmskmrYEYx/A+QKu02UAe7ly/PG8BxC7k3gZo1idli1SGrqxk1jr3Y9PbgNhVyAIQeCRRKRwmoYFc+pC2H9L2/5a2zp6Za+pMsNFx3tgLpK5CwYwYFkjOT1I49ybfUrZxjLgs4niLVwxz5UqCqC5bIlL2LUiCxb6Gl3uFDKVwkOmqo8DVH7099YflLuNtYnH9PLEAGNYhVSu2dS964FLOXXAtN0gCxUWr60h2egxKoA412E2+qO8t++KMPWrVdqizz0fkq/bmEMbw9kgny3AdQyHSdkuw9sif3LXZyh4UoF3LTP5j+2rzg278GtNafyJ6fp3zWVC81W4zfBxcraJXQADb+N23rv+01w+vV7wPx9PpekO8/t9eCetP1+tkuf0D);lineShape=1;sketch=1;hachureGap=4;jiggle=2;curveFitting=1;fontFamily=Architects Daughter;fontSource=https%3A%2F%2Ffonts.googleapis.com%2Fcss%3Ffamily%3DArchitects%2BDaughter;fontSize=20;" vertex="1" parent="1">
          <mxGeometry x="353.14589680999586" y="379.23498760064103" width="20.219096252784198" height="41.39388966358547" as="geometry" />
        </mxCell>
        <mxCell id="sx4bDLCk7kIE46ueS4SA-64" value="" style="shape=stencil(lZjJctswDIafxlcMSXDDOU3fIzNxGk9dO+MkXd6+UF3KIij9bW6Ogk/EDlA7vnt9fnjZ74J7fbucv+5/HB7fnnf8aRfC4fS8vxze9NeO73d893S+7L9czu+nx+vfLw+T5PTr2/n79IafV44pxwkK7tf1gaOY/zz4fBU/Hk4L8UIldeKRfNoW94mEO3nvyfttIGTytQekabgKMJPrDQiJotsGoqPaq8SepACgDkClwttAypRC76REARidI7ne6OQpCgDERk3PDEClwiT9CdlRAG4tGujcA5opINJV49qrlHPz2zoQB0AwkCn3cSiBUgVAJXE9gOMgjpL0QKEEUkM0c3ovFbUBAUyhTw31Wwb1JpoapQeYIoiDAsX3QGyxXwdSS4QZ0PwFBaSAPaGSQ0CxJTo5GkRaKrEBGGard65pMBMVHyEk3gKoCyiQzAlCjPyqbcNboKDsKyTBAn+frAN5aK43P2yFzhDTEchNidwAoN6n6ceDERFZzVSrBRwGTGeaQo1rTgbAYxtiX3Myj73NEmILwCLVKZctEFAyFfKDSgGdUNtcXgCMGo0MFVQoozjoDAoWEHzCGAdYQdIqcgGgCTGpZADBXhLbXadXIKOrbZYKVGS0hmk4QcBo19QIeQBQeifioc9UZENsnXEBwF7JTeMFgLa+1RItqJN9GAjEJlsZrok6qe1I8eSQDY6495JOuYAi7ewSp3O0AKBK2/EWo72C7l3nxjgDAcZhmstmtDvYZlRj6YFS2wBYB1LbwBYrFmqV0/Ziljhue+DWXmkmUHHtFeuba21xnffK0vr5OhAp93HQfZxBAakCZq/UZbqidV031x7QdR1N9uytDUkjDU5IbEeWXjkE2KD/NhXHAt3KOgL71ODQ/LZ+kxO7zkx3O2C0XkVNpPUuiuaDD3YR1ctlBcmnc73XKLbdY1Vca6WPmm/L+4a4iZmHpTNsrA7ONhXPRjxDZcJwrYdvT96IB1Ayrs28mziqYd+azk3cQfHCVhy0xbky/ld8+ODhQJdmG1XXVrcNcbbKBFAkH/z68k9x/XH70PN0OB6v34mW/7cfhvTR9aMS3/8G);lineShape=1;sketch=1;hachureGap=4;jiggle=2;curveFitting=1;fontFamily=Architects Daughter;fontSource=https%3A%2F%2Ffonts.googleapis.com%2Fcss%3Ffamily%3DArchitects%2BDaughter;fontSize=20;" vertex="1" parent="1">
          <mxGeometry x="417.83410329802655" y="379.23687360516897" width="29.440764990986054" height="66.85992045827925" as="geometry" />
        </mxCell>
        <mxCell id="sx4bDLCk7kIE46ueS4SA-65" value="" style="shape=stencil(lVjZchoxEPwaXqd0H8+O8x+uMg5UiHFhcv19WtnaNRp5G3hblm5Jo+nRtHbjH953T2/bjTPv59Px+/b3/vm82/gvG+f2r7vtaX/G08Y/bvzDy/G0/XY6/nx9nn6/PTVke/px/NVG+DPxrNjcSM78nV4YMeb/i68T/LB/vYAXcRru4zrcRolJ4ZNdx+Pv7BS+kOW4JDkqfPXreO/F9ngrhuGrxKLwlqwnREkDnuxPxPRO4yvBRyka79w6PhkJVeMDwQdJ4Z7xi4Ss8Gz/s5u3e8Y7qYngo4ReP4GuJxdJpsNjALL/xUq0HT7NCfwcj+l7/VSxRM8Fw/Xrt47XV5GqBJol53VCdZL7jKFGA5FQrbokkRTLZqhSFAFVR5JmzXKGzIziaJlhChV1yRI4QZ0T2AfPo/a98GrihKIrDUMYIj0QlDQu9uFzRtaHBaZwLOosNukgMpFrXRJ1sU2VBZEkqswVMeTAACH0+4pUJ6YmzNDrNWfaQkAo/QzQayLywy6pHpWQObakPPeYhZCkMkIRXzQhsjygqvugU6bnJIQQevVlNEI2Q52FsBCi2Csl1xOK4eIDoW8lBc2OJQ7nRn+2VjPX1GrQfeJqpN2wVWSfuJYZXqOhz0Nb5BVpJE1gDQIEr46NK+d3mhewEIJ4XnGl3EMogzSio4lD01KeMOAgY13OS+3z4CO1bWi7ape8o74qD4lD4w0kD1C/mgGdnToTGJderbAakYivWZ8+aHiZwLzS4K2auWUzDOatEYiWRnd4ZYbRfjb/TDI9+ttGIFoaDXRz3CTTo0NvBBL0eAX4uNPceMcAwZOgx0sMCMxiDZck4DO7Jel6g5KYq1ySejk+KQbcuUZZkBPDzM5ocTKLe1rBu74S4Fk53qhLQ6D9drCTMNGexqvbwpzx25aTaeccog30gB82092XKzuL6TYpGNoA77ztX4Xj4ePDwsv+cJi+S1z+rz9E4NX0EcM//gM=);lineShape=1;sketch=1;hachureGap=4;jiggle=2;curveFitting=1;fontFamily=Architects Daughter;fontSource=https%3A%2F%2Ffonts.googleapis.com%2Fcss%3Ffamily%3DArchitects%2BDaughter;fontSize=20;" vertex="1" parent="1">
          <mxGeometry x="434.63810524387486" y="368.0340324792346" width="47.95037246171387" height="5.121217283405713" as="geometry" />
        </mxCell>
      </root>
    </mxGraphModel>
  </diagram>
  <diagram id="J_ZiWTYu2rv1e3eJ24NQ" name="Page-2">
    <mxGraphModel dx="620" dy="1413" grid="0" gridSize="10" guides="1" tooltips="1" connect="1" arrows="1" fold="1" page="0" pageScale="1" pageWidth="827" pageHeight="1169" math="0" shadow="0">
      <root>
        <mxCell id="0" />
        <mxCell id="1" parent="0" />
        <mxCell id="DAvXUuptx5vr7CyddjTH-1" value="Ward" style="whiteSpace=wrap;html=1;align=center;sketch=1;hachureGap=4;jiggle=2;curveFitting=1;fontFamily=Architects Daughter;fontSource=https%3A%2F%2Ffonts.googleapis.com%2Fcss%3Ffamily%3DArchitects%2BDaughter;fontSize=20;" vertex="1" parent="1">
          <mxGeometry x="521" y="-497" width="100" height="40" as="geometry" />
        </mxCell>
        <mxCell id="DAvXUuptx5vr7CyddjTH-2" value="WardNo" style="ellipse;whiteSpace=wrap;html=1;align=center;fontStyle=4;sketch=1;hachureGap=4;jiggle=2;curveFitting=1;fontFamily=Architects Daughter;fontSource=https%3A%2F%2Ffonts.googleapis.com%2Fcss%3Ffamily%3DArchitects%2BDaughter;fontSize=20;" vertex="1" parent="1">
          <mxGeometry x="406" y="-575" width="100" height="40" as="geometry" />
        </mxCell>
        <mxCell id="DAvXUuptx5vr7CyddjTH-3" value="Name" style="ellipse;whiteSpace=wrap;html=1;align=center;sketch=1;hachureGap=4;jiggle=2;curveFitting=1;fontFamily=Architects Daughter;fontSource=https%3A%2F%2Ffonts.googleapis.com%2Fcss%3Ffamily%3DArchitects%2BDaughter;fontSize=20;" vertex="1" parent="1">
          <mxGeometry x="550" y="-563" width="100" height="40" as="geometry" />
        </mxCell>
        <mxCell id="DAvXUuptx5vr7CyddjTH-4" value="No.Patienr" style="ellipse;whiteSpace=wrap;html=1;align=center;sketch=1;hachureGap=4;jiggle=2;curveFitting=1;fontFamily=Architects Daughter;fontSource=https%3A%2F%2Ffonts.googleapis.com%2Fcss%3Ffamily%3DArchitects%2BDaughter;fontSize=20;" vertex="1" parent="1">
          <mxGeometry x="386" y="-497" width="108" height="40" as="geometry" />
        </mxCell>
        <mxCell id="DAvXUuptx5vr7CyddjTH-5" value="Doctor" style="rounded=1;arcSize=10;whiteSpace=wrap;html=1;align=center;sketch=1;hachureGap=4;jiggle=2;curveFitting=1;fontFamily=Architects Daughter;fontSource=https%3A%2F%2Ffonts.googleapis.com%2Fcss%3Ffamily%3DArchitects%2BDaughter;fontSize=20;" vertex="1" parent="1">
          <mxGeometry x="432" y="-303" width="100" height="40" as="geometry" />
        </mxCell>
        <mxCell id="DAvXUuptx5vr7CyddjTH-6" value="Patient" style="rounded=1;arcSize=10;whiteSpace=wrap;html=1;align=center;sketch=1;hachureGap=4;jiggle=2;curveFitting=1;fontFamily=Architects Daughter;fontSource=https%3A%2F%2Ffonts.googleapis.com%2Fcss%3Ffamily%3DArchitects%2BDaughter;fontSize=20;" vertex="1" parent="1">
          <mxGeometry x="723" y="-161" width="100" height="40" as="geometry" />
        </mxCell>
        <mxCell id="DAvXUuptx5vr7CyddjTH-7" value="AdNo" style="ellipse;whiteSpace=wrap;html=1;align=center;fontStyle=4;sketch=1;hachureGap=4;jiggle=2;curveFitting=1;fontFamily=Architects Daughter;fontSource=https%3A%2F%2Ffonts.googleapis.com%2Fcss%3Ffamily%3DArchitects%2BDaughter;fontSize=20;" vertex="1" parent="1">
          <mxGeometry x="613" y="-94" width="100" height="40" as="geometry" />
        </mxCell>
        <mxCell id="DAvXUuptx5vr7CyddjTH-8" value="Adress" style="ellipse;whiteSpace=wrap;html=1;align=center;sketch=1;hachureGap=4;jiggle=2;curveFitting=1;fontFamily=Architects Daughter;fontSource=https%3A%2F%2Ffonts.googleapis.com%2Fcss%3Ffamily%3DArchitects%2BDaughter;fontSize=20;" vertex="1" parent="1">
          <mxGeometry x="730" y="-67" width="100" height="40" as="geometry" />
        </mxCell>
        <mxCell id="DAvXUuptx5vr7CyddjTH-9" value="TelNo" style="ellipse;shape=doubleEllipse;margin=3;whiteSpace=wrap;html=1;align=center;sketch=1;hachureGap=4;jiggle=2;curveFitting=1;fontFamily=Architects Daughter;fontSource=https%3A%2F%2Ffonts.googleapis.com%2Fcss%3Ffamily%3DArchitects%2BDaughter;fontSize=20;" vertex="1" parent="1">
          <mxGeometry x="862" y="-91" width="100" height="40" as="geometry" />
        </mxCell>
        <mxCell id="DAvXUuptx5vr7CyddjTH-10" value="DateOfAd" style="ellipse;whiteSpace=wrap;html=1;align=center;sketch=1;hachureGap=4;jiggle=2;curveFitting=1;fontFamily=Architects Daughter;fontSource=https%3A%2F%2Ffonts.googleapis.com%2Fcss%3Ffamily%3DArchitects%2BDaughter;fontSize=20;" vertex="1" parent="1">
          <mxGeometry x="862" y="-161" width="100" height="40" as="geometry" />
        </mxCell>
        <mxCell id="DAvXUuptx5vr7CyddjTH-11" value="Name" style="ellipse;whiteSpace=wrap;html=1;align=center;sketch=1;hachureGap=4;jiggle=2;curveFitting=1;fontFamily=Architects Daughter;fontSource=https%3A%2F%2Ffonts.googleapis.com%2Fcss%3Ffamily%3DArchitects%2BDaughter;fontSize=20;" vertex="1" parent="1">
          <mxGeometry x="593" y="-161" width="100" height="40" as="geometry" />
        </mxCell>
        <mxCell id="DAvXUuptx5vr7CyddjTH-12" value="Treatment" style="rounded=1;arcSize=10;whiteSpace=wrap;html=1;align=center;sketch=1;hachureGap=4;jiggle=2;curveFitting=1;fontFamily=Architects Daughter;fontSource=https%3A%2F%2Ffonts.googleapis.com%2Fcss%3Ffamily%3DArchitects%2BDaughter;fontSize=20;" vertex="1" parent="1">
          <mxGeometry x="898" y="-386" width="100" height="40" as="geometry" />
        </mxCell>
        <mxCell id="DAvXUuptx5vr7CyddjTH-13" value="Number" style="ellipse;whiteSpace=wrap;html=1;align=center;fontStyle=4;sketch=1;hachureGap=4;jiggle=2;curveFitting=1;fontFamily=Architects Daughter;fontSource=https%3A%2F%2Ffonts.googleapis.com%2Fcss%3Ffamily%3DArchitects%2BDaughter;fontSize=20;" vertex="1" parent="1">
          <mxGeometry x="893" y="-313" width="100" height="40" as="geometry" />
        </mxCell>
        <mxCell id="DAvXUuptx5vr7CyddjTH-14" value="Description" style="ellipse;whiteSpace=wrap;html=1;align=center;sketch=1;hachureGap=4;jiggle=2;curveFitting=1;fontFamily=Architects Daughter;fontSource=https%3A%2F%2Ffonts.googleapis.com%2Fcss%3Ffamily%3DArchitects%2BDaughter;fontSize=20;" vertex="1" parent="1">
          <mxGeometry x="876" y="-463" width="128" height="40" as="geometry" />
        </mxCell>
        <mxCell id="DAvXUuptx5vr7CyddjTH-15" value="Has" style="shape=rhombus;perimeter=rhombusPerimeter;whiteSpace=wrap;html=1;align=center;sketch=1;hachureGap=4;jiggle=2;curveFitting=1;fontFamily=Architects Daughter;fontSource=https%3A%2F%2Ffonts.googleapis.com%2Fcss%3Ffamily%3DArchitects%2BDaughter;fontSize=20;" vertex="1" parent="1">
          <mxGeometry x="621" y="-346" width="87" height="60" as="geometry" />
        </mxCell>
        <mxCell id="DAvXUuptx5vr7CyddjTH-16" value="" style="shape=stencil(lVnbctw2DP2afcWABEkQz2n6H5mJU+/UtTOO0zZ/H6g7lEVIOtu87VI8InE/gC7y4dvjp68Pl8zf3l5f/nz45/r57fEiv11yvj4/Prxe3/zXRT5e5MOXl9eHP15fvj9/vv3/+mnZufz66+Xv5Q3/3nCJqi2gzD9uC0xZ/1v4/bb96fq82V5J5u2FupxvT0xapv2+khkA/H3zAb6SDQCMep8BRgwkcBHKfILLIOAESSQ6A9YzjwFKaT5BKqV2DiiZhGeAn5AAoFFvsxmEDMhQmdqspaLUEECoz4bzVyBL10Zl1pK/olUA6OMCK6AR53NAY6qzDP6KBCzdXK1pAvgrGFypuRJnO7RECizd6giWFSAkwNKtRaFbGZY5BvThOSugUkcy2ND6ClDicg7QRDyrdTkTXEkz1dk1/MwC7KDuS7NaFfuS1nglPzMjQItZzM9UoCV1EcOVPC2AvKS2O2GN8kNATyMLrYBOBmTomVqeAN2DFhiul2HXFZBhbu0uYjjBtYQAbVxgBayWOQYo1dlb/RWCAJ1EZoAONRwDbOSIFeB5BMlgMfP5SgUA4xjTvoLqgz8O7m2JMkgC/jike8uUQLr3xzILbUIVRJw/1iBDGfn8GFBjPFgbK8eANkTcAFDJMiOZfck6FaQli6nSASgeHGA5AlCdTuzlIEhtlEDaWI6QCCjAXf2xpghoWOpANnwF5XuX0UoEGPKNHgv1Rg9nCN4JYcgSOkJyKwRyDh0cb6smdCUdAbMBCFKTxpLiAJTKlisFGfo9GUqLgIryhkaKtZgGOVOn3CNAQEnxx7q7EgQY5bS7Eo7qugtSmJksMtdFrcjSNojt1nA4gmwXQXeEjvnbBtM8FXoHUGRpv/FOBhhAnunmPPM/YjTwxHtpQEl3qawjvf4yQHYZXyFPfK+Cm5qCmtGDyltGDTgjA9GZCiXEsTy9z2z6XapTfhKEdroMIqjvTO30APVNDogxytD7nFGFLNANa2mX+vxMQyyu7airQv92GmmBlDVSdCVvtMIJTmbRlUrM976COJZzZw1COyFHgBQZ0EL5Uc/hJS10BDgx6S6mvedAFcXboBYAFdI+f5xmb9VCGQFkOPOmM0MtxNK4zYbzflOAWpd2NMjAeCxgsUlpa9k7a6lDGW0KyYY37X0O0Ya7Gm/RJZxQYZpZBg9BBhmDs7PRRqi7voKa9pYi1W08UtvxeMaie1ev7AigUehlJIQmRjW6dy2wstc8LrACcKNVbPT069TLQwpcqdRIXEuBWioppvuC56dSY5PiK6jhFY6JzFdQBcolTh8z7v1Sj017coKDhroSB0CpwGnLrqdJDJsgiV1WhUlppyGGo02OEwSGbG/XIzJsW327hO2oL+FIefiOqDm+HfWrHKf1DEfjPKj7ZjtwTY5DBkxROfJyvD3F7MBwjJki2eTBuU+2l+gzaJT8i19J7m73H+8fZL5cn55u33O2z+MHHF+6ffyRjz8B);lineShape=1;sketch=1;hachureGap=4;jiggle=2;curveFitting=1;fontFamily=Architects Daughter;fontSource=https%3A%2F%2Ffonts.googleapis.com%2Fcss%3Ffamily%3DArchitects%2BDaughter;fontSize=20;" vertex="1" parent="1">
          <mxGeometry x="582.6343004078485" y="-456.763850067103" width="67.47034471632878" height="117.23079428810001" as="geometry" />
        </mxCell>
        <mxCell id="DAvXUuptx5vr7CyddjTH-17" value="" style="shape=stencil(lVrJblw3EPwaXQnuy9lx/sOA5UiIIhmysv19ihH4NKx+UwPfpBnWkOyu3nmXPv14+PL9/i76H2+vL7/f//349e3hLv1yF+Pj88P96+Mb/rpLn+/Sp28vr/e/vb78+fz1/f/vX+bK+dcfL3/NX/jnHRedHxMU/b/vH3iXwv8f/Pq+/Onx+WJ5cnFfHlzu15dnV/y2PK4PTpcXl/dfTy6J5dXVui3PLorlzY19eXFBLB9r77W8Op+uLw/etbCtb86Lnw/RhUTrRxbrk6v7ebpej9u1bf1wvYr11bW4qxY3KgLQXSw7ILjaBGC4tt8YMihCpCBX3K8AISSxA+jV+w7I6yfOAYagEFsUUgIJwq5lyE2RDloteQc0F9QOnWkKQXthY8m7THoYLgwBCG7sd5hGL6iU0vIJByC4onbIru5Hgmaa0HQqbuzkg+l3IdbU2G9BlUMB+pLJAajSPhOESEeC4pSUBpMPqvRCStm70hgwlDeFPdAO2FN46wzvvu8AslQN6ASAgxdszcm13YBSXIc8B2S+NNgV1JGKK5UBStO5siMGHZsCNFYc6CgBUNNO74RQJKiRoSYKbM3VeB1QvOs7+cBfpYcSlq8+AIhfaoe4fPURPP0KGOeAxMEZgCEUV+B6d88H/jYFME4AdBzCgEp1nXYAHYUeSmNqTDqqHcYylwMAryHEWk0WAIC6Qw2u70Fx0lHtENl7g45NAWAutMNYNngOKM5TouRl2K2VMwHQMaojNZd3rwE6SkA3gLTc8zkA7B8MGMKAGqLoTj7wt4tLt8BhF/xtQtMturzrYfJX5asm2Z78VUfKK1E4AF0f6YiZB2BIE2244k4NEL6KwN4qu3sQvoj40BrHOBA+qzt0ZisInwU1mvHeNUtX2QYbECwkCS51z44MFqIMqAezQ3NJiLVHThJhIUlIqaflhQ7AWInpOaCs7OgoT/zyVNcAlDq0I/s4B1QuaJou93pbajoAeZnUOQDU2DUN/qqCAwDKW8FfZUB9uEhFXFu6vwagwA52qbJyeA67YJcXihth1SMHIMgECwCiBtgVhImOyDEO7FL2MNIi8wHIq3Q/B2QmH9ilcg0AyC+BLKrwG4X90tS92qFyLQrNqPoBAIrTELRqrYzGAWVEWU+Po2FwAJKWUudqF2KQXAI36Q5VJokADJLSkOVx8J5VDURWlxhGrkNrbjBd5yfCqOcBIgOUUU8xdQNQO/STI90ApGoAym10rvyGLhVBpl6MWBU3GlccU243AOYOUd2hcdU0Ba126Fyy4xOVw+FrSsmmZpRjwtfdADT5QjEAdemxGqqXd7hBb7PDEH27YdKZeUjZ2TyzUdUwmlsYbhR9pmZUfUNMxVyiq6A1OCx++KprqqbC7EIOV9lk3YBmUzAWoXq00+NbV6aOdBQMl4rQbuAnAZWbJ/gkK7lWY3M6m8bX7AayDkLF7BC1s8wnoVpVNQBQkTJ0BxWBuewAJIKqjzBDPyVlTadMgXshyK9VNg0AOcuZ8qsjeaZ31z3ametS2hclW6dMTOqq2jPI2aJJjtWAaQqRhjQ62wDA71Jqx57Xqpq86wEVgfKuH5ntRZGicgEAwq6HpjsVSLYpsUShpTpG0CtFapRyRRW8kfsILehyNHC2gepS1RzQa9+lVIecijQTUWqX5Sj02nbFoQaXOzRufaPK96rFVA1Ap9+z27KTr2a9g+nn1KTvkNe066LbonKyZrrAVVc1YE6lO3jp7pvpZBckG+oOgb1G6bItAKpRKlCajHGgGjfiqmxigWok1lJkKQeqUa+85JVpXm257vZQ9FQEVOMebZLkA9V4h7hy2Wt9ZnKVJci+GphDFle8VNxJc31IPRQzcc46vy+mIJjdeD1RYECVMzwwh5pYACjPB+bQ8DUX2UwsZsKWs8xmQAQWa5L1LojAM4sk2/dzHGBHQeohiJlpz2GTnrDRlBAAOXzt/Hgk6WoURKDeYOrS80GvJKXUJL2hV8q9U5V+CXoleqciNQ01Zbp0lm88cuS+Q0orcp8DgnnCo2d4UBOLNcrJThrcXE9BTpznIJ9G1F4GlDlq3XeIQ44goFdKTmJfve1rAOoKxINd5wDjNWLVOxRuV8biihJr5qwyZjlxnnrdbXq+1tLPTvi5Q1xu4Rxg4nQMMoWL3TxhGrIVAqlTYA9ddlAhRMpbQ5NdhPnAyADkHcx4N1RZP8TA8SEUGVDmMyySUpaVYjBttaAnbDhxtQ+9brxVo0dSQTYfcYBCirvxWC2YNoUcpQYzDu661mVj0GnDkW8eSbGs4CrbZtHBkJuUWaYk5mFhlhMp83Ak6Q4/T+6jpLPnlpiX9uV5wqeHlKaRiegjJOM5o/XSh3oONDrOeE6KvHSHnjNNf0OQlQXphYGYkbVfo58rWqXXdLo1Gjjv8PotLSekOpcL9uzq/eNPPnm+uRx/fLyu/vb49PT+OPvye36NjY/eX3Knz/8B);lineShape=1;sketch=1;hachureGap=4;jiggle=2;curveFitting=1;fontFamily=Architects Daughter;fontSource=https%3A%2F%2Ffonts.googleapis.com%2Fcss%3Ffamily%3DArchitects%2BDaughter;fontSize=20;" vertex="1" parent="1">
          <mxGeometry x="588.8395045349221" y="-457.76019625904576" width="67.70838204551387" height="118.63905815903752" as="geometry" />
        </mxCell>
        <mxCell id="DAvXUuptx5vr7CyddjTH-18" value="" style="shape=stencil(lVnbctQwDP2afdXYlmzLzwX+ozMUukNpmVJuf4/CjtNYTs7St93ERzfrnhPffL+//XZ3SuH7y/PTl7tf548v9yd+d0rp/Hh/93x+sV8nfn/im09Pz3efn59+PH68/P92u5xcfn19+rlQ+H3BRYqygFL4c3kQKNZ/Dz5cjj+cHzfHM4U6HGeq4HgjHY8rhXR8PDJxGc7HiAGVOI4AIeFjgOlbRn2jUgQcTOM2imQkWgaARo1HQO5a7QKYSRwHpQx04EJlVJojMbgFbpTSCGBSOQaIWSmPgEJRAYC9lVhJEKB4v5NABeggSmnkIIkq0CEH7xoipBEA0sShUGsAIBQdhwatlM2XRkCOJMCXcqU8ipQt3oC3Zrtpx8F4ArOWQBpGgBkaOF9JxCPASAiwUlkzxApIpIiDhcsYQPYEJYFSSEf3LhXeQzEVnUiNGHFoPh4qjjh7HUeRqkU54FATlTYCzAzArFUojQFUKyUEyD3kV0CjAKxk9HhUWldn2Qeoz3yaSECIGr08iqRrHtkHpO6bKyBjDuZ8OgIKzHxGLzqlzVlAiBo9r4M5C7CS1u79HdDMrEhpSyoOkCgAHYwej0o37plqHxB9QWkCXcMEcGY1AEqVJkAb46Fl3DjkSekCU6W9djHdaiexD6i9UdgAFIRoa5PSa109AnilLc2Ai4shUAgegZLrwqJ5QEFaG2DiAC/CXmcPUCySC4iFJ/DvxSiuh3u1wxEilIkFkkl97mtrl3YEKBMHVLQMMGtdkQ7aL3YDyMhMxmHyJkFRrd0Ttv6Kolp7f7QBoDq63MPEASaaNgWpkbjiTLNIV4J0slLEHHSKasbO1yYAqkH7UZ2xXdvsTDiq55tTlC0tS0xmaqimtN6N/G/INd/gX41q9d3xwgIpoVRnrVEuezOgTJVU4V1b2UouW1bYsFvdTMEDArrqNPlG6XPLUXH3/UaGrai1D64VNSFREbIGRVxUMwaon1JMK5TKrMnyVSt2EkdtnOtoFPuSTvdgQmakQ5pWGxWLFPuIseldUb9h7bnXQeCUYg17cyIlWNtr6UPMCogwf9vQ4ZQ2IQWNBOzjwYREqc8Gp3kOQnuBGvwQbjwLHv5cWVx4ArPaMOn2AjYOZjRTZz9TGwmUNYp41zASqFKXdfWxAri3RPuA2Oltpna4PbGCM95DVhjTeYrpXPqEug8oO7uNhrYn4tvpHLEO7GcIaXApZfTcbkPW/eL+Uqr5faWs8+M+oPqbFoYN0EJvvAeJFJBI3F9vNnEozUjwHRMXvH5U70sssMXi7GOa8cVx8s10WnuDo51rGHVIuY8tR1td17mm1LdO+4DJSnHtx/e7vim3RoH3ENcSuNl9ozqtviYqPC5+ZhK46Le0OlIPMG8Hb087DurC1BEHWP93jqNCGPp65PU4ykRTBbEHIJcGv0wPMIJDH/k3x6Ewov44tEzxdkc9dvArjGvU26QqiKo42z0CYd746enqcfvx+pXr0/nh4fKRbPvefxWzR5cvavz+Lw==);lineShape=1;sketch=1;hachureGap=4;jiggle=2;curveFitting=1;fontFamily=Architects Daughter;fontSource=https%3A%2F%2Ffonts.googleapis.com%2Fcss%3Ffamily%3DArchitects%2BDaughter;fontSize=20;" vertex="1" parent="1">
          <mxGeometry x="681.8368635965523" y="-300.76590155418853" width="90.8797209422994" height="150.8801463899506" as="geometry" />
        </mxCell>
        <mxCell id="DAvXUuptx5vr7CyddjTH-19" value="" style="shape=stencil(lVfLctswDPwaXTEgwec5Tf8jM3FqT90447ivvy9UD20DUtfNTZa4JrDYBcFJHt63T2+bKfL76Xj4uvm5ez5tJ/k0xbh73W6Ou5M+TfI4ycPL4bj5cjx8f30+/357mlfOT98OP+Z/+HXGpUytz6jIv89vhKT9ffH5vH6/e7XrYzLrO9WO1wezPmTKCQAKJRuQRtQqBJRmAY2aQECvNmWBIWWmIBbQiCMAJCqWpBQpMwAoicUCNEhAa8kU7A45DN5WAZWpRAvIcIdaiLMBFKYK6tDCSPECyCQFADRFKw0NMqAdOmUrjao05H8DukZsWaodaql3z1LPkFYFuB16GW/WAXXhn0odaKnH4ccLoEFAy1SsluasQEi1DgffAKD49P94AQA7lDA+3wAQrapNX4dGFRkoUOyeVpR00gCs+LRwCXSNuQm4Oqj4UA7aVFwOiRj4QZsA277UZbh8ndZC0VpUxYIaWU0k0QMEaSkOTm53AHVQi9boc2DkOPVX9oAOWFLlMPs6MKhDYF4gCsxatSYupgp51cJGR1MbAl6nqQ0l3BoC7NDYn4qz5QIotRbWnbtXHtbVlBaNpo+TdV2vSop4ANohq5oWrQydo2rS6gpRqIGG/3FAGB4eAGU6oJC0EFZMegZVUAgdFVzlaoCNRoeRYCunPi/AEXHRv0skBjvERR20lAIKFy6fL4A4BpZ1QPSnXGqjfa7LlcSmkGSIa50kP5wozRWUbdEC7ox87I+TOzMle0bvDK3Bz3t3puKwaKtw6g7+JMFDvf67NbI2eVBd8dNtoIYay/DHdTlyWGDvYaaMgr8wd10fQTj6uTa3HnUtjd+1CLxegj8zcTxS/A0J56sdKJYP8KlOEpn+v1zLG56qAd2/Pn6DvLNeH67X1Zfdfn++7d5+99dbfXW+GsvjHw==);lineShape=1;sketch=1;hachureGap=4;jiggle=2;curveFitting=1;fontFamily=Architects Daughter;fontSource=https%3A%2F%2Ffonts.googleapis.com%2Fcss%3Ffamily%3DArchitects%2BDaughter;fontSize=20;" vertex="1" parent="1">
          <mxGeometry x="639.9303417759354" y="-421.8238401968497" width="3.703386773239572" height="24.37837534258017" as="geometry" />
        </mxCell>
        <mxCell id="DAvXUuptx5vr7CyddjTH-20" value="" style="shape=stencil(nVnbbhw3DP2afRVGoq7PbvofAWLHi7p24Lht8vc5ykITk5o92gbIw2ZMDm+H1znJ3dfHj1/uT2H7+vb68tf9f+dPb48n+eMUwvn58f71/IZfJ/lwkruHl9f7z68v/zx/uvz/y8dO2X/9/fJvf8O3C9/mwNH/bd8vD3J2tf188ueF/un8rOmrpt9cEkqfFH2KrnpGv2n6mFyKlF40/eZ8ofTaXokuZ0q/KfrQnFB9stf04hKx17uYFb2vw6JD+uCK1t/jSbpOH0c0B31xjZhbXDLuH/E71j45r92z++tY+83FaOiFeAfim3YPrCXqhzrBmUZXEC4NH7+5SsIrwYn2J1zA8CwyFNgtgEziUuCxGIbkIkGEJFd0SsKqSFJYis0ZyKxMQrVRk+Y8s6G5ZrJSXCRZGb2NW0QaELdGxKHouhJcDIQBTtRITZUWrthc0HHInqYOCpuVAPARlboCmgEymYQcXNZxgN8aQWuesITYVyYBxU3nP7C0kcCVXYEdrdkFAr6CjNaBQ0onUjJKnTIOkSFG12zdihQVgtYWrQ2+0MA1OFGjFWU8E5UaNDZGo2pUylBNHDxta36bGpVkt5FQQ0TTfgWYPLMaDKY3ZFrsO4PuhQnFlTNUHYiUaGHqDNpoTCOFSyhaQk60fXYGbUPZW8Y1hqxDXZLLPNRZu7ViouKBy9roloajrzGYpAaAA4t0tUNM25PwWkJEbXSXyeIA5ETLwAoTctRIeIf4Y45gs7rHklntXWqWgY1iDXEq1k0bkVCnlIMfCvFrnTIIoWZ9FCqJbrxwnGeRQ+M1EmSMdNfcagZWPGEFH+8zZQMyK7Mhjb58K0OxM/1KpWrL8crofdy51a1tgsYicG2MbDdCAzY0UwU4+HrT0mPiCt55LF63JlCyLWiZo2IHy1UZCGMqvLXQbAM6t5YyrI8GfbxYIketX3k5/i0GrdKiQ3QG07R4DwJDMU2Ld7nOoFVa9FEw5OluwDp1Z9AS+izAxr5mV9c+bXAbTEvp8wy3QXTp62sLZ/BaAmayyCI9bQRYaNnoWqd9NwgdLKvYaQMrf2QHgWoDh2WR7X4Y8GOyXhK2QoSJIQ1HHzNsdiPA3sS2/AwvGSztTemYIdmelcrYaI8ZxHaUHOj+mqaM6zIJvIF+M5PBKlYq02Y7CvzGLmkIUzILL78VAcwmH2A0PTyInX+wAjNoSLBtFEt2YNeWaf6J/DyD/DKlsqOV2IB0EZ1xcAMrM9j0TKPGKteYhDga/7sU9cwGsStHX6lJpEOw0PB7hhxvl226UvoB+Gt3QdFGV9pP8Do73sfh5yv7rr3OQEc6/ozr0O4jlDFWKO0Cvrj7VtujF3flak8Ii7t1tZvu4i5e7ZK4uLtXm2mLu34dF5Kdnn83mDobikuh7/dmUefnujLp3yiks8373OhtItlNDNWUbQDRXkBBH8n7URrD/6EPB+9n+gS7cC/s9dN3Hu7PfZq7MV6bvUks8PAb36kW9Pjx66PYw/np6fJN7f3f7Uc0PLp8gJMPPwA=);lineShape=1;sketch=1;hachureGap=4;jiggle=2;curveFitting=1;fontFamily=Architects Daughter;fontSource=https%3A%2F%2Ffonts.googleapis.com%2Fcss%3Ffamily%3DArchitects%2BDaughter;fontSize=20;" vertex="1" parent="1">
          <mxGeometry x="753.537859867894" y="-206.07850829087033" width="19.48752018061373" height="23.14164052150727" as="geometry" />
        </mxCell>
        <mxCell id="DAvXUuptx5vr7CyddjTH-21" value="Has" style="shape=rhombus;perimeter=rhombusPerimeter;whiteSpace=wrap;html=1;align=center;sketch=1;hachureGap=4;jiggle=2;curveFitting=1;fontFamily=Architects Daughter;fontSource=https%3A%2F%2Ffonts.googleapis.com%2Fcss%3Ffamily%3DArchitects%2BDaughter;fontSize=20;" vertex="1" parent="1">
          <mxGeometry x="463" y="-397" width="86" height="60" as="geometry" />
        </mxCell>
        <mxCell id="DAvXUuptx5vr7CyddjTH-22" value="" style="shape=stencil(lVnZbttADPwavxJ7cK/nNP2PAHEao2kcOOn19x3VWFlLyWPkzVGG1pI7HB7exbv354e3/S6494/T8fv+9+Hx43kXv+xCOLw+70+HD3zaxftdvHs6nvbfTsefr4/nv98eJuT06cfx1/QNf852rUmrk1Vwf89PnLTy/8HXM/7l8LrAe+fEucEgiubrBnhBSQM+SfMUH/2AL1IjwVfJccD7+YTbBvi+8QU+SKzEIEvU0SCJa8RAJZs3FGlKDIKkMUa4hRquG9QmNY8GUSrxoWZp5g25X/y2gUoYfYgIK7m36iWNR4pRAiFGqaLmDVkSubiSbFhjk5yIQej/7gaKQBNyZyTDyCVNooR8uUhqo0EVT6iRk5Qxe5KTQqiRo7TxDSmKZ0cCmcd7SKk/2TbAAUanU+mB3jRItSfkbNCoD/g+P15c9lJJlNIc9dkgdv5uG0CDxigh0I0kUPKiZTSALBBqaBMdLw5kYbqkReJoULwUElZQLRmDSHVJ1Ya1qDSSQGC/iVKBtJGwIr+aeUOl4h2LFTLIQiXUiHB61NYK1SBhjUFCGA0gC+TiIFthDGst4ojTqDcmRSuUinApqE1RyDNLIIh7Hn1onr4B5SOO+dCiJFYfxI8uoKoGknBIULX4TDQjdZ4t8IwXaqm9aCO2b60X2OULCC18L5cLPEs2t4FnIum6qs94ngirJqlxDoGkoxyhS2H+Otu1Ac9qZxCnFu+Jv7HrwozPtC1UKWWFZ1VKfLLnYUlZVufBE5oAYeUv40OVYviAFGLtkZRs8ZnibQK3HoEr/qZVgiWCX7WowDPd1RV/WhexK3wwzd2EJ3xYqfR0HsJPb0sZ8ErO41Z8aOLIeebedXFfidyX6z3WAs9afmdrBviWaf5+Dl96NzPjA9Uf7zsdZwNHOyifV3W1ckVZtY2YMRjlwLlq6qqKMoNq2xU0E7T7wAhi2hVextBM5DFt0N941q6sW65MeTQ1RKsezbPC1+zchSmG3YN6W5qK68PhtgG03bS+yB2ipVNjarrxQpMBrW8e1QLdOFNTNNfZtO+RNqZo3+2RPK0HaV5SLGYWzwySvbjLFHNtyLFzl9KRHAcIxiDQGgIXg5m7XN+VXJsdjUriZuiwienUjLNKVSNXW6cwYzAdxgxkyAfCs4F5ShezVsi0cyy4JvOGQAc1aISp5aF1dm3X8mB9QPlVVvxTj8liWxOJ05hQzPwLtVXiNAYO4zRGBqZLqAZm7vLa9XzbwFu594HuIaadlilZfRG4jY89gS97v8zWeGpb2sT3hGrz88beUu0t88Uo8JoMnuXatCRsBs9GugYS2UUtUzzgk8V7dv7cJfqCdyw+c7Vf4Pna1fDhBr5aSt84T7UjyA1/Ib+fimezRe3GfTU7I9/gwycX8bfx+HDZ+j8dXl7OPxos/29/JcCj8y8M8f4f);lineShape=1;sketch=1;hachureGap=4;jiggle=2;curveFitting=1;fontFamily=Architects Daughter;fontSource=https%3A%2F%2Ffonts.googleapis.com%2Fcss%3Ffamily%3DArchitects%2BDaughter;fontSize=20;" vertex="1" parent="1">
          <mxGeometry x="514.1569672607193" y="-456.84860977007406" width="23.300678520478186" height="66.68012682841766" as="geometry" />
        </mxCell>
        <mxCell id="DAvXUuptx5vr7CyddjTH-23" value="" style="shape=stencil(rVjZbtswEPwavy6Wy3Of0/Q/AsRpjLp24KTX33dVg7K5ksco0DdZnhG595Cb+PD++vS23Qi/f5yOX7c/d88fr5v4aSOyO7xuT7sPe9rEx018eDmetl9Ox++H5/Pvt6cJOT19O/6YvvDrzFOlqhNL+Pf5TSCVvy8+n/H73eEaX6jGAZ9JFODtcyNeKcbb+NaIR3wQKmCBFimWkVCohduEWkjbQDCTSwMEppxHgq0AtlQilZEQhTJYIRfKow2xUQKE1LwNKWGC9L9nwhz4VUI0E9MY50SlAkLwXspKAURaak+0TjC/BWCDpO71mYDjILPXO8FCKRkQAqXRhmpbArlkhOAImWrBhDG9a6OcIEHGOLRwzwZXDy0RI7cyFUcwtwJCUCphJChMvhCojpHW1rNrncC+HqxNRdQESJPHo+yuxOLxCvB5DY+KgcJyP8hgynVhL8g7pqTeoej7TMwez8BepuD8XynB/Xj/F+h/IakeL6h9EY8Zp7mveCNerj0aHs6EHs3r7/NtvPYiv94/wFsFhOYJaObY0OPmI4DmrBHiImQKOpFtyfuoUQH92gg+iZQESQXKi6JBE6R2j1wXGQyywwee8/xGVdZFVaI2ZDHIHp+AAeyllHlUQavmXoNXeFz1ThpZiFHE2PdpnaXPf8FXb2+729ZdUk+jCTjICHFMuWn4oTozE8YQ23hNOKldYdoAT7jOPEH6sFonpK4gZtWieAUbTmMlm8xBzXqKmxNSAqeltdPqpFojQTJnno4zwWoJzT+rzTFwplgbiIPpUx4DlyIWtNrjOkvmShnYYBo7jl6aFCtS8eKHgnWcBrLV4urqWeaTw3r9mKAdtxRyP12tE0wVjF6y/EUdyQ5HefRSo4B0VPMmJNiR7HTnWkaAHVgXLZXhGDR8DQ6PdIjGLqYveGSvJsrs8AyK2WSBm2l44ujiYDf38HV89Yco7kpyHd98FTA8XdsAC/776GB6mdgXPDpxTRPbHcZJUPvlhTIN9zb0b9cVd/H2cLkbednt9+erlev//V2KvTrfw8THPw==);lineShape=1;sketch=1;hachureGap=4;jiggle=2;curveFitting=1;fontFamily=Architects Daughter;fontSource=https%3A%2F%2Ffonts.googleapis.com%2Fcss%3Ffamily%3DArchitects%2BDaughter;fontSize=20;" vertex="1" parent="1">
          <mxGeometry x="476.2047908903762" y="-347.20342291443035" width="13.997195840057657" height="41.322101775552255" as="geometry" />
        </mxCell>
        <mxCell id="DAvXUuptx5vr7CyddjTH-24" value="" style="shape=stencil(lVjbchshDP0av2pAAgHPafofmYnTeOraGSe9/X219bA2Wu9J8uZsdBDocnRgI3evzw8v2w2H17fT8fv29+7x7XkjXzbMu8Pz9rR7s18bud/I3dPxtP12Ov48PJ7/fnmYLKdfP46/phX+nHGtUa0TisPf8xemUP5/+Hq23+8O1/ZKebRXKhHYB8phsI+RKnBQM4XRQcyU0zqgVOI4AhplBoBAZdwSCxVdByiTjB64UgRnyEKaB4AwKYhSyn3HM0BJ2zpAFodOgRLwIEJh9JCEKjg0NwoyAgqFAABKcQxrDhSQB6FURgBTywAQidMIqN3nTYAVQhkPrUICEhcrtTYCtMdtDVDGKGmlCqrVAKoDoMS+yY8CEuk7gLH4SiGtGDB2XA3d5ypgjFLFDTRFacxDNdYAmTYAj6VRGz6DEo95aIUaKo3c22UG2KlQaUjP6wxonRZuA6JPnAEKolaK7O0b4AClVBf2IAvJM4DZwxNTW6wfQdKsaIKPaALrh04nVylDOQ7ELp7aZ9fK/iV5e7R/oejsjZVBPK2C1NujqVD7YL2yD4gqgu/LyQFqM/GUPZ1AACD1UXwdIlTTusiZ5QB5UBJXdJZkBMhU3KGtihDdJUqLvoRn4BsABXlofiZMfQbqqJCM/BtDgJPTshC8gwIanxeN1rrLlcZpxYcUabbgB/nEpXB9p9jMHhPF5+zZax0bBkjrcKfZD04bpurWx+PM7N00w/OSfZdNAxkQhamgsY1t4mckBj2xmKRABS1ezuosGVbs3XnVaAXYWz07EcX9y8ogc7SloWd8rcGc0Cz9krFCvHUk6pyw5Ipdt86A2FlpjYNcRFPF6sN0qxPXuTf17ZJg38OJoZJdqgnBTW8XDqfRBI+ntKAtsbiBsrBbket7ni+Tt+si+mljYYiokKrPQzTmApkuy8tm6l9ul5JdZ8c82JRGet+us+rvy2gW1Nqpf3ZAArjFqNAJ35nt1+xdIQV4m7D7e1NnL2B+N+5UfrGPyF68irLpgN4TUtcbV/YgnpOgWawPSshGkTRnz0i0mzrx50WSy0Y1+/2g55CLFLjUA6ObU1jI6giH06cfgN61tx+X16an3X5/fqy6/r9/nbJP55ctuf8H);lineShape=1;sketch=1;hachureGap=4;jiggle=2;curveFitting=1;fontFamily=Architects Daughter;fontSource=https%3A%2F%2Ffonts.googleapis.com%2Fcss%3Ffamily%3DArchitects%2BDaughter;fontSize=20;" vertex="1" parent="1">
          <mxGeometry x="482.76645647015835" y="-341.64827985758893" width="11.483900442648746" height="37.71033885384054" as="geometry" />
        </mxCell>
        <mxCell id="DAvXUuptx5vr7CyddjTH-25" value="" style="shape=stencil(lVfLbhsxDPyavRIiqec5Tf8jQJzaqBsHjvv6+3JryLa43gly28ickBxySGnSh/ft09tmkvB+Oh6+b37vnk/bSb9MIrvX7ea4O9nXpI+TPrwcjptvx8PP1+fz329Ps+X89ePwa/4Pf844EeI4oyT8PZ8osfw/+Hq23+9eb+0L5TbYs1IJ6wCtFMMAMA+S1gHRPMgYUSDVdUAqJHUENGIAyJnq6CFWqmUdUDLFEZAqpboOqIm0DIBcKcR1QIsURpZKIQa0cgge0RI1kHVrlMdKN3ORAaASj7zaiTQASFTSCGgkIIkmvtQGKMBDbb05L9135WGtEjl4F5UBQCgukwClK43agiZFAFNE9oUQoDkDBBeSlRrQZIDiQor95H7SgdKo6maqRixp74QLQKihOuQumBtARIoIXcM3AEXtqpSyB2SQdLOQxCetYAxYXUvwtCoYZXOruZBS97kKcLRmKlijvtKFGqI1U3a9VPHYsEZYaDQjgE3rheIaoNVaYzk2GmDJmi9GD4jIQ+jNfJN0RgPf9kHytOYPJOoqbTsDCOjzAPUs2eBRMARy6nK5AAKcS8n0MCouMwWQdDTAGFJi6EEvzXxZvEwV9NJ82xhDUhs8oHBsnIx6kATn0iIiTn3r3bUPJGMnxa6nFXO3pPFYDb6xBa5DpjQGw1A36q96TAy4TCQj9wHeeUpX1NUcEcnWjOLs0SK3a2Zgbw96jReL3xwC6rn0MXi1RyuTF7OdKaJWZr8xpfN73/6zF/MP7e3j+gp42e3350fE7e/+1WBH5xeHPv4D);lineShape=1;sketch=1;hachureGap=4;jiggle=2;curveFitting=1;fontFamily=Architects Daughter;fontSource=https%3A%2F%2Ffonts.googleapis.com%2Fcss%3Ffamily%3DArchitects%2BDaughter;fontSize=20;" vertex="1" parent="1">
          <mxGeometry x="510.5211731088741" y="-438.47752391501854" width="6.07648441561355" height="17.43877030074782" as="geometry" />
        </mxCell>
        <mxCell id="DAvXUuptx5vr7CyddjTH-26" value="" style="shape=stencil(7VnLchw3DPyavaJIgs+zY/+HqyxHW5Yllyw78d+7mS3KA8xsK6rKIQffViP2kAAaQINz0jdfb99/uTml8PXp8eHTzV/nD0+3J/3jlNL5/vbm8fyEXyd9e9I3Hx8eb/58fPh2/+Hy95f3c+X89fnh+3zD3xdcKlLqRKXw4/JkdEnlnyfvLoC78/0WEKQPC4jSCSA2ydkAehcdBKDS7ZF6lp4IIIgWC4hSyA5VejPrW5Oq19erVGtyw5NGDiTRWlyHjH59fZAQ7PoiPbD3u5jVKIm8v0hOZn1p/PyIcbSAso54DNh5tOjywTGLVJoDJAmERQofdQuAzYQUWqRZUpQgiQQ5J+lqALlJiQSAHeyRskohYcD7go2DVhmVApINtKYVmWsAtUxNXQrxEgDZAVQGicP0iXVrHOsV1wDVcikimwk15g72SL/oeNUGx1ZaX6aTbLplCYwYeL+Ns0rgURt2faK5kPtK9meDRdn64ZMtrPp0nP27csQTAZlY1K1nyY9UH/U164sv1y+cp0pNr7G3+XLN/Vn6SvN/F68yJNj1nA9YH+15ON+w3vkHCVCYQ9FdXIo1Wldq8sUUKcNMRj/yhSguEh4Dxmqom1LHSNGqRGtDDrSY9iTNsiLnxdtDwBjrfc9lAoEhXoph35d5ILCF6whozJ1sAa01rJsq+ibbAcXRSQuQiSTDKL7RAtCYm9CZhwcMwo0p/+JuB9JzRlidfmsDIRP0Ym3eSxTQVofZxoEY3ZunKyKd+ZGC0y8gE9theH4XnqPwUs0eEEhCjOTLGAony6CRjwCk0Y7qlTwAne3QFze3wpMZPXxrRnFuRI4A4BMoUB05AbZsgBqZsXVIcuRD5WFe6jt6K1XzcKvuMq4wL2XJ1QMGsyEdAJgGm+QLHqCc3q6jwOhMduh7L6XVY/4bQMteeGIAGCRwtS0TnztKXcryGIC50w0AUBpMCUDJOCWJYZvsMKWVjYPyJgcTnVZNTSKbSfqS+5sBgNXWqW5tAsW+DnkN4OTnC3Lmtz7/rc//5/rcX0VIZv7sPolfGGgBcASaIzNpanMHl5ODdvIJsJSbYz+LGQD2SKnTK7P9kZTXldno7ZG00Us8AKKrvol28slTmweo740RSX3io7w2drMwvA1Fqf7HyJKdjKxLbhzfanV/9YdsamQHTV6+THax+93qswF8r6SDYNYMO7GdGSD4xozxMpLAxeTHqobOy+4vi1RbwSAG6KjX/TVY40IVJWtYQI+0z84aYY2el9qES8gv16WggBiXoAxcpDH7sToGQIsewOgNgKtLkK4sRecOlhqYX1mp1OwlGNR0ZPmgPqcHp7fuuASBT48U17i8ATQSaQ3+nmHOHCzSw8vIzc3DNW6k5LdgX0imCCw7q3kVSMX7lYnn139HehmAH78+W308391dvnpt/+8/c+HR5ROZvv0J);lineShape=1;sketch=1;hachureGap=4;jiggle=2;curveFitting=1;fontFamily=Architects Daughter;fontSource=https%3A%2F%2Ffonts.googleapis.com%2Fcss%3Ffamily%3DArchitects%2BDaughter;fontSize=20;" vertex="1" parent="1">
          <mxGeometry x="447.6710197378659" y="-339.66538909384303" width="17.145252478137763" height="25.10954074293022" as="geometry" />
        </mxCell>
        <mxCell id="DAvXUuptx5vr7CyddjTH-27" value="" style="shape=stencil(rVfLctswDPwaXTEkQYLkOU3/IzNxak1dO+M4bfP3gapKNYlqG8/0JstYEo9dABr47mX/8Lwbgnu5nE9fdz/Gx8t+4E9DCONxvzuPF30a+H7gu6fTefflfHo9Ps6/nx8my+np2+n7dMLPGecp+wkU3Nv8opCXXy8+z+aH8Xht7ijFxr5ScsBeKLvGXk+IeRsQmDi1AE++bANYPZIeIBUANMLaAgI5EHNMVA2AeRuQ2AQdKIVtgDgS6QECXJJMbG7IIK2Zyfs+SxUULhcKLaASA49KoMKNvVAE55dMrjT2DM+vmWpLPEcOnF8LSZshzSgoQa2GFY4CuqCStERVLf12cQtQ2wyxkAAaebeGuCBSWOS6dUVpeSSFEgakTv5KbcAjBXQuVS08iroQt3XWNwVErYXOoQVUHLQyKbeAtNz5d4AsYlyDlkVOWwDfAlROEbmUFm2thSsL3T8IiFie1iXVW0KFM0F7hm3SpjViAZm6qX7Q+YYY2udvYl6Gk8pS22cSrM9OPOzxbLP6jNqXsdy6FiDa9VCSTJPRvuxwlro2VjQs5JLpk1pI6JJpxFd5+E8IOxyUvqh2dvpUXuL66Hhz8AY7QIvuEeAGO6I1qgAan10CFMDAJbtmKCCCLmMXGQUIYJNdlUqGM84uY5olpAi77imggDZjF0oleIJT1GysDsu634irhxPO93WemAQcclR9n1OXkH1q+3DRG0GG1rZ7NazQaugWGq89KcJ47VKSyN1iHyNVGG/nDyfY6E28OgmRzkw+vbZAoBpTL121kf+WD3CjuvUD7F/m+vDnW+9pPBzmT8Xr//tvQ301f1fy/Ts=);lineShape=1;sketch=1;hachureGap=4;jiggle=2;curveFitting=1;fontFamily=Architects Daughter;fontSource=https%3A%2F%2Ffonts.googleapis.com%2Fcss%3Ffamily%3DArchitects%2BDaughter;fontSize=20;" vertex="1" parent="1">
          <mxGeometry x="493.03809914035946" y="-480.0763465706808" width="32.76866396653827" height="1.352705348392874" as="geometry" />
        </mxCell>
        <mxCell id="DAvXUuptx5vr7CyddjTH-28" value="" style="shape=stencil(lVjZUhsxEPwav07pluaZJP9BFSa4QjAF5Pr79MbRxhrtdoo3I6Y1mrtnD/Hm9eH2+XgI7vXt5fzl+ON09/ZwiB8OIZyeHo4vpzf8OsSPh3hzf345fn45f3u6u/z9fLtILr++nr8vN/y84LxoWEDB/bocOAn65+DTRfzx9HQlXqWmQTxLLvviPonTQd57yeR+3yS5EZClxX1AiJJHA2BBrQSg4uMIKJL8PiAmKaMNEU7LBKDSDKBKCPuAlCSVAZB8v2Ib0KzRqYgjT8pBQh3j5sSRJ+UsdfRSjlJIHHKTNtqQSz/ZBBQvdYx01m7VNiD1zOyAEsQzAB4wasAVibi1qM1WXPH3kdvV4K1bC9xAnlSjxDwAqpNCkq9miW0EBEmNAJBqfgTAbyRwFUaPkYbORjQ0J200Gjo9AwRbQLXROLTcndgBi04GaL2CV0AQJU9SL36MA3QWEmmNPdVWQJNCIq3ZalAnSiKtyH4DKJITBZg4KOJAAN6h5p1FsHSFCh39qug8zE3as3kFKK1RnbrxcgXTgAdMAOrXat105Yc9RJiMaGSkIFBlelMmNQeAbxbA2jGyyYxp+CGyBM8bycFaGZ5k2gAAjtsQx6rGSSIzCP+2yVS40bXn/wrAVGJGtylwmXIBAFq2AGUAtfRkcQMH1MlLytyqvXFdxYExpgUwDt7FDcxLakc7AMprNE71kMhox32GJS4FxIxudvAuVjGjq6S5C7BmCS4w2VCYDWXD6MAL6J2AYEcKhgxL74YXm9RwPbv2xuI8tDyJQyudKqwAdCpiQ4t9kK8A0ETSBDDIDetr4FAkcKAKatiGUl5ZpzaDK6iG3E1cAbyRLSTO8BmsCEyDt3QdJK6SOICImvQGTaSAanllaZxMZzuBSqE0EVy7jm4tyFamwU3cGKSLDOpcbW/FThHZUpOmpSZTspGdbcbZUyKaMALNYlbpvpuiZVg4SaSAYrORjmvz3AbEnswrIFIbsLKX0QacKLEhBHGjW3HCZpwvlpz4tT1vA0KneCsAVpFIFxtopDtxqrP1Gfp42REP5jV0/3HWPZ4uxhPn9jSpN8QdCZazCeroCHHi1YizLuHs8un6jNsRN+Tf0X1k2iNhDFtf+mVX4iQJUNnBirOctLPV0Un5zs9m/xXHj39f6O5Pj4+XD3zX/7df9HB0+RoYP/4G);lineShape=1;sketch=1;hachureGap=4;jiggle=2;curveFitting=1;fontFamily=Architects Daughter;fontSource=https%3A%2F%2Ffonts.googleapis.com%2Fcss%3Ffamily%3DArchitects%2BDaughter;fontSize=20;" vertex="1" parent="1">
          <mxGeometry x="485.03754835560653" y="-543.9660163862044" width="48.747493988006" height="47.44541740885177" as="geometry" />
        </mxCell>
        <mxCell id="DAvXUuptx5vr7CyddjTH-29" value="" style="shape=stencil(lVfLctswDPwaXTEEn+A5Tf8jM3FqT1074zht8/eBqlFjQvLSvsk0lgTAxQIcwsPb9ul1M3j3dj4df27+7J7P2yF8G7zfHbab0+6sX0N4HMLDy/G0+XE6vh+ep9+vT6Pl+PXr+Hvc4e+Eq55KHlHefUwrnlz9t/B9st/vDpf2jmpt7CvleN1eKhVu7FnIMziAKcTWoTivXPPI+QYQmGKBLrnWpVDnLdYB6nFpADFTTQBQqLQxpEg5QEBobyHrNTjoUm2DzkIRxDCmVRpAieSBSzUSt1kqlZIAQCZpmSGREnCJnZtj/M+lQgnkVf82QVShgPJaScwJetUAUIRctgAUdQ4UigVUwO9YyLdpusjDKmKkc7VHCAiCy0y2CwAiRyHONq0CYmDiYu0dqDhnQ9aL9CCpWiwtuZVbCfkTqJhrTiT5OsDrftUCAoggsq03BTBIaRLihUsIUALFsHAJJEkyBb4n6K/9bkxrXWh3595G2pgYMDG0+0i0AMQ88VYoO9RWWUwLBUDFkzzlO+szU2Z7BJIArZ+6qE8kMuyIFwqAZMwvPMI6ea8Q32sfbC/ptIZkW0mn94gVjE5zYybXlkKnfbKfp5wbG7QCfEvUzgigLpWWFJ0hgxeTWGeMUVK2MffmJMpmMsSDGC9kvjfq2TkMj5KqPWYwhJOq2K7JuMY8cTT2jHqO2Bpws3Csl2SyYupmKVsvmWil0cH+EdU+GXtE0JRs08f2ecUe9rNo2YDjVWV3Nj8onzoyS+sPvi8dgJMfbufD3Q+jrr1+fL3CXnb7/fSIu/zfvtp0aXrxhcdP);lineShape=1;sketch=1;hachureGap=4;jiggle=2;curveFitting=1;fontFamily=Architects Daughter;fontSource=https%3A%2F%2Ffonts.googleapis.com%2Fcss%3Ffamily%3DArchitects%2BDaughter;fontSize=20;" vertex="1" parent="1">
          <mxGeometry x="573.7120442989458" y="-525.5840383100656" width="1.3759678596279628" height="27.995185140239073" as="geometry" />
        </mxCell>
        <mxCell id="DAvXUuptx5vr7CyddjTH-30" value="" style="shape=stencil(nVjZctswDPwav2II3nxO0//ITJzaUzfOOO7194WqYWxA7tLqm6NgReJaLLQJD++7p7ftxrv38+n4dftz/3zebcKnjff71932tD/Lr0143ISHl+Np++V0/P76PP/99jRZTr++HX9Mb/g142qimieUd7/nJ0yZ/z74PNsf9q/aPiRlnylWYB8psX4/U3IAUMh5DUjkGgTEqAGtn3kbkClUBfCRooc+RH0l36igEzw1fUJIxAkAmJr2ITocJW+jFBN2WgA6z0lOCNgHpwGJPPJBMq19SK0/+Vceoo5SDhRRpisl7XQuxOCEJi7qE4rrr7gN8JSDBoT+5DYgUtBRKpkK6Icm/VY0QGoJON0KeQ2QzBTkdCWvnZ56HDndFidUqqD42Dly2mu5JbxTsS0nt4wZpLr1G3wAGjGo71JtfQsAEZnUWigW0ECYoiSiaZ65xOEmInAv56sjKggTF1t+AkBhkvLPNqwNOM3Exdp74LOzLksiUYdGyrpBW4bFzYGKswAG7SPTJpkbJVh5kXtSrwCIWVMldmsAwhAxrLnSNH94jdPyPts9OKztYzzdmTcpg2p8kMJAvOd7Id9ZeUJaYdGfqLRz7VG/s3mScPfK/sydIe6kAOmftuhPRDLsiBcMgGjML26EeXItEa+3L9rh0WigorttMHv84v14uEViM5/x9EyWXwbjudihMJr/VhkOBIaIX6t5sIQRhrSaB4skUcvRCD0sw2To8CqhJwAjVgdScgJopwdilRfDfCCHebE0DAS3RMkow4GklzyY0TZYGthTMosVXkt4sTQMFp8p04bw8GrFMp7X7G5iz2azwmyX+hi72CN1IWn2+j6uL6O3ySJYueNgZUtKjZxyXRrfngfFKmcHEyBVnBf2SFrIsuBX2Gdv2RTfR7jHsBf2V7jQDHEcT9lSy5p8yUZY9f1xPfzHt4iBvfy4fPh42R8O83eT6//bDyXyaP7IEh7/AA==);lineShape=1;sketch=1;hachureGap=4;jiggle=2;curveFitting=1;fontFamily=Architects Daughter;fontSource=https%3A%2F%2Ffonts.googleapis.com%2Fcss%3Ffamily%3DArchitects%2BDaughter;fontSize=20;" vertex="1" parent="1">
          <mxGeometry x="939.9435484645585" y="-423.209791482955" width="1.7129473213713027" height="37.81139333303997" as="geometry" />
        </mxCell>
        <mxCell id="DAvXUuptx5vr7CyddjTH-31" value="" style="shape=stencil(lVfJctswDP0aXTEEwfWcpv+RmTi1pq6dcZwuf1+wCqcipIDmTQsesT0snOjh7fj0episebtdL98Pv+bn23GiL5O18/l4uM43fprocaKHl8v18O16eT8/L++vT0WyPP24/Cwn/F5w2YKzBWXNn+ULQqJ/H74u8qf5vJY3kLGVt4Dxc0DKkFoFRYNTASa3gARWAyTwpgGQhxhUgIkNwJEOiPV3BXgEZ1SApxaQIKIKoNak4AF1p8k3gIhgFZMy/xaAAKQ4nQlyG9aEQFYBBEgtNZKvud8FoDFgWhU56uzjMKUWwMlXVBT2CQ0Z0H8OiMyNIAFBMSmQzBwDsmKSi2Bbfq/isIsgJluWKpLiBMZq8grwccS+14BBhjVrCmrJr+RJ8cBIlzmRQZF3ENqewdzSYopcv0YCSCkfG8ALi3xtbPsWYTVgBQhKSLng0YwAIoGjEZMSu4gjTvN5snr0sDJrotCg541pkIQPOjF4/HzMgjuZl2xtWndSO2ymQ6d4vK1purs+AwSUKrS4cv3kTX1qTQYN4KYDaOPBbizS++RoIx6VJ2l/ZzQEWTyd2cPTdWi4IUIYGp+85YiW2hnQDHBtj+ysAAywbSl0lgzcsKizxjBgbFHCzbLXWcUKT9sO01n2NrteZ5vkvao9X99Wk9xImEVKryg5a1PAAVCswSR3KlPrbr8qvVypTG3h+1XjIAchj9qQcpCykNcal2cK2wF5pryR/mr2RCfLWPeXizxKf7V4ljVbymv54h1YtCGdD8OXo648P/y/ib3Mp9NykVv/lzc3/rTc+ujxLw==);lineShape=1;sketch=1;hachureGap=4;jiggle=2;curveFitting=1;fontFamily=Architects Daughter;fontSource=https%3A%2F%2Ffonts.googleapis.com%2Fcss%3Ffamily%3DArchitects%2BDaughter;fontSize=20;" vertex="1" parent="1">
          <mxGeometry x="940.1232443931854" y="-347.97001325431074" width="1.3535554641175622" height="31.147268851156696" as="geometry" />
        </mxCell>
        <mxCell id="DAvXUuptx5vr7CyddjTH-32" value="" style="shape=stencil(lVjZctswDPwavWJ4QuRzmv5HZuLUnrp2xnF6/H3BupIF0Fonb7KMFcHF4iCH+PC2fXrdDMG9nU/H75tfu+fzdohfhhB2h+3mtDvL0xAfh/jwcjxtvp2O74fny+/Xp2bZnn4cf7Yv/L7gPI2xgYL7c3lRKfC/F18v5vvdYWHO5EZlXijFdXPvqFj7DD7vEwXtDtOI7AtxNfY8rtuHSGNR9iMVD+yFjWroYbDfmKho/70nBxZIjqImyAdyCQDyRMgCgEKQXQfwVAGnORM7C4gBACoVS1IFQWAJgrbHIuKRot4BTyzftB/dFKPJPlPIwL4TRcTfZyvqQLkAe6EjaUIpA02USF7vV0IIJFGYQjH2zgH7Skn7nygC/2uhYPabKYMAC6AaQiULAKO1UtYMxTrVpTWAkdxV5iuFaOZkFlGAadCWyLpUZHIYkHTYSp6EtUaT0VFNsFgIwGua2ifQCpI5eg9X4m4DeFLyDGCqKBCZatAAqWhAfAJIGlAkcmjT2W6aK3mQzg2gV8iSsCB/BGBYkiLrkL4zFb1CvCMNttJofQetMFLQK0iOohomQvivnAUAFSUBmLYgVbiAKi/KMZ0qilju5KjOuCRaQtKQOmmSukw5uArQhX70U+zXAGzEJ80TSaOSM63NE+MUTXrTEko0kbS/tUuLUrUmJjNjyKIRbeImAPDaN5QxEAMx9R1LAlGBS31LbJEDNPU9V7q8Byz1TZ2xmPqpQeaOT44lGa7Qzz2c4LDdD1bSs1Ct7Ec39pOTHxwOWd6ADOrHTwGgwtQPuAJgII1+hJY9wJm+m9GFaAdc6g8BEgdUjW+cMuQcBFi6cYyZ++QHz0nikkfis+cwxv2hO+YJRwk5RFG3E1EeOvg4OwZIlNGZwU0D5KJHo7o6DxWzvYc6nYvDoqWjgtRNhzKAMigvvb1oDlTIzp92sIX+mP02hkEid3x6hiNMFy85RaJC0elBFIty7JPXCnfN5eF6g/Gy2+8vFyDL/+2Nh7y63JbEx78=);lineShape=1;sketch=1;hachureGap=4;jiggle=2;curveFitting=1;fontFamily=Architects Daughter;fontSource=https%3A%2F%2Ffonts.googleapis.com%2Fcss%3Ffamily%3DArchitects%2BDaughter;fontSize=20;" vertex="1" parent="1">
          <mxGeometry x="820.976404916091" y="-147.4430669031217" width="36.034502753100014" height="2.319973979081624" as="geometry" />
        </mxCell>
        <mxCell id="DAvXUuptx5vr7CyddjTH-33" value="" style="shape=stencil(lVjLctswDPwaXzHgmzyn6X9kJk7jqWtnnPT194XqoSyA0npysymsSAALYKldeHh/fXrb7zy/f1zO3/e/D88fr7vwZef94fS6vxw+5NcuPO7Cw8v5sv92Of88PV//vz1NltOvH+df0xv+XHGeXJhAnv9eF5hi/b/w9Wp+PJwW5omYlXmkyNvmzlOtyl5WEni/d5SdAsgKOwAoVIoGZMplGxAiVQ0IgXzcBkQ5sQZEJpdAjJhYOx1z33MdkClpp5On0LYBWaLUNKCQB1HKmZz2QV4RAKCw5UVOMA8lUPIaUCkAahRxOitAcZRAWEvrMZkBkULYBlRHLWmA7IkAkbzZoVIC1KhCNZ3pyuQzAFRqOkrVQy41tmytgRoIa5vrawYkioB8LZIzgEwN+NASJR0l8QqFtQn7ddMQrzygd2vUdD20Qhm1GWbbl1old2eLAVBAYxKAaUyygvgtj01cZaUgQKUcLaAB9gmANb8XcVhHlN7cF1tUlGuhwgBARSqAMUyMEpH7AFkk4g6bgq4I8QqGKfcaXgACqohsh9ZtZSusIVkA9KEMBM/9FVupTjwAUOIk6nk4EgaY/j3l3kNAHcIaMaA1C2h3atSEtfbWswUoemhNRYioISU8lBySJ3KAOuwAqVHJf7pGc7FbNEwmNziBFJAktgw16nFRxyERBdfoJwGBqmGfJ4+i5KiaIXSnHYuu1U5XUY6ArjLUDL9lLjIIq7zPlNykJxAg9fctxACSffI4G/Uwe7UOYNtcRdCgI5ViW19JkN/ymPWRRAgiehdvo5Rbz/26dK19as6A3AX5OiBS0eTLHvqQZ802q2msBVKy4jjFHob1K4SMdr2DrKBrVnRdFc4A1+8567eaYOk93XNA65NbUjAXLazX5WLIuuL8TMd1UeY61ebWJ1ITjKDQn85RpQKqQbKmk+DgvBqO72CT5H7buZmj0hz0pyQQBJNtETCsAbZSkuEs5y4NbubonsRWzzNMkxw1GXMGw8PZ6YTHn+saYmGOSGYvwnJ2aN7sYVA7/OTHkbvm8uP2HeblcDxeP+Msn9vvNrJ0/eYTHv8B);lineShape=1;sketch=1;hachureGap=4;jiggle=2;curveFitting=1;fontFamily=Architects Daughter;fontSource=https%3A%2F%2Ffonts.googleapis.com%2Fcss%3Ffamily%3DArchitects%2BDaughter;fontSize=20;" vertex="1" parent="1">
          <mxGeometry x="825.8358418272828" y="-131.16557350553853" width="47.6409138331901" height="47.23851379379494" as="geometry" />
        </mxCell>
        <mxCell id="DAvXUuptx5vr7CyddjTH-34" value="" style="shape=stencil(nVjbUhsxDP2avGp8le1nSv+DGULJlBImhF7+vnJT00hLjrN922R11rofyZt48/p497LdBPd6POy/bn/s7o+Pm/hpE8Lu+XF72B3laRNvN/HmYX/Yfjns357vT79f7rpkf/q2/96/8POEq56C66jgfp3+8eTinz8+n+Sfds/n8s7KF2J3Wb40SlV/P1IuAFCpZQ0oVBIE/P3eAIRAzBAQmgbICR4CnAbEQLkBQLE2xEIJealQTQqQPLZBNNZGp0y5YoDXgEYBubVR1irlQBGcIJlkbMiZPPBSjdR0amRxAzC6MjlWAHYUEUAibQABeqk58tpLnKgAG5oYrSPNTBUBIkWdSywJD+LQko1DkQoFBdQycdSASB6dwJS00SVTQF4qFAygUMwQUIxK0haQlyrFoACSXRlEWgBVu1WyC/Wl1sjrAqp5KHkJkHWka8Gp0ajoTlkbjrS81ja0QA7Y4J0b798R4jh0RBklfAaoIJlE5WpOaDDUvVeyBZRwGcBSEMUCkJtSse37zA8fIqIfyXZ2RAUJLoxjSkgAjBiC/MLogCJnk0/CUIC8syaLvAflkIh1+UjgGfhUONnkaq9xoFDgQYDvAIaJJHzWggUgk7NY6NYApMuluEYloZPo1xgtndVWD3ZrT31zAo5br8ZoAcho6RCGdCeZV8NgzCtTW+gpLzoAKh4ZE3hlffLQ4MoWIPXTFvWJmox3YxK5so2FhUa4T65txP8hb/TB1CBz0SrucZRWkZuzeTphT2/nqgk9y/SrK23C/4GCbqiTASMM666cYKJtd5MRKVlSm8xgmZKuysmQt6iYyRQpbWfdmGrHqckc7P3Y0a6ctIVxmgHgWd7L8K8JZLIt+GpJebKP9CIwALzx9KzTXprsVB2gy2aytQnA2DDZCwXgVm2evZXqTJrstgIwnDbZngVgeHmyn/cbiFU3ABK4rFNjcsfgF1MtvsSQVKprLkn8YvR3VHCYTbtwY9m4NH1xMvKIPeKiPQofAn1itcXpxlT/cbfjkfZn8mi2k3GTV8jzezO8Th9e7JvYXmnO0eqD/FkW+wGOV13QMc6H1ZdyU3l5+HcD+LB7ejpdIJ6/tzeG8tfptjHe/gY=);lineShape=1;sketch=1;hachureGap=4;jiggle=2;curveFitting=1;fontFamily=Architects Daughter;fontSource=https%3A%2F%2Ffonts.googleapis.com%2Fcss%3Ffamily%3DArchitects%2BDaughter;fontSize=20;" vertex="1" parent="1">
          <mxGeometry x="767.8930606194756" y="-123.16188636379093" width="1.8139230115370992" height="54.59226479681547" as="geometry" />
        </mxCell>
        <mxCell id="DAvXUuptx5vr7CyddjTH-35" value="" style="shape=stencil(lVjbcloxDPwaXjW25Iv8nKb/kZmQwpRChqS3v69OGRMswzJ5Oxx2bVlaXXxW8vC2eXpdrzi8vR8P39e/t8/vm5V8WTFv95v1cftuTyt5XMnDy+G4/nY8/Nw/n36/Pi3I5enH4deywp8TrzVKaWFx+Ht6IxT0/4uvJ/xuu7/EJ+I44CsxwKtSHtePTBEREiUdCZlKuU2ojbIMBA7EiCBU80goFOttQqneJGEqiBApjk4SpZZuE7Idug2ElCnF24SkJOOhc6QigMDE46GzwkBLoRQGQkkkwCQJ1OpIaNRAHBavjybVRKUBQqQ6aslij7QU1e+g0uV7nZB94LR0sVwnMMnoJW3dDdfzpwun4xvDuFWfPpaADRlE2a3foPJiV/4520KgEG4TAlX1GyiIcqAkHp+BQcEbZPgAHGrWuvWt4kD7wxjhVkmBhswe9ngGIg0ko+SaKQjivSAs8RgFLEzrM8SnGQ8EF0llsgfg2aeY4RX43xKmen8KsJ997TV8Ayls+DLpAa7vEnjRGypCFJLHZ6B/q1nT+gr0HL099xOyTRs0ELAwVZQGm1nwjcPwDBM4TAGoOCGDx6MAhF4OLgSRYAKzs6fAimj+mQSNBGT+Z49n6M/P4Uufry46RgAdQL39S0dCBcJawCgIrVjR0tv6mZB6kblOqL5Ga4A1dymK4zhUrYgCH7H17XGHynAGtD7cxjZQ8KEl9yp1JkSYZsncOnopZ5gHqfpApwaHlSy+1NmQhwauMqXOMuSBOJRpBrQhD+V+Zd/N7DpRwRmqqXWMg4kFEWyAy64+2oUFyFvnCQrOB036Cc9e7bP5dbz6C5RNDBhf1OFROhu+iccj+1vf/gIPQrZcAP36aKZeuoU/b8L2aHR4lAYf8+o5wND+i/b4QUADy1WCAgXNFlltuXNidviMImwedfdRUoz/3JX9Lt4ePr4PvGx3u9Pnhcv//fcEe3X6FiGP/wA=);lineShape=1;sketch=1;hachureGap=4;jiggle=2;curveFitting=1;fontFamily=Architects Daughter;fontSource=https%3A%2F%2Ffonts.googleapis.com%2Fcss%3Ffamily%3DArchitects%2BDaughter;fontSize=20;" vertex="1" parent="1">
          <mxGeometry x="680.398024420575" y="-121.56602225050074" width="52.964341314853755" height="34.646289131589356" as="geometry" />
        </mxCell>
        <mxCell id="DAvXUuptx5vr7CyddjTH-36" value="" style="shape=stencil(lVjLctswDPwaXTF8gzyn6X9kJk7tqRtnHPf19wWroWMS0ka+yTJXILDAAuTkH973T2+7yZn3y/n0fff78HzZT/7L5Nzhdb87Hy7yNPnHyT+8nM67b+fTz9fn+ffbU11Zn36cftUv/JlxhalwRTnzd36TM+Xw/83XGXA8vN4CHHEaASauAzIT2x7AlBMABDKmBxQqbh3AhWwaAQy2xGLBjT4gCylT5NGH6AHAkw8jwAALMZMtPSBRBj5ET0YD7DogiA9O8QCYDoEsj2FFTAdDoXe6GMp5HeATce+DZFc0ACBhjT1AqAQWXKHse0AkD3hwicJgIbW4LQM82T6sUlIJ+GALpcFCJg9yySZyQ5RK434Z4CibERBBxTlKvQvWmFaDyxaI8+izBzRYMj0LkkkZfN+MJLBoDHDAjLVQ64/h+j5AgVuMV9bb3l9vKcD1Y0AlJxDF5PpK46ZoK3yZXu9sq9SV5aUXYAOd9cQ9WaF5s1z1FPrlVj4AuA1UepGQkotgO5FcH8tgoVbL+t7bKq337Id982ibv6K7HuiuCmdVICRZI1tSvAy+r5JB5CTfk2uiuagNqFzOjjysxaFWavOEtT7UYhQ5grU11Lp0kQTio7REIlBgfAatsqa15m1a6OB2lNZipb1zuZb+a0/e2FtMS7+NzctSQtKjuqOjgNxV7VeK8a7+LmKFJg41QEQoJnpCYZjMCyNQC8DGGUuyraAZS01xQjnqFXpOFH1G+awn0QoAW9KzrmypABL0NC2AALJIz+vWwrFPnwgkrA4dUtSZQwDIgj7VVB7uOjeJD4hpfTITAGJadD+kcUuo0ZfroecKiFC7pBP5vtqqXAAtLUoupH4KilJpB4YbdXdIrY2e5fCEv4CIWDT0piTlGeSrdpsdnF91YCWDDbKgqJMM9pjrITk+Mnhj+n12MfA5QB4+7iFeDsfjfI1x+/94byGv5jsP//gP);lineShape=1;sketch=1;hachureGap=4;jiggle=2;curveFitting=1;fontFamily=Architects Daughter;fontSource=https%3A%2F%2Ffonts.googleapis.com%2Fcss%3Ffamily%3DArchitects%2BDaughter;fontSize=20;" vertex="1" parent="1">
          <mxGeometry x="689.5773199212708" y="-144.27994164530355" width="33.50123410623428" height="1.7599565327946038" as="geometry" />
        </mxCell>
        <mxCell id="DAvXUuptx5vr7CyddjTH-37" value="Has" style="shape=rhombus;perimeter=rhombusPerimeter;whiteSpace=wrap;html=1;align=center;sketch=1;hachureGap=4;jiggle=2;curveFitting=1;fontFamily=Architects Daughter;fontSource=https%3A%2F%2Ffonts.googleapis.com%2Fcss%3Ffamily%3DArchitects%2BDaughter;fontSize=20;" vertex="1" parent="1">
          <mxGeometry x="766" y="-317" width="85" height="60" as="geometry" />
        </mxCell>
        <mxCell id="DAvXUuptx5vr7CyddjTH-38" value="" style="shape=stencil(lVnbctw2DP2afcWQBEmQz2n6H5mJU3vq2hnHvf19oW6oFY+0R8nbWj6QQFwOLrzoh2+Pn74+XFL49v72+vvD30+f3x8v+sslpaeXx4e3p3f/ddGPF/3w5fXt4be31z9fPl///vppQS6//nj9a3nDP1e5ICEsQin8e33Qu+T8/5Nfr/jnp5cJH3XGV4mJ4RPgk5gxvII+/gaOLxO+mUSqv/YZr1Kp/jlNeOsn+n+33oqvw8L38LP+lk7Om+uEr01KuY+PorP+NUvT+/gkZda/xuHBQ7xKn99fbDw5xBex2f4lU3uatPm8JUon+kQP6Fmh3CV1IpAwQnOVziya0cXZTUpcHCvaNCfplQi4S+EMcaTFsdOC9PkL6lFKvuBuC3PYaZMciUCRYLOA5xmxUmo7gSKdnEEjZqZmqcRx/u8GX9Bht2MBQ67QJEqs5EasIODJQKzkbmpzLOnKl8cCOkJtCKQugRzaYzPM+XAz9LFAkzhbyVMqkEOXMNJlFahcwIMZvuDBQqxUirQ4C+SRtMcCDf1wi99Dger50GaBRM9QVRKYNdAUrUXK7OnYpZG6U6vYrJJn+fcnxwImNh86Gs0HLwRxZg0nnspUalhro5+KpOgiMHvauVDZGVZSWQXc0MTTiwCcIdF8cAEgAS8Ajank7c3sB2dKopGFQXNrwyCV2MjxbU4fo/2Ul/sCBZ1SjGUpUEBpsplhZOuoqIf4ZkgwQQp5f2tIqrxf6zt7BurgvrZDGzzRp2f07wm+ov0D7Wd7k4TvZ6V5aadR/8Jqf9h15B5RhOv8Aw1ShhZmPwD0CnHk3DHesOOMlFX6nhlHy3eM11GDb3h63ogFLdLuq3WJHfUnAeoJUNGemSXMSrIb+5PzOn6XMI3jDQOIEVDbdcweoMRfbp8SAc8GKLc/dLOBFm/3r+0SniVMQQINtMHx+DQ8LxtYPF8i6p/Z+/toW2944/nYMZ5Zr+J4rMKiXH+NP4MPiHeGJPhmu4mO8oPHJ4wSlRJcy0i4NiraMV4xnhsdbRwfZ3znBS+N+XnTQXRGEAkrmPcokWVk2jVmSkO0re/b9FmZfyFATJSRpccCu0HFe0VjKq1BtulGO+sLAvYd3iCzPLY2FNi04Iy4rOLqZGFqkmneOoU5830qqOTQFocCm7mDWWmZCkClIpVYqaaxzNgMW4VYySebCrOTUQGfnXCyaVygjP55M5JSAcUOR3mF8gmzw6Qfx4B3b4bdD+6NcFIuY8rY7BJYV+eDO2xctNBBRQ0dp5WOQq4AhLe/gtUd3dGMeoawFU3HfMheOdmqbw21zZqJzX8pI5FlpWZdWr85lnIe3edx9+uhBgJGWcNZCLZGuVOqdGJMc06XRK3kXB1nlUqmDWrcUeWyEmUdBu5PlpUrCaWGDc+y0iUVblfQT1bGu9A+WUkb7rBOVt6G5z1ZqRvSxcnKvg1/rnh+JeB42AjwEbZhYp5caTgDA55fmbRBJCueX8nsGL5zwjZsaB1v1F8Qz8vIyYoa0sqthb5zJVB352X5koe2t4aNjxQ69mY/KpAG0f6gRhEXmicnjtgyn1g07HZW3GMBefokIn7+EvAM7z9uN45fnp6frxeW2//jDaU/ut5u6sf/AA==);lineShape=1;sketch=1;hachureGap=4;jiggle=2;curveFitting=1;fontFamily=Architects Daughter;fontSource=https%3A%2F%2Ffonts.googleapis.com%2Fcss%3Ffamily%3DArchitects%2BDaughter;fontSize=20;" vertex="1" parent="1">
          <mxGeometry x="792.2339874658071" y="-261.1478422687335" width="13.502207244235024" height="99.90976525361816" as="geometry" />
        </mxCell>
        <mxCell id="DAvXUuptx5vr7CyddjTH-39" value="" style="shape=stencil(7VlJchw5DHxNXxEgAW5nL/9whOVRx2gkhyzP8vsBp4PlJliVPX3zwbdWCVkklgSSrJO8+/b46evDKfK3t9eX3x/+On9+ezzJ+1OM5+fHh9fzm/06yYeTvPvy8vrw2+vL9+fPl7+/fuqW/dcfL3/2N/x9wTGF2kGR/7k8aJWK/Pfk48X+6fx8ZR8pymyfSYB9oZhneyZJx/ZB/QI1kgQAaFTmFUoePu17kP0KuRGDLYlQ4hkQSNoxQJlKmQBJqIIgaaE8AzQPr3YB/X1pBtiaYEupkcQJIIkyCGtW4tlpCRQUAMyHNgEs9wnkoTA1B1C4pSI+rFaNjABLpq1YMohSqd6HYF7FY0BdfAgJA4TinLiwebUPSCSz08EoiFYopGEGMFUGgDYIvFEUEq4F4tm+UEP2cWR1ow8pqItmlTe3JKUGItQSpTmkxldQqNawyryfOEK8b7+VwBZQyH5roFkne4YJ6/bB2wPu9wZdnH3A72/Z2TNoRq1RWOxB/Zi93Pl+ly/bP6ofa/DRxwflt/neyKQoPo2at89g/4HZt0YjGEjYDsBaKY6o25FV3A2Ps7NPYKD1iLq+CGe+VZDMFX2DYcV3FB2UO2Ikz10044pTX9EFM2aZlhXHJ1KZ/d1K6qgjOgaHgEuavaKwpo5UlPXo4OaMkAKXbWyk2QUbTBXkzABxBYA2XXUpUgMApw1Q2APgrNQlSglqRwPIMo0Zr+CHqw4ldgTQ5AEwcboMD4Xd0QB1EQgV+ZCGLLtWFGjeJ1K5E+AacN8SynRaSuOG03lMsOuwIqdN2bEHZMSHvBDoRmlkr0JuFZ9V/31SMI0xc00gnAe5j6JpnGv+bxNQLy26D0DrdIpmD1BMUY0egI4VuxRFJ52dFewJXiEt1YoE1U6U5GYeVooiPtwNqBScDwGO3C76HYEYnjj7sX0u7zZSfzQTdeZPxRomUprfXyA/baa7ppRgEzPNUP2pAqr+7FMgFJBGKkPS/dBU8FT0S/X/Uv0/t+pvi4SEjbdVn2GT0Wg/xc8OGQfnI0a68aejRA4ZPzNmG+lHHUVmRhZ4HdVV//z+hkWO5dfFH5doLePe46qpN6zhfQUJLKEqPkQ2+lBR1+DvNkKmjC75lsulUPEVXB5tc6sihmkuOg5CG0BG694HhKEUN0CCoj9XP/pivXV36q4RJVJAK/C4x9wAGXIhqeemBnhK0MUHLXDe2/vc4cvWRHfYov4AmSMp6Hd9wM8rFIaJs0JwTpcCb/rDIqOs4AUpbH8P0XALFn9G6Dcf6OMGsfsYYj0ZOMCez73nA/LwOJZd2aOrU/ZMuBpaB4C0LgA35MR7twcBZV9D3WFoH2QJKKAB+wNRwyp24WWXPdBfV9JmH0GnYH+VbvaIArwUaB0d/Cg+d33du21vP358Svxyfnq6fIm8/r//9GiPLp8t5cO/);lineShape=1;sketch=1;hachureGap=4;jiggle=2;curveFitting=1;fontFamily=Architects Daughter;fontSource=https%3A%2F%2Ffonts.googleapis.com%2Fcss%3Ffamily%3DArchitects%2BDaughter;fontSize=20;" vertex="1" parent="1">
          <mxGeometry x="820.2350227415802" y="-381.2524473292108" width="90.66192504138394" height="76.0174622303673" as="geometry" />
        </mxCell>
        <mxCell id="DAvXUuptx5vr7CyddjTH-40" value="" style="shape=stencil(lVjZThtBEPwav7Z67plnQv4DCQhWCERArr9PTayx6V67UN7M0rUzfVftLl29Ptx8v9tFfX17ef5692t/+/awS592Me6fHu5e9m/4tUvXu3R1//xy9+Xl+cfT7eHv7zfTcv769vxzvuH3AaeS+gRF/XN4MLrE8O/J54P94/7pnX2W1qx9lt4v2wccoBaAJ5kAssRhAL3KYIAuI1hAEiVXgg+aDKB1qY0Ahg9SSzL0MiDl9b4FqENyJYAhwUapFinkhJwkWKdrFGWAKsmGtYwVhvOAjdMFryBRKrhAtoAkvRBAlmR9KEHKIIAq2SYOl6zsBNRysYC2iuU8YEi3UZpxI1GqQbLNdM70BKSpVwtIUiIBoFqjBUSJ7EpFgnM60EzXKsVmGuWoJKy1i9rEpUrzMKvfnZDXJc8CWpBow5qCVOIDGjLa4kPTKpkarUi2PsQqjRRfa5JsHjBHOum4Nvwgi1EGOaGHVWpHAE9c3wwBzMJKxkxH1G2UArxiANSSzUMoMhig+jxgnmcyNXqT4nxIq7rOA/oqhCMgSCNRwr5xJwza0iP6Scn3Dxagm92oC9LQo0mw71ep7P3Nt6dKJCnAAtfq7FknwH7zfpaAgcZqzj6w+4y1yU72mbQB7Htw9oPMCtgPe/9AV+fWPlK6MO/jGp/na/h6S6tALsZzOPvM6rOvJXmyZ1tz1kP39ixfTao6+8Ti3xZhPMVnsHge2+lkn7m9i3+gG3ba+3qg/d58/JXOddjn7OwZL4L98PVP66FL9vaM2Y0N/9Xl0KV6S75/2Q6AfYvOvvF+cfkNi+ddUAhH/06A/sGAcIuVkmvYu40R6Q77b3tQdRvQvjTPefskzQ5oiKTMKhrxcBGNVHRh5TUbIWxhNqPnUrWcMXBG1zdLCdQjEqdBDLK70qBrG1yluLEL3kv2KthQtmHF4KokSj16/TE3N3NaPSudnJFcCbrS8d5ZGozGVt+bSRcbOQ/IXn+kSLdHw/Jy2ynT6m7q12VqNNOT7Nv2gZxgC7M2aY5AxUVhLimcYvsBoiuQPEBDRVtLudCwQqU5AQ8d2JgPwZOi3CmLgtJMTqUNSpRL82GFWg7shOLlBBQ6+2oBue6UJl4RmB7XzQmN9jTUt3O66lp25wF5CdEjINHEZfXkF+q2k7Cm4tkOCp4C1PsAKRnJlTBUhvugpZRwYjB2e8KchSSs0GTROo15zqIUNvL6tGLOZ1qak1CVrtzgYzR3NvuG52XmJBFkEusaWacNykmSblfuR4Cy8YCpQPWDe3pMcqaeNE/WQcpOvcgcfFyo72XYRxpR3byfzS/131BBQxkr3N6/UxWifmLDnrHU//2O/bE9fpw+mt/vHx8P39zf/99/ZMejwwf6dP0X);lineShape=1;sketch=1;hachureGap=4;jiggle=2;curveFitting=1;fontFamily=Architects Daughter;fontSource=https%3A%2F%2Ffonts.googleapis.com%2Fcss%3Ffamily%3DArchitects%2BDaughter;fontSize=20;" vertex="1" parent="1">
          <mxGeometry x="828.2340094433225" y="-360.4120787973975" width="65.24476139169315" height="57.57456853548979" as="geometry" />
        </mxCell>
        <mxCell id="DAvXUuptx5vr7CyddjTH-41" value="" style="shape=stencil(nVnZcls3DP0avWK4gctzlv/ITJxaU9fOOE7a/n1xq+H15aF0qMmbLQEiAB4cLDzFDz8ev3x/OAX34+315c+Hv89f3x5P8eMphPPz48Pr+c3+OsVPp/jh28vrwx+vLz+fv17+//5lk9z++uvl1/YL/1z0nDi3KQX37+UDTdLS/598vsg/nZ8Hea+DfKpSCpWvo3yUkJm8y4N8bJIalR/tjyreMfkURnknSuzx4kZ/QxZXmXxJo7yXRuITJJVB3lf6+xY9P8onCUTevh3t8Y7GU6WM8Sziwm3x3dg9nFKJtz5IboP8fn/X5Zs0B/LFk2hGcQnsycR8cxfCU6g99nUIGM5CwmkBqiN+vIojETI4+jFCFoNAEjJ6RPTmM1MIPWF3hSKRQS6JG02yMxnmLAUj3IJyUGfR0aRocYtEoYkf0yDZTZKLS6GjflewnyD3kLK0EdkaxBGT7OsQUYFhVStSo3qJ5IScuosH7k1MoUga78G8cgStxfWoH9maKRjUoBy4HobrClnSeHHvd39doUoGaASpJKzVEnIMq+VgISbVKH4sOUaakZ1g8Iaa4KgPtYpCTqsoMakFacDyscPxukKdaL5QaDSrquC05bRSBWDirVQQavVuLs2u88LNI0b0GW0oSWpTqIBvJ5mFqUkZvTbaqFwhTznKMmhTGG9Os0TuA2Aje5pym8KYEDlT6tsURqeLpyVoNqko7Rk2p6GKNoqNTWE0qaZVWMsY1pZXN61jVWyld2a3Mgj43j7JzCSj79HpLadYyhUsoxt+mQ/aO/H3ZoO3Sy11ajwcwbrzZu1aQIVAuM8UXMEwRRamgNiwOCwUFC7CMoiByeoBxFVpe2I+KJiUuEkJydJ+goJJMeVMgZ6QJ3wvFMp00wuT9iJ4r9OtN4X3hrVhb7+6OFMAkxbQaNgArcBn/dFYqVfwLtNNLxIo95bt7hxVbPtWNJDER1SgRLP3bPdSmTWqihdBwRQmfC/o+DcUoI6uKsTEM6saFLC0r6pcwBxd1dGAs/SqUk8mrXqBgO33qtuYyHXVz4TegR06psZPiDBoudU9hGlYVA4NWMlE3n43j07bhOxZAk18/76WunUCjtR8D1KnfmbbLBCnqxETLFp876FuDSkBopTpwFsneNvFKSEBy68M0EjSyE2X3YDj7pApBJxflS/TcsW+Uq0jImi1kVphaN83PNcVHDptY3xma4GM8NZGVxvmIkzImY9NqfS9xPEEMsola5gy+qCEBAw5UNktrJGcEGNfit252jAw4+Kh0r3jNkpO4FOiEBp23wZvtui2hKyweODQCBkrkIWBFZQwrcnMSFZ2wxTWwKkyGHsDzfieUtcVPHZYvlB4b9vqab9MN8D71mCHd8+oWxtjhd6kz/A31g6dR4+7FsbdyDG+0RJa+0L5QPVst1lwR2EON2JPwW1U9LRpyNgCLB5AMg73iweWjIVn8YCTEXKLB6LJ/sUDVEY8qNJO0vh3TOOtRSL2KA5WJt/ogwk8yOheqq+zL8bH5OmqG+c2I2vHnkBwibaUhwe9hT1+qsncX4f4X8TT4di5uC/X0X4nHq4+eBJ/1w+k9sf76+q389PT5XH2+D2+xtpHl5fc+Ok/);lineShape=1;sketch=1;hachureGap=4;jiggle=2;curveFitting=1;fontFamily=Architects Daughter;fontSource=https%3A%2F%2Ffonts.googleapis.com%2Fcss%3Ffamily%3DArchitects%2BDaughter;fontSize=20;" vertex="1" parent="1">
          <mxGeometry x="808.7684255337228" y="-194.95838017813935" width="24.997654302707588" height="26.86514000629336" as="geometry" />
        </mxCell>
        <mxCell id="DAvXUuptx5vr7CyddjTH-42" value="" style="shape=stencil(7VrLchw3DPyavbL4fpwd5z9cZTlSRZFcspLYf59mtjgaNmd7olsOvq206OEDQKOB2Uv48O3+09e7i7ffXl+ef7/7++Hz6/0l/HLx/uHp/u7l4RWfLuHjJXz48vxy99vL859Pn69/f/3ULfunP57/6k/4fsV500oHefvj+o9WTHX//ufXq/3jw9POPhhP9tbEJO3DZF+TyeG2PfbjZntnbFT2cd5PySY2ZW/TbO9Mqrftncl5ss/ZhKzsXZztnSn+tr0dqw/7VOT+rfHz/lMwST7f2tke/hL3aU2Y/RWTKUXZ0/3A3sr9kH9jNFHYOxNm/8Zgqrh/+DewfbTKvka2tzKeC513e8KhfTQlsL26T9y2XZ4v9pNNdsv+RTwjuhZ7lb91ZN/Ovgl/1RG9e/+K/VRTaD+IHxH/dbmfJPPL+UE3uwRwwgEO/DSfICXjVcTZEfAboElKgY/DvELeWOw45hwnTY4miaAOxWTLgCBYNzpOA2wpi7CAV9t6aOG3mPnQCamhEiebRszo9BmqcTMgFknVsZk2c2nPNXEGbKDNyR+qDFYc0c1+CF5W15SNn6+1J6w4dKrM12DMKmIpg7BnQnXwjNhSDryCQ0VWK6RBuFssScbLi6PD4LRjBgtc0rYad2zfRq68Pd+K50NwuDnbkmnCBbCvs8+woAjs6jkowFFNA0hDdZeJE3fAfKOuybADIFDYhRGINwEUdnkUxpuAOdeCHen6XwFBEn0HUHKWocVuAogvIMZObokAcaiNmwAqhkWKLwAycZ7V1TNwLHU5qM6Ar+dbAuUkdYbEBRqVwSlAHdmyAeAHUUpa4y1VKxMUgNYYoDK0A6gJcZLoASDHwTNFAerw6wYI8lrRZbmZhmuUfU5b/ACAkiUtcikBQAmftgnN3RmKCL6GzmYBqNAAgMR5Zyp1rXZUjp3jgrolexAaQa3guBz2cqHO4Idq2QBVNiTwg20MUCQAT1NLWKoUPoglu2xJ9YSI1hD50KqE9nzwDCgnGWfZD6qoO7s0qnB1UuHaTKb49lIU49SVVghS+eBeeYUwjnUMgHpbc1Q5Ih4ltYqNMPJlvyUF8KMb3B9aXatbaMPLbubdAERCogLRpOPK0vNBMhalEDOzAERsVitsPeQGsFJ2l7gU6iLHBgDQ3AyFugnagMqlng9SQJUgAIjJTsRGB7xLzhysoAVTB8x+OJFkAJCnT0TfAUDLyg6Yr/WkOzkABJmiK6CLbxUayy25LGtWB8x116Hu6lhKtCWrh0SB+T4Zp9zgFvkjIwkJT606WiCve0Qau7kilUOOTPbeywYFDEGCrI+yxJnzVp52saqEACjFEqDJM6C3p/qDBFX6ChxEPVOsY9x3a9wQlxmLmu4BQAouJTk+xNeBGpQme9cUltGVH/3BMcAOKb8BkgTEbaKya1AUs0YkPG2pSX3VA4EUHNSPeolReSoLgEo4cBCNWXOV4Q1KIR2Q9VSzz00XPzSlpDnhEO9KaJRxhbsKqmr01u3sQrWIyFvmvn0+KF+s/HyR8fNFxt7+//UioyxqTdfYwqSVtPAvi0AtMl8KixAUxJP7n5+Pmq4oro7XCRslnrT+nC/oAuR8hPOxWj0T4v2cvMiG/Xw/Jy/KG+fvyYv4xnOIt67+hn1MbF/VHI+n8mi4lUSrPH7tDbqMT+Jn2MsXFzxl340MbhAQNYHnANfesyPwwbtOHBYP6xsNHKEnHgucYScR8d6ffpzb48Pb70y+PDw+Xn+msv+ef5eCf11/0xI+/gM=);lineShape=1;sketch=1;hachureGap=4;jiggle=2;curveFitting=1;fontFamily=Architects Daughter;fontSource=https%3A%2F%2Ffonts.googleapis.com%2Fcss%3Ffamily%3DArchitects%2BDaughter;fontSize=20;" vertex="1" parent="1">
          <mxGeometry x="847.4398873038378" y="-392.50133832975825" width="21.223663437730693" height="33.02534718124025" as="geometry" />
        </mxCell>
        <mxCell id="DAvXUuptx5vr7CyddjTH-43" value="" style="shape=stencil(lVjLUhwxDPyavapsy88zIf9BFUvYCmGphbz+PppsyYzlmaa4gdc9tqV2q+UD37w+3r0cD8G9vl3O34+/T/dvjwf+cgjh9Px4vJze5K8D3x745uF8OX67nH8+31//f7lbZi5//Tj/Wr7w54qL5MsCCu7vdcBRcf8Hvl6nP52eV9MLLT+tpieKfn+6d5TyMF9GPAIwuTQCmBICZAoGUIgLADQq45aCJ+Z9QGDKPAIS5QwAhaoBNMptH8CeqhsALIdOACAbGA/NkhgQJW4Ux7xFyUzdB8RArY0AnIeYyccRkCE1YqU65iE28mBLyVMYoyQjKA+JLbdlpEUASMrNDkiaym1AIWdWKEqWbYAcegxrksyALWVJ0wjIXq/gNiAo+ztAUokA0V4gGcmAfLnq9zqgKH+3NcNTMgC5DyDTRbZUB8DyCbClInkYb1zBbC2N6rilkigA1aiB8ki+ZU1whpqIRy6VTvhtQLG6VD05ENbaqI1Rkk2iPDSv7O+ACMW+sU1czUrHbUC0d7pWKAItWS41p2tuA7I9dAsa6G1As4duFSZuARQLyChKQmazQoM1Tr5nz9AoAdVYdpwtoALVWKLULKChxInOlQmAoiSZ9hZQ0Ao85UGUD9wHATBbgEPU4ClKFYqAALwBFHxotiIggISoEYmnFSA1RDVMlDJVoHzyc5wABQGKKul6BUy+NJ3BocQ14mQBEa3Q9IjrPEBX6VQZV6n+YInSLABZAQGEiX0RpboST1fug0RYbsiVQ3EVpzumehWHPTb5ZJeooMoJX43FWpQJ3+o0AZCJW+6ct4lAXuDzADfpBmsY9upoMNrnNdLbgKpM6FWuwSonpd2QSUZQQyDmoZk6mqH21ckxyQgqi2IV3BhWGYloBTcBHGVksYqVgcUAgbCWaJuagoWmdPu/MnEeAPJUeMUmIteXs1qFlRFlZKZZC/nK6kZkpj35kUsZU0M6CNON5gT9fcpWXcXfewRItpOTDiKgxox1xx3gKKIzBNWI3gVVaEST0/vVARm6DWkuDTWSWF1w6ChUGw8tm0T2JCZ7H2I3jnsdtSm8siaSGZ58ZYxaY7YB2Xaj0cOaxcFWFK6woIRqm0uO+O0kWqlkSSWIUhCZGbkUstbJvfcfbwBBm8FtQFDZ6mW0QkDTG9/n4/vT/dfqyaugtxkr3Qla9SlAUqzwdGemI011tpF22ijvTDfBd9AuONXC9+kMhMXZJt3BRy4JRDbTHdiMt3nqFW6bmRtfR1eFin1XdeiyW4fgVIR3phtpcJAEbO2EJAI9/n3uTfjD6fLH+/Pzw+np6fp6vf7dPlfL0PWpm2//AQ==);lineShape=1;sketch=1;hachureGap=4;jiggle=2;curveFitting=1;fontFamily=Architects Daughter;fontSource=https%3A%2F%2Ffonts.googleapis.com%2Fcss%3Ffamily%3DArchitects%2BDaughter;fontSize=20;" vertex="1" parent="1">
          <mxGeometry x="776.2349807736255" y="-370.36494771939465" width="26.54034680158884" height="56.71258460324043" as="geometry" />
        </mxCell>
        <mxCell id="DAvXUuptx5vr7CyddjTH-44" value="Dosage" style="ellipse;whiteSpace=wrap;html=1;align=center;sketch=1;hachureGap=4;jiggle=2;curveFitting=1;fontFamily=Architects Daughter;fontSource=https%3A%2F%2Ffonts.googleapis.com%2Fcss%3Ffamily%3DArchitects%2BDaughter;fontSize=20;" vertex="1" parent="1">
          <mxGeometry x="716" y="-410" width="100" height="40" as="geometry" />
        </mxCell>
        <mxCell id="DAvXUuptx5vr7CyddjTH-45" value="TelNo" style="ellipse;shape=doubleEllipse;margin=3;whiteSpace=wrap;html=1;align=center;sketch=1;hachureGap=4;jiggle=2;curveFitting=1;fontFamily=Architects Daughter;fontSource=https%3A%2F%2Ffonts.googleapis.com%2Fcss%3Ffamily%3DArchitects%2BDaughter;fontSize=20;" vertex="1" parent="1">
          <mxGeometry x="359" y="-359.48" width="73" height="40" as="geometry" />
        </mxCell>
        <mxCell id="DAvXUuptx5vr7CyddjTH-46" value="ID" style="ellipse;whiteSpace=wrap;html=1;align=center;fontStyle=4;sketch=1;hachureGap=4;jiggle=2;curveFitting=1;fontFamily=Architects Daughter;fontSource=https%3A%2F%2Ffonts.googleapis.com%2Fcss%3Ffamily%3DArchitects%2BDaughter;fontSize=20;" vertex="1" parent="1">
          <mxGeometry x="369.5" y="-289" width="52" height="40" as="geometry" />
        </mxCell>
        <mxCell id="DAvXUuptx5vr7CyddjTH-47" value="Specialization" style="ellipse;whiteSpace=wrap;html=1;align=center;sketch=1;hachureGap=4;jiggle=2;curveFitting=1;fontFamily=Architects Daughter;fontSource=https%3A%2F%2Ffonts.googleapis.com%2Fcss%3Ffamily%3DArchitects%2BDaughter;fontSize=20;" vertex="1" parent="1">
          <mxGeometry x="373.81" y="-219.01" width="152" height="49" as="geometry" />
        </mxCell>
        <mxCell id="DAvXUuptx5vr7CyddjTH-48" value="Name" style="ellipse;whiteSpace=wrap;html=1;align=center;sketch=1;hachureGap=4;jiggle=2;curveFitting=1;fontFamily=Architects Daughter;fontSource=https%3A%2F%2Ffonts.googleapis.com%2Fcss%3Ffamily%3DArchitects%2BDaughter;fontSize=20;" vertex="1" parent="1">
          <mxGeometry x="532" y="-230" width="63" height="40" as="geometry" />
        </mxCell>
        <mxCell id="DAvXUuptx5vr7CyddjTH-49" value="Address" style="ellipse;whiteSpace=wrap;html=1;align=center;sketch=1;hachureGap=4;jiggle=2;curveFitting=1;fontFamily=Architects Daughter;fontSource=https%3A%2F%2Ffonts.googleapis.com%2Fcss%3Ffamily%3DArchitects%2BDaughter;fontSize=20;" vertex="1" parent="1">
          <mxGeometry x="550.93" y="-286" width="89" height="40" as="geometry" />
        </mxCell>
        <mxCell id="DAvXUuptx5vr7CyddjTH-50" value="" style="shape=stencil(lVjZctswDPwavWJIghee0/Q/MhOn9tSNM47T4+8L1UNZhMzt5M2WscKx4AL0xA/v+6e33RTc++V8+r77dXi+7Cf+MoVweN3vzoeLfpr4ceKHl9N59+18+nh9vn5/e5ot508/Tj/nN/y+4iLVMoOC+3N94Mm5fw++Xs2Ph9eVuRD7zrxQSWNzHymY1ydyEQD0fdIDhMSPASGQSx0gZHIZADKJ6wAcKIGUeeOBhTLwwKUF0AAxwyrFQL5POoVGy32A5hB7QCUGHpKn1POWmRjkkDKFPodcyQPisqPa51AChQoAiWLtAeoT8JDFElcqiYwBJVLsm696qiCkIpa4GkkAoHLjdQEU6KFWyn0OonUDPEil2nuQTAx4EKHEFlAxQEIPKBRRSNKqvgC0NRgCCltAAe2tAN8Tp08YeaitmVcAdOLmFJ0FCApJq143AMC0aHv7TUjIQ6Qkm6SRh9iUelXWiqqk3eotwCMPCjBlLZQCDMmbXspNFkaAUiyAUZUS5WgBDoWUKZvmS1BbNcWcLEBw86VqQ0JCdmvmFQANFAXUzRENaIo6t+mN0tRz6MJkrWnhM7o9EB4rma2rNGpGRFjZWKRqRHXpy7Sqw6ibDGKuAz6kNVpAQkl8FqAThw1z3NgfDa1odMO1Yzsai6UPqS4tfx/grFhqkAnsZHk5kqvBG4GH7NvEWY121ExJVyyzh6oaAqHRhSr23afrBKpSLFZocoSjPbINKQkkjisFA4htux4totIDYoXaF5ZlZAE4OOV0mS5mN2Z4HuZ1vWdafSL99tx+XgC+XREGFw6z9Hm8/yhJZsa17f2uubMcBPh2lZNekjwJaKKNCusaDoMx09PDQ+BsKV27Ow3MzTB3bQG/z1SbMDfzAHRLN2tnzB3qNLsdYaFmKygLEQPzbN/u0f2rra83c3Q3UvGzhUTy+ckb9n/N9cPtMv9yOB6v/wWsf7eXf310/eOAH/8C);lineShape=1;sketch=1;hachureGap=4;jiggle=2;curveFitting=1;fontFamily=Architects Daughter;fontSource=https%3A%2F%2Ffonts.googleapis.com%2Fcss%3Ffamily%3DArchitects%2BDaughter;fontSize=20;" vertex="1" parent="1">
          <mxGeometry x="409.8305504391517" y="-321.5700440036903" width="22.40503235567121" height="34.15716572884821" as="geometry" />
        </mxCell>
        <mxCell id="DAvXUuptx5vr7CyddjTH-51" value="" style="shape=stencil(rVbRbtswDPwavxKSSFHSc9f9R4Gmi7EsKdJsa/9+9AynkVTfamBvskxK5PGO1MB3L/uH590Q3MvlfPq++z0+XvYDfxlCGI/73Xm82Grg+4Hvnk7n3bfz6efxcf5+fpgsp9WP06/phNfZL1HUySm4t3mDieXvxtfZ/DAeb8yDJxcqeyEf1u2Zyfvm/ALsoyeJlb1t5HV7td9S2TtKcd2+eMqxsXcO2AtJjU8gBfEXpVTq+B0FdEEmrQGyjAuoQCmUGkSVlNcdvLumuHjEsJyxdoVw5aCZInLI5FLlkANxgjC5GtYSKKOsmbTOwe7MIOviqNQhvQP3oUPOJDWzSyQG1MtKoUbJdhiUOgtpzdXEJCgkbskUDWgUUucgRqZNIQWlCAo3JV07eKtM2QKrYAF1dTP9gPMnYtRy8OQ3MS+R1y3U9mnB7JPiYU8R1OADfUoixvpsWoBa10Yg5VY96ZrWJ9tYLpRRSNL27ZJwSF0jvsHhP3n0w8GQC2A69NPHkIubxtvEL6DQfn5al8nAoZvPdoECvkZK0p6PmpJ08XjIvbAMgisxBA50v6j3yjyFanBtydTsgdz62RZhf+m1JnBSdfFYyQVQqMvXHjwCdNDh6SNUZlcvkzagT0cHoQTQ3/ga/Ke5Ld4fnk/j4TC/W2//tw9V25ofuXz/Bw==);lineShape=1;sketch=1;hachureGap=4;jiggle=2;curveFitting=1;fontFamily=Architects Daughter;fontSource=https%3A%2F%2Ffonts.googleapis.com%2Fcss%3Ffamily%3DArchitects%2BDaughter;fontSize=20;" vertex="1" parent="1">
          <mxGeometry x="419.97292338836564" y="-265.89281240864534" width="10.937346887584681" height="1.7856248172906817" as="geometry" />
        </mxCell>
        <mxCell id="DAvXUuptx5vr7CyddjTH-52" value="" style="shape=stencil(lVjZctswDPwavWJ4H89p+h+ZiVNr6toZx+nx9wWryjYge2m9yRTWOLhYghr808f25X0zOPNxOh6+b36Nr6ft4L8Mzo377eY4nvhp8M+Df3o7HDffjofP/ev0+/2lWbanH4ef7R9+T7hqqaaGcubPtGLJ2n8LXyf73bi/tjeUrLBPFOt9+1IpBfn/jrIBgELVS0CiijwUCjIi58hHCDAyJFfIFQDIlLMA+EAZhZQpFgEIloKHgCBDCpkSDsnLKkU/F/oewMl9jnVeuQswcqMDFezByiqlSgUnbWXSOVDAIQUnAYV8huSLkhrFUgEeuBv+M+cMiJAa1ZOXVWJ2ReQh6RyaT3cfYI0hI13UQgm5YG5I9tVKBvdoMRoQQF257CZpQAaA5Od9ugJU0KNMf1elClzqcBPhucPqwgVQMssd5jUA9RzTdZE00hmr+4H3DeVsdMpsHwEzAiWn7S2okPWz8J4BLGygoy/SfgUIoEKsctVpgAce4jniBwHZzzr6YEglkbdrkq5x0T24rI36VgPQvvHr4jUAEaO6WXgfZF7hA3BBVUTtxBEvFAA1T3SUVvZn0oNDRwK4f+qiP5HIWEN2oQBIxtyNiJBOrhXitfZeTw2doyHpfu6cPex91eHGBVWS2jk+ebRTGXQOaAYUSdTOCNAAkhSdIaMBVo0xbTyVzdYZlBiQpM53RrFWJZl0Z9hjgJoZOuMkA5ysUmdgtYtbQGckZoA6GjpDNwOMrFJnrGfyKQ3rXBxYEmVEnYuJvgR07j16fDZUULpufn2xR9FY7k2j7FHjcHJquDiL321piWSdsjeA1CFQDdoeFD9GPRFi+9aEZUU8fO4XHQ/Kl4VKXQpxPdtdZM1+8TU463gQH1Zfs7v2/HC507+Nu930SeD6vf4GwEvT9wP//Bc=);lineShape=1;sketch=1;hachureGap=4;jiggle=2;curveFitting=1;fontFamily=Architects Daughter;fontSource=https%3A%2F%2Ffonts.googleapis.com%2Fcss%3Ffamily%3DArchitects%2BDaughter;fontSize=20;" vertex="1" parent="1">
          <mxGeometry x="456.1254697735774" y="-263.16191688136905" width="1.3490741857553985" height="50.40801183520466" as="geometry" />
        </mxCell>
        <mxCell id="DAvXUuptx5vr7CyddjTH-53" value="" style="shape=stencil(lVhbbhsxDDyNfwlJpF7faXqPAHFqo24cOO7r9uXWkL3keifIn7PhiG9ypA0/vO+e3rabFN7Pp+P37e/983m34S+blPavu+1pf9ZfG37c8MPL8bT9djr+fH2+/P32NElOv34cf00n/LngEmWZQCn8vXwIJPH/h68X8cP+dSaeqScjzpTbungMFK18pVyAPJNYc/SEIgBQqRQLEKpAgzosbAGdUgWASpINQH3uQAMnqsECGmUGgEq92qAyNEmYYreASg2kQRYaJFEEYc1aFjZvcs38fUAhcYBOAThdtDKiAajOBCqvMBWbh5yJgdOlULUm5UYJmdRJbC2pkSjTVYNoa2kyMgCAeB/UyIA0FOoO0KiDxFWNui2+GqnldUAL1GxpqJERARIVmzg1soFqbULJmYQ7ruXRwQPQ4hgL9wGNxGqYjgC11NVpp6HBsdf7aJcB6JkyBri51AsMqwJcphXQQbVOgGYBFU4+BVSnQecSNik5DR02kJ5X2AMqAtRRmzNABz2tgCALAKglDWKqHlA6AOQ7PkSkIVNsPqyCfJA7iSsIkMcknZUG6mkF8KKWAtbQnEl5zMK1sObuAQG0qLrIDiBwamgQ3dS4xW0N0NmbxMikPjp4BkA7TgE+SmV0+Qr7CX4aaxxgbXQ/mNQtBhulL3ZWx3tXz/Ma+sjlGsBRuKnlUJg01TauszisVlP0KhqarlqvC5sYN+nnAE15qstcgj7olmM7mXSlBOCD7tHodpBQAHHVTV3clotjVq1yAbfa9QtIda1ja85WO5pMdRHWiTwgAqTU2Y4BpScJmZSGxTMCVMDsUxJXbJN+QLFK9fWtJC4hXimeAClNzMDpEhdEVKsLFN/EU60PWWC16r/das9xXBHuA4JfvIKrVXSPWh9EoAaJ/ibHHTJXLotLDZ7fHPzA1y9oHOvlNduwJlwaehd2cylFSBNj9vw+Fuh0jCOvV0CCw7X5G4cSLJAFpmbFtWGBeBjL6eovbP9ASZw4w9ODPx1Ff7E747hXr4m7rUMMAhnGnLq9e6CrXvAdiZ8lwrjw38QZnt78I0xEvMIzzgC5V1w+8aBNFqlHLw4Grt7as7cdFMEn35s+FNcft6etl/3hcHkZm//fP4Xpp8szGj/+Aw==);lineShape=1;sketch=1;hachureGap=4;jiggle=2;curveFitting=1;fontFamily=Architects Daughter;fontSource=https%3A%2F%2Ffonts.googleapis.com%2Fcss%3Ffamily%3DArchitects%2BDaughter;fontSize=20;" vertex="1" parent="1">
          <mxGeometry x="506.62237413925345" y="-263.18023941472757" width="38.27272881307408" height="37.53062055875489" as="geometry" />
        </mxCell>
        <mxCell id="DAvXUuptx5vr7CyddjTH-54" value="" style="shape=stencil(rVfLbhsxDPyavRKSKFHSOU3/I0CcelHXDhynj78vF1u5lhhPbaC39Xq44mM4pCZ+eNs+vW6m4N5Ox8PXzY/5+bSd+NMUwrzfbo7zSZ8mfpz44eVw3Hw5Ht73z+vv16cFuTx9O3xfvvBztWNKcTEK7tf6IlFeX3xe4bt5fwH3jqrr8JmiA/hMWQZ8Bd8PgTh1eKHAAJ+p5MH/KNfxzFTcgF9+XcVXEu7wkSrwJ+rxI16AP8lR7v1hqsCfJOT8gGfgj3hyfX4CCfi+aLrrgPfA/+yJe388iQd4/X4a8H8c/BBffDu+4R2lch1fE9U84B3gZ80U5I781EJxiNdRQAfUMUEaMeoANSi9RyyNg1da8hzimdOBMiiCHpFD32SFEjZwfdWK9ikom6ZpMKiBCopa2t9ng0IFRK2FHoRriQrFECmU3iARIypxK+w5aCFGpQ4jNzK3Nx8bKBP6ZkuaN+SSMYi+6fGNLqmeJlQ4E7RnknpPWiNuIFM31xTnRmKoItzFvAwFzFJbR5bg/hyahz0lNAJtf8bcROFGCRBVeZQkIzK5QFm1Mlb0TOSS0Ul9A10yQnyRh/9kYYeDJiIC8tnpo4lA49yONzVAYdv5qXlCwmcH9JJYoAF2A9AWEVBru2KoAVIZu8MsSglisEuSGiD62S1MZSQDl+yapwbprj1SlS0Dl+yiqtrpgHDYTVgNBLDVbNqLdIIDQtPdi+9XFAGVHq8t7QFVtXl64S5MHvSCa4vdWWMSeVAC1fUeLwlOErvFJLjaWlXFq7bxhyMc5yZenWwFEWLMp5dG2tvqpYxCEmz4kMmB9Cjd+gbAF7t/3gP14e8d8mXe7dYr6OX/451TX633VX78DQ==);lineShape=1;sketch=1;hachureGap=4;jiggle=2;curveFitting=1;fontFamily=Architects Daughter;fontSource=https%3A%2F%2Ffonts.googleapis.com%2Fcss%3Ffamily%3DArchitects%2BDaughter;fontSize=20;" vertex="1" parent="1">
          <mxGeometry x="531.2015905842829" y="-275.50861867359754" width="22.523705882054173" height="1.8172251401638277" as="geometry" />
        </mxCell>
        <mxCell id="DAvXUuptx5vr7CyddjTH-55" value="Treats" style="shape=rhombus;perimeter=rhombusPerimeter;whiteSpace=wrap;html=1;align=center;sketch=1;hachureGap=4;jiggle=2;curveFitting=1;fontFamily=Architects Daughter;fontSource=https%3A%2F%2Ffonts.googleapis.com%2Fcss%3Ffamily%3DArchitects%2BDaughter;fontSize=20;" vertex="1" parent="1">
          <mxGeometry x="621.5" y="-240" width="83" height="60" as="geometry" />
        </mxCell>
        <mxCell id="DAvXUuptx5vr7CyddjTH-56" value="" style="shape=stencil(nVrZcls3DP0avWK4AFye0/Q/MhOn9tS1M47T5e+LWw2vxMOro6RvtsRDLMQOnfKHb4+fvj6cUvj2/vb6+8NfT5/fH0/5l1NKTy+PD29P7/7XKX885Q9fXt8efnt7/f7y+fz/10/bye2vP17/3G74+4wLUsMGSuGf8UGw/z749Xz8+enl6niSZtPxKJpuH1fJ8+1JtN8+bnh7lh5uH6+iZTpuooT3LrFOx6skcnuMEvJ03i8gssYkHXQTJUYCUOk6AzKnUKS1GWASCwE0aWkGVAkEsJkDUGjSCUv+oLXPL+xXMANSaQBIwwSPAYvQfkUlak0uNBhdkZpvA3KQAiw1KkNOYrPh+RVGtJQXP/ArtBKAoWn4FcxYcx337YDdmY4BDdXqV2SiVg2SZlvyK6wRgIcGELpLIcanrpOZJeVq1Sw2e5zTLERLqmKzWjeaSgC2UMiSmdBlcLwD/O3JO2gdDOwAG3HqGNBGkNsBRRID9BFzd0AdL3MchcMiNA8CFsXmSOlXMBksLQC/ggH8peMMSMPLjwE6bHMHKA2VZlIhmbgDMYBHUmCp8uTWJM+mYX2EhWNAx7hUgnRCoURJsy0Vz0lEhsvXO8AkEJaKopYKTyil4DuUxmVow132LO15mBhfDSNn7oAsgfi039cBoCNNHgOylFmGWqQQn642YsQOaDQI1Cpx9ocW6DvUJcc1j3wkx/l9EDVaprG1pVEH7gCTRPLDdt9sfK3QPN0U66XWhhqOAQUdqHVJxPhalTKz1F0NjMKi1h5HjXkM6JinO08ozkCfTaN7zccAafjXFYAVJz2jP3TPQIyCYl3sn7Bw33dD2AFGI18vCwWj0bt3DGR+hTEZulhAAKs1HFATAjpTa8e6tVdaCTgAX7rSbiaG3ed3RKPWt5GADqXTsLFJ3RBwh4JVBNx5ubyw1LmawkKBApae5h5LTUr8KaEb1tL31Nqw0r33cP41sMRtwwG2AKj1NcxZ9+y7DQZ+3INiQcAdH0WhC63WHVAMAY1TaIpaSiTeb6ZWEFBJ6Dv2UVZ9H5BwA+Y8oRB95L0fVVOniffgIfY0dvOpYbIReH3yPxDe8S5MsYLdkxTm6sbF9rxZEcBqV0+9FWIZb5y8WChAodDZhlcDUDN1oy/h9YYmBLB5nVc0MHlwNVAKdcnVaSSNY4AtgSPyylKX8Bqol3plGaHY5S+91cKzLW1SEUDtoye5KnYz8eq6RPyt/CUyeMdQoTqOfLapWD54CZ9YW5NHLXzVdBhrOiLmlI1JInRZAs2FyWNAlQYT18zby7L0ct78sW5RJc0sOZPMlrzjhYdzJhOjEKTMLHmLrMSWvGsPAMijDbk1SIBxi/fxrEW2sggdaIYwRRc17kCWl2FIHQH91kAHyg3jFb5FtCVTOhG1MDjeAZl2i9oxGDtNZt7aFqED3SdoRZacJp3ElZH5rwZriTyc7iOoq9Ed63hVsSPYhoOMQsbIp7zN14QdryqfVyackzlNlrI0YCWg3B9yx4fzKyrRUl6it1/BWuRc0af9E7ohMBwD50KHUjljqNwG/iS25iQR5veJdgQ5jPt2QKAz1+Slw7IWMbY8Kji/908oQFFLSelKYVsfAiDR2JrCIkOQxnZyDSlsCzDy0rHgEnJbsRGWouLsO/ISLibUUsyjZ77RpIjNQm+LSFZgLXUuNb3FGSrPb0vGpQOvjNNZ5fvEZRU38vXh8YDMJOr4i88kGk0D1s6Jvqx3RLBspZ1hwH0035ksnWqkhc7BcVaqhWHk43igO9Yw6u/LcSUmFsay83KcJdYwNpeX42yPHnDlFuiGIeAMjHeyP/mLirvH/Y/Ljze+PD0/n3/7cf09/tjDPzr/UCR//Bc=);lineShape=1;sketch=1;hachureGap=4;jiggle=2;curveFitting=1;fontFamily=Architects Daughter;fontSource=https%3A%2F%2Ffonts.googleapis.com%2Fcss%3Ffamily%3DArchitects%2BDaughter;fontSize=20;" vertex="1" parent="1">
          <mxGeometry x="526.6138001549589" y="-262.3878886981056" width="106.58927050951729" height="49.39440970097553" as="geometry" />
        </mxCell>
        <mxCell id="DAvXUuptx5vr7CyddjTH-57" value="" style="shape=stencil(lVrbch0nEPwavVLAwADPjvMfrrIcq+JYLtu5/X16o2JzaPa04jd5D21gpufOg7359vHdl8eHHL99//r86+OfT++/f3ywnx5yfvr88fHr03f89WBvH+zNh+evj798ff798/uXf395d6w8/vrt+Y/jf/jrBReDtwOU49/zQ/R/P/z8svzT0+eb5TnYWJanUOv95SXEuiy3kO3+8hqyL8tLsHJ/uYe2nt1DTPeX92B9Wd5C7/eXpxjSetcRhjh8yiHFVTb4ojawuf8JKFMA14AaKknfQxUCSi2kVf6pB1cA/JwXAPggL33K5ARYiFEQKIVEO0DrTQDyBmghqx1sMvgEjCmGe4Cx8shSiEMASuhEa+wppIQrtlXTVkJTO4DaK5fMQxZcgkxIcdZCVUfqkzknoIeiACMUkhK+CHOzGIysGV+EpiH1vB6ppGDiSAZqpBWALxowOgNGFgBjTRebmrkGQK90pDLldg2ATa9iLXWK4RrgoaxOoHhIwmuACMUYMBRgc5SlTU97DRjBVvIVcEmIFUTItMMIUVwaRMiZAcqRQa/EparJB73SDhWeSu0AX50YoLgEvVI8qXmS5Rrg8wAnwEIV5IOaIu1QpNeAmshV1qql1MOgHXwmENeAETrdAVFXAKCmtrK1jinoa0BiR+ZRBhRI3QhwxqRrgDGXPEsThdTJL7mFIhQHqcf10l4kNQAYq+IcXxTAOU5701JqYawRyPt0PNeAHjodaUhXCb321eLaaeXX6R6oseqh5VBUfpiCU8Znc89rQGbf2src8xpg7Pna6c+vAaDG6u6bS4sDgCyuNenuQQTKKluXbHXnkNWGrAHAHApZACib9s4RqMdQBVvBHFt36EkG9hZZDwAoxR1UoyNlmVW28+cbgKsjISVsDBhqB2MT7Sb9ErhJmgagCncPblLB1E9PdQ3wGWRvAK52aDNAnYAqSxpwk5JEALpS3OCw213mGj1yjANAsRXMibRDCyYU18+4fwNQejiIYAxQl4bUI4m1T3ZdAypnAgDIOzgnJwCo+gEnphQOgKEu3WcufwKGdAL4uayXHlGWZfi5OAOqIN9IGyBJexhb6gCASn+GsdfAf6E6IGPrmADQheIAGCtbsae8Q+WwC4ApKTm3iIaugcaYJz4BPnODe4BBYm2zBLnTmolsEEAMpYjBld/o0kbHGdJOwJD1AH72wYCq6Do29mFPDSAy3cjhGtHZ0RxyUOTo3Hc4rqX42qcN3wBUHAWArboHF92ZsUUIfFG14jhrzxtuqDTxuAPZnL8qpQ2gCrOxlU0AqOz7EKJvABHlxtj04NKEAKBkergsOQ7mbCaXNF350rqNcAHor92BfV+XnY3j0pvJFQ2g4vKwUS2lvHmBoaUU8wZQR+qcxB230gZUN4B0+D8MqNNH3Gha+qUyTf7/ks+C7/RWO+RN03X653u5AHXvcciqLG4fD5jUdB+ciAKgdkCKxfaQdYrVtqiIglYBnGsUAKICFG6VQ26qqEFF0rcUq6lL543eSSeiaQtZSae6cQNEqbg2LgAqr0RRw75VT9VQNnXKvrVfAiBSYdZlUdOu8vusLl2DrSYKdinFoXyloAh2NVUrZu6tA6DsoSWOQADImj1uYq3TLdzrO/AOuhnviDd0hyLzJW+c6sJClE27s8V1e62dw6XfObS91zCiNjNMSk2CvGzdmSjZ6nbRMFLde89scYdJKSmlGZVvumRd3SFuXTIdgXyrOGAhavxVO1ccrciaHYC0tTdVD6u2OV6+aaCqaXw9B0UnIEonUCsPRfxMV+51vqk74zrnq8ZdAfBXufu6tWj9FT1sTeCDv4JLxwSCnhWYBBwzDtohy8z4GHatXsP1lL101nQd0hmXxiZau+xLF58R7QQ06chK5YEz2KV6WKWwHgBQQfGYtNIOVU+z8gYossNUEo/lQUfF1hLZzQCg8iUbnP4c/NWzVwpZ4K8aWVjjKFrPTPYa4NsO2gnYNlAAf1XHFQBylUX3Eq2w5ys61zDjKusYaatL54sZuCKfJe4JHGN5/dqBKpSiH/PkwflS0YE9b9Q4htxCSgCwHpJ8kJSdsxkQ/pV3LRTjTHfVAKDeumnFHS/IVsWBLENJydhVHo8+FCBzBIIqJWDrGkPQEhC5N5N1fykN7mBBDKp4TX1Ox05Alr3HtM38cEjZca2cOiQ9UEg2K88T4LJ7nxL3T1OR5BvzBdW5PsmUr22lq84Qt/pHv1DhdrGHIlIx24KhftPGrQOTwTkypbWjiJzlZampyGRLks3b/C1JLkfuh+liZEvLk3zrF9n/RPkGNHKiFmfWc08ymZaryityshxliMF/xstVPRE55OlZQeSA99ryH3o3/Opy/PHfE+UPT58+vbxwvv2dnzTj08tzaHv7Dw==);lineShape=1;sketch=1;hachureGap=4;jiggle=2;curveFitting=1;fontFamily=Architects Daughter;fontSource=https%3A%2F%2Ffonts.googleapis.com%2Fcss%3Ffamily%3DArchitects%2BDaughter;fontSize=20;" vertex="1" parent="1">
          <mxGeometry x="519.4189498019755" y="-263.17779362992496" width="117.17261089556109" height="50.722219838564115" as="geometry" />
        </mxCell>
        <mxCell id="DAvXUuptx5vr7CyddjTH-58" value="" style="shape=stencil(lVjZThwxEPyafW357LafCfkPJJawCmHRAjn+Pm2tPIzbM4WQeJgdXOOuPss+xJvXx7uX4yG417fL+efxz+n+7fEQvx1COD0/Hi+nN306xNtDvHk4X44/Luf35/vr75e7trI9/Tr/bl/4e8V54tRAwf27vnDUfunf9+vyp9PzarmQ42F5osr7y32iVIb13lMoAFCphhGQqcZ9QGDyo0VKybt9QAxU8whg4rwPSI7cyEE/ERMACIXRpFigSTlS9qNXI0XgpVyouhEglOs+gCPJGObsu5HbgNLTYAFoKAEHCTbSWSgBk4QpjKTZwdSQSnnkoKyQW0ugPHLgTAlEumSKMgKUA/BSKROH2kO5CaiOZEwN8ZQB6RpspCUSI0AijiMg9xLfBmgBjaRFSIBbq6aaMan2PbcBxfYYjYxDO1S7Q1FWyK1T1yhCDHbwznULOkJDE/EWPLpJaQWQTI1EsIAiEGBKTt+gkmvfcxYgoOQUEL0FVJRM0r+3BiAOsrGDIC+xzW8FRAzg2a0ocNzb0ArgEWmmPFZQy3iU30xiAAxnln7PiQUkVKMy5ZJWLRjTStEZgI5RnBqmueoODmerLSDGgau2uSoABq72El7FISIOtXfGVaQdikPtQ3MFYEw6Gi9p0aLAFSs2PozcA5gx2ioOp0Yd3brqbXuIxHaLgiInUzItDXq3IKaihiaxFUCtVaFQs50QrVXhKfdlQDHpqgMCaIFGeuSgcqKiGs29XhaAxwWRKEyDt2DxUMb81tEOR5CnNIkHxKFoIowcVJ4U4Fady1Zt+N49twGpK+GVxEJaQJ1oIt1EHEhvKRMgw7ahPglGJgasXNWkseIylok8jdGMB4QaIEZ9R6jvVZwbxZQqFKJZ9f1IOmn+Ai8l7vJoAWhfAjUdq52KMcFzVvSWQyjwJBdyPy8sAD1BgDj40pN5aa7SG/o2INoh194ADlpeY6CXA/bmctczeSEA26SzB9EAlY/rmmIxHha/61XysZzxcmeWI8E9fd1BATPZ7uAhZvKMg/U1+R3fkjh7VliuEHaWV2s7mpbettDPlqfp6+gG5msXQp8u14ePu6eH09PT9epq/X97V6Wvrvdc8fY/);lineShape=1;sketch=1;hachureGap=4;jiggle=2;curveFitting=1;fontFamily=Architects Daughter;fontSource=https%3A%2F%2Ffonts.googleapis.com%2Fcss%3Ffamily%3DArchitects%2BDaughter;fontSize=20;" vertex="1" parent="1">
          <mxGeometry x="683.4339701069571" y="-195.16203428278754" width="54.103044868759525" height="43.04536762856992" as="geometry" />
        </mxCell>
        <mxCell id="DAvXUuptx5vr7CyddjTH-59" value="" style="shape=stencil(lVfLctswDPwaXTEkwOc5Tf8jM3FqTV074zh9/H3BqmpN2F2VN1nCWtjFAqAmeXjbP73uJnZvl/Pp8+7b/HzZT/JhYp6P+915vujVJI+TPLyczrtP59P78Xn5/frUItvVl9PX9g/fF1zNlH1Dsfux3AlU3K8bH5f4w3y8jg8U+3ifyGUAEOLSAThRqAAQSWIHECEpAJBsSsETBwDI5KUH1PUv/gX4nfEKiJlqAoBCjjtASuQZAOoq4grIQgHI6p0j5zqElqZi1tIXogkHSJS6OuEPQGkBmbI+Tj2grkrfBSQtbLaAAmQKmbgvxJUOdxHiben0FSkCYTMlsaxRR6iZDOlMEb2AfLZlcEAkZylrnQPIJ1DqrVcZauqFsimzagZ8of0bTUYOelXbsfYpqbUqkCgW8m4E0JpFRlIqicSPkG5TqYzIqjYzg3Wjbs1mhgM2Rksg3DgPNTSTGKtia6dC0VgDN09kSoP9mSh5+wqkq/ZPFQtAQ8Y78tWyRmOMbzLCc3J0EI/HG8Jbq4Fq79SN3cN2fW4sN7VdP8A2tqfYCbyxnsNqsf/c/4lyP102DhjR5rNxgmE7gPEJSSj18ugNwFbPXz1bxtsj3GzAdRrfT56p9m5zsL1Ua1dMPAPxg+YTTTzq9xgtXxyv3jW7A+eTdR37Ab4lWvdgPXXo8ki9dHZI373YDsPn8c14vfh7+H+ZD4fl2+H6uf1Y0FvLh4Y8/gQ=);lineShape=1;sketch=1;hachureGap=4;jiggle=2;curveFitting=1;fontFamily=Architects Daughter;fontSource=https%3A%2F%2Ffonts.googleapis.com%2Fcss%3Ffamily%3DArchitects%2BDaughter;fontSize=20;" vertex="1" parent="1">
          <mxGeometry x="727.1730365324158" y="-190.5834016819431" width="1.65393456456286" height="16.32993501121223" as="geometry" />
        </mxCell>
        <mxCell id="DAvXUuptx5vr7CyddjTH-60" value="" style="shape=stencil(lVnZUhwxDPyafXXZ8v1MyH+kKhC2QoACcv19NFk8Gbdn2uFtD/dYlltSS3PyVy93n55uTmJfXp8fv978PH9+vTv5DyeR88PdzfP5VT+d/PXJX90+Pt98eX78/vD58v3p07Jy+fTt8cfyhF8XXHWmpgUl9vfbL9nY8PeXjxfA/flhCxBjfQ9wpngC0B1qByjZ+EIBGQDWpMwBvUk5mRI5wPYAMZmb9GZAA6RiinBA6AHBlPougJ2Z5HtAzMYRQKnG9Tcd9eIYIOA9hGqEnEG9niPukNwxIFWTpQck4wiXUhx2WE+1D1C2wsWJifYYEAtSIyVjyQ4x4g7ZGksOrT6pAPAmkohTr8NNq6MpwDf2bwOIxIOvxgoCKtnBq8UJTQrk0F7w4jTiAgkgBcQeoBGXmEn6vJ6tS8Rxk+IQccytCkgDWy0JoOXQPZf07ic7lB4QNKQI+RQAXArOBJIq9eJcv4PXiOMA6b3klUvMJG98Tw2JNIAUEPrs7Wpz9CGgp4YLJvAdIPNp3mHXMGT70HbcXS/Z1ALPrySLqUNCTySnXiZJSQSLg0umEm6rB0tvkVhaEZ2W5D569MyR8MJFlAFSjCPFQY8IeXJxM/FSwQQQcqtHB+ulNygUqksy5ovAWbEmuDWYLU150bhhPbPfo4jR9UxiaL6zuD6S9c5IwvNWQjqLUabrLfGnRUKo/1kdtC0rbHIdqzl6Onh+pFHmkNG63hL/C5a0oBHA6kfz3ma9kBCLTTtt1numdXbsYfzMJlk8L8taZbAnUVleBntyS9wH69H/pUXcgf25T1nKN5bVE9ZK5b8Q/ke0f4lHwv/Q0tk2HlkVaNG6Wc8K5SqNN+uZ9tWnDf7xNF6coP89sUfjEfiTqdrfW++JP4f8togXmj99n3+UUZXyB/LDEnGsa2zZY13vqOxwmnChCGeaoLVEylDmmQx3pXXeG51CTrCkdAiB1k/trw8oYKX5bH+9EqYv2ZZmUJWSoBVXjhy1HaBSYqv5+xFpUSlWmqGDRR03EYoLoI/5iRRVQH6X2FUAHHkip1XPQ2s2EewKcFC3eUugf3tIFLzpWJ4HSsVRHikgQmrkPXVYleG2NWO52mF7qc1fIlRVQBnaS5ZN9eI8jIy4PAiD/ku1NWv7gEHAptQk3tEgAeYzSZrGOxpVQEmOhQMqNioxUI2Q1gS3KWpM1KWM40etImxOlmUog5GOvbLqiv4egqe6q+jfABAq7Kq0gNwqQUKNmnekOMtLde1kVrcK1e51LRybiKO1yg7lfDZ/rDjWnU04K171bIY6VOjZlLY2QfG/c+C6NyhjmqEiv2ez7IoqbzYtr8jv2Ty+tj59A2DpWwFQpZVeTMjr3xBBdZ0XHgHsAGDSXy0Grb3cDDNJlUbvpQ2B9xGDnJwiAjbAM6M8yqvZsQUJPnPs0PPPrm4Yf8/I8e7XQXOAfvj39un2fH9/eXm1/R/fVulPlzdd/voP);lineShape=1;sketch=1;hachureGap=4;jiggle=2;curveFitting=1;fontFamily=Architects Daughter;fontSource=https%3A%2F%2Ffonts.googleapis.com%2Fcss%3Ffamily%3DArchitects%2BDaughter;fontSize=20;" vertex="1" parent="1">
          <mxGeometry x="707.126744274874" y="-201.20816677598145" width="21.78422177319726" height="28.24348026073403" as="geometry" />
        </mxCell>
        <mxCell id="DAvXUuptx5vr7CyddjTH-61" value="" style="shape=stencil(zVjLctswDPwaXzEEn+A5bf8jM3EaT9M446Svvy9cj5QAclbmJc3NlrAUAAKLJTfp6unu+nG7ieHp+bD/tv21u3m+26RPmxh3D3fbw+5Zf23S5026ut0ftl8P+x8PN6f/j9dHy+Ov7/ufxxV+n3A9UuIjKoY/pyeZSfK/J19OgPvdw2sAU2oW0KkXCKjFAEolaQCQqEUDqI1SBIBM0brUEsUKAblbQKfSAaAQZwMQfZIAoBGLAWiiOwOAULBfUCcrylKl6gCFOgo6UkkWoE6CL8i83gwQiiDo1ijatPZOAaRV9zUkD6gAUAo1+wUOgUJ4G5G1NngIkeIibOxUjNR4JGzOi71eSSxl5xHeuUTJ2ePS4EXEuPbmBL7qhgI4I1C19tqfHTQ0+/W1UATkRxnLMkxlYrC+doJdvygh4Hxa+9yogPV1fx1FBsqAIjM163/SL4J4y/R2so91ops37F28GZbDnOzZHUpgdS3nYsNluLy647o+TPt3PvtCHJw9qv4SKbOzRw1fK2Vx9gn404TEUQrMvogfHuog8EfnX24u/x3ZK8XZ9ef9Pm+v4bnpRwHEKwuJILAeWpgExEwnEx+d3y8lMzc2oD7I0Q8BbK+vuQz4w42qDMSr04EH0qkjzJIt3q06MetLMQiaLTzl4rJi09qNtrkYj5bk/cHNokxZffPCZuRpMlzW7E2prDt7RCY6qXJ28a6oJifkMBlqMy65Fsm4c/ZYula3v5j7dfTHoeFy1AqWnlemlyrRNjQeVb2MzV+VRzw04I8CbEhBKCCPSZQwKoLeR+E7wEdQ+NkDPoLCbyNOvYvCdx79X4UfSSwLrxxfM4ldf+V8rK3iZiY+gGtVWE5aOeFXipa1V64QZBpiF95RCFXHkfgSpE31deEti/gpqBzcQP550fqpT+xxHiD+DKEyuyGhUHzTpAZDTsUTpAIy2ANt5L4AMFJSxR8MVgBVXeIRl9qij1eCFvbjeSWtsjjbr2xc18OxLe2V0hi/4VsH6I+XC8Xb3f396T7y9Xt/AamPTpeX6fNf);lineShape=1;sketch=1;hachureGap=4;jiggle=2;curveFitting=1;fontFamily=Architects Daughter;fontSource=https%3A%2F%2Ffonts.googleapis.com%2Fcss%3Ffamily%3DArchitects%2BDaughter;fontSize=20;" vertex="1" parent="1">
          <mxGeometry x="605.3862934904748" y="-240.5931894846608" width="2.027469476569877" height="18.149196181868092" as="geometry" />
        </mxCell>
      </root>
    </mxGraphModel>
  </diagram>
</mxfile>
